{"glyphs":{"0":{"ha":978,"x_min":57,"x_max":921,"o":"m 802 135 q 743 58 802 135 q 489 -18 683 -18 q 176 135 294 -18 q 57 529 57 288 q 176 915 57 764 q 489 1065 296 1065 q 801 915 682 1065 q 921 529 921 764 q 802 135 921 288 m 360 295 q 384 250 360 295 q 489 204 408 204 q 618 295 569 204 q 667 525 667 386 q 618 749 667 663 q 489 836 569 836 q 360 749 408 836 q 311 525 311 663 q 360 295 311 386 z "},"1":{"ha":574,"x_min":13,"x_max":447,"o":"m 447 0 l 185 0 l 185 810 l 13 804 l 58 1039 l 447 1047 l 447 0 z "},"2":{"ha":964,"x_min":15,"x_max":878,"o":"m 878 0 l 15 0 l 15 4 l 399 406 q 558 594 513 529 q 603 722 603 658 q 570 808 603 775 q 479 842 538 842 q 329 681 347 842 l 71 681 q 482 1065 111 1065 q 761 979 658 1065 q 864 746 864 893 q 806 547 864 635 q 619 339 747 458 l 517 226 q 878 231 800 231 l 878 0 z "},"3":{"ha":942,"x_min":54,"x_max":867,"o":"m 467 -17 q 178 65 290 -17 q 54 322 67 147 l 317 322 q 363 221 322 257 q 464 185 403 185 q 566 224 526 185 q 606 324 606 263 q 567 427 606 389 q 450 465 528 465 q 422 463 439 465 l 422 636 l 443 635 q 581 753 581 635 q 549 833 581 803 q 467 863 518 863 q 349 750 361 863 l 89 750 q 468 1065 124 1065 q 725 986 614 1065 q 836 771 836 907 q 707 557 836 624 q 825 460 783 525 q 867 310 867 396 q 747 69 867 154 q 467 -17 628 -17 z "},"4":{"ha":956,"x_min":38,"x_max":910,"o":"m 789 417 l 910 417 l 910 201 l 785 201 l 789 0 l 536 0 l 542 201 l 38 201 l 38 368 l 538 1047 l 789 1047 l 789 417 m 547 713 l 322 413 l 543 415 l 542 608 q 547 713 542 638 z "},"5":{"ha":915,"x_min":33,"x_max":847,"o":"m 404 -17 q 33 126 176 -17 l 117 314 q 392 192 228 192 q 532 240 478 192 q 586 364 586 288 q 525 488 586 442 q 369 535 464 535 q 147 464 250 535 l 115 464 l 244 1047 l 810 1047 l 810 831 l 426 831 q 382 681 401 731 q 494 710 424 710 q 746 613 644 710 q 847 360 847 515 q 719 85 847 186 q 404 -17 590 -17 z "},"6":{"ha":961,"x_min":60,"x_max":901,"o":"m 483 -17 q 185 93 311 -17 q 60 372 60 203 q 215 713 60 528 l 489 1047 l 819 1047 l 544 742 q 500 694 531 728 q 576 708 539 708 q 806 610 710 708 q 901 364 901 513 q 778 90 901 197 q 483 -17 654 -17 m 481 200 q 598 247 550 200 q 646 364 646 294 q 599 483 646 436 q 479 531 551 531 q 361 483 407 531 q 315 364 315 436 q 363 247 315 294 q 481 200 410 200 z "},"7":{"ha":929,"x_min":44,"x_max":953,"o":"m 953 1044 l 335 0 l 44 0 l 544 811 l 61 811 l 61 1047 l 953 1047 l 953 1044 z "},"8":{"ha":950,"x_min":76,"x_max":875,"o":"m 663 17 q 618 0 663 17 q 475 -17 574 -17 q 288 16 376 -17 q 138 123 200 49 q 76 299 76 197 q 120 447 76 382 q 240 544 164 513 q 140 631 175 576 q 104 757 104 686 q 217 982 104 899 q 475 1065 329 1065 q 733 982 621 1065 q 846 757 846 899 q 711 546 846 613 q 832 448 789 513 q 875 300 875 383 q 813 124 875 199 q 663 17 751 50 m 475 624 q 559 660 524 624 q 594 744 594 696 q 560 830 594 796 q 475 864 525 864 q 391 830 425 864 q 357 744 357 796 q 392 660 357 696 q 475 624 428 624 m 376 219 q 396 198 376 219 q 475 178 417 178 q 575 219 533 178 q 617 318 617 260 q 574 417 617 376 q 475 458 532 458 q 376 418 418 458 q 335 319 335 378 q 376 219 335 260 z "},"9":{"ha":961,"x_min":60,"x_max":900,"o":"m 757 351 l 471 0 l 143 0 l 394 285 l 453 347 q 388 340 418 340 q 158 440 256 340 q 60 683 60 540 q 183 958 60 851 q 478 1065 307 1065 q 775 956 650 1065 q 900 676 900 846 q 757 351 900 518 m 482 517 q 599 565 551 517 q 647 683 647 614 q 599 801 647 753 q 481 849 551 849 q 363 801 411 849 q 315 683 315 754 q 363 565 315 614 q 482 517 411 517 z "},"\u0000":{"ha":0,"x_min":0,"x_max":0,"o":""},"\r":{"ha":417,"x_min":0,"x_max":0,"o":""}," ":{"ha":417,"x_min":0,"x_max":0,"o":""},"!":{"ha":500,"x_min":101,"x_max":397,"o":"m 376 313 l 122 313 l 122 1047 l 376 1047 l 376 313 m 250 -18 q 146 19 190 -18 q 101 113 101 56 q 146 208 101 171 q 250 246 190 246 q 353 208 308 246 q 397 113 397 171 q 353 19 397 56 q 250 -18 308 -18 z "},"\"":{"ha":825,"x_min":115,"x_max":708,"o":"m 336 581 l 157 581 l 115 1047 l 378 1047 l 336 581 m 667 581 l 489 581 l 447 1047 l 708 1047 l 667 581 z "},"#":{"ha":940,"x_min":42,"x_max":901,"o":"m 324 0 l 169 0 l 206 288 l 42 288 l 42 426 l 225 426 l 250 615 l 86 615 l 86 754 l 265 754 l 303 1047 l 456 1047 l 418 754 l 596 754 l 633 1047 l 785 1047 l 746 754 l 901 754 l 901 615 l 729 615 l 706 426 l 867 426 l 867 286 l 689 286 l 653 0 l 500 0 l 538 286 l 360 286 l 324 0 m 401 615 l 378 426 l 556 426 l 578 615 l 401 615 z "},"$":{"ha":893,"x_min":63,"x_max":818,"o":"m 818 321 q 740 119 818 200 q 533 15 661 38 l 539 -156 l 369 -156 l 374 13 q 63 188 168 36 l 197 336 q 432 207 296 207 q 524 234 490 207 q 557 310 557 261 q 522 386 557 356 q 394 456 488 417 q 177 580 250 511 q 104 767 104 649 q 181 951 104 875 q 381 1047 257 1028 l 375 1204 l 544 1204 l 540 1050 q 803 933 696 1032 l 674 774 q 485 857 597 857 q 399 835 432 857 q 365 778 365 814 q 405 717 365 743 q 544 650 444 690 q 749 522 679 599 q 818 321 818 444 z "},"%":{"ha":1410,"x_min":57,"x_max":1353,"o":"m 346 528 q 141 601 225 528 q 57 797 57 675 q 142 988 57 915 q 347 1061 226 1061 q 553 988 469 1061 q 638 796 638 914 q 553 601 638 675 q 346 528 468 528 m 1128 957 l 371 32 l 276 111 l 1032 1031 l 1128 957 m 274 720 q 289 705 274 720 q 347 689 303 689 q 421 720 392 689 q 450 796 450 751 q 421 871 450 839 q 347 903 392 903 q 274 872 303 903 q 246 796 246 840 q 274 720 246 751 m 1267 61 q 1225 24 1267 61 q 1061 -12 1182 -12 q 856 61 940 -12 q 772 257 772 135 q 856 447 772 375 q 1063 519 940 519 q 1269 447 1185 519 q 1353 254 1353 375 q 1267 61 1353 135 m 989 181 q 1003 165 989 181 q 1063 150 1018 150 q 1135 180 1107 150 q 1164 254 1164 210 q 1135 331 1164 299 q 1063 363 1107 363 q 989 331 1018 363 q 960 256 960 299 q 989 181 960 211 z "},"&":{"ha":1167,"x_min":71,"x_max":1156,"o":"m 936 238 l 1156 0 l 849 0 l 760 99 q 599 8 671 35 q 429 -18 526 -18 q 176 65 282 -18 q 71 288 71 147 q 319 594 71 482 q 238 713 264 661 q 213 822 213 764 q 300 1001 213 936 q 529 1065 388 1065 q 756 1000 668 1065 q 843 824 843 935 q 651 546 843 671 l 797 388 q 933 531 872 457 l 1082 368 q 936 238 953 253 m 538 888 q 480 867 504 888 q 456 814 456 846 q 522 689 456 769 q 597 751 574 724 q 621 813 621 778 q 597 867 621 846 q 538 888 574 888 m 453 181 q 626 249 535 181 l 439 458 q 319 303 319 383 q 358 215 319 249 q 453 181 396 181 z "},"'":{"ha":493,"x_min":115,"x_max":378,"o":"m 336 581 l 157 581 l 115 1047 l 378 1047 l 336 581 z "},"(":{"ha":568,"x_min":106,"x_max":513,"o":"m 513 -149 l 325 -258 q 106 469 106 82 q 325 1197 106 850 l 513 1088 q 344 469 344 781 q 513 -149 344 164 z "},")":{"ha":568,"x_min":56,"x_max":464,"o":"m 243 -258 l 56 -149 q 224 469 224 161 q 56 1088 224 781 l 243 1197 q 464 469 464 847 q 243 -258 464 85 z "},"*":{"ha":639,"x_min":32,"x_max":607,"o":"m 319 667 l 211 506 l 85 600 l 214 742 l 32 788 l 79 931 l 253 864 l 239 1047 l 401 1047 l 388 864 l 563 931 l 607 788 l 426 742 l 556 600 l 429 506 l 319 667 z "},"+":{"ha":978,"x_min":103,"x_max":875,"o":"m 588 42 l 390 42 l 390 329 l 103 329 l 103 526 l 390 526 l 390 814 l 588 814 l 588 526 l 875 526 l 875 329 l 588 329 l 588 42 z "},",":{"ha":499,"x_min":18,"x_max":424,"o":"m 424 217 l 204 -232 l 18 -232 l 172 217 l 424 217 z "},"-":{"ha":432,"x_min":35,"x_max":396,"o":"m 396 254 l 35 254 l 35 469 l 396 469 l 396 254 z "},".":{"ha":500,"x_min":101,"x_max":397,"o":"m 250 -18 q 146 19 190 -18 q 101 113 101 56 q 146 208 101 171 q 250 246 190 246 q 353 208 308 246 q 397 113 397 171 q 353 19 397 56 q 250 -18 308 -18 z "},"/":{"ha":821,"x_min":-1,"x_max":822,"o":"m 822 1131 l 142 -242 l -1 -172 l 679 1201 l 822 1131 z "},":":{"ha":500,"x_min":101,"x_max":397,"o":"m 250 449 q 146 485 190 449 q 101 579 101 522 q 146 675 101 638 q 250 713 190 713 q 353 675 308 713 q 397 579 397 638 q 353 485 397 522 q 250 449 308 449 m 250 -18 q 146 19 190 -18 q 101 113 101 56 q 146 208 101 171 q 250 246 190 246 q 353 208 308 246 q 397 113 397 171 q 353 19 397 56 q 250 -18 308 -18 z "},";":{"ha":500,"x_min":18,"x_max":426,"o":"m 278 449 q 175 485 219 449 q 131 579 131 522 q 175 675 131 638 q 278 713 219 713 q 382 675 338 713 q 426 579 426 638 q 382 485 426 522 q 278 449 338 449 m 424 217 l 204 -232 l 18 -232 l 172 217 l 424 217 z "},"<":{"ha":978,"x_min":113,"x_max":865,"o":"m 113 592 l 865 886 l 865 665 l 365 476 l 865 288 l 865 67 l 113 361 l 113 592 z "},"=":{"ha":978,"x_min":103,"x_max":875,"o":"m 875 503 l 103 503 l 103 700 l 875 700 l 875 503 m 875 149 l 103 149 l 103 346 l 875 346 l 875 149 z "},">":{"ha":978,"x_min":113,"x_max":865,"o":"m 113 665 l 113 886 l 865 592 l 865 361 l 113 67 l 113 289 l 611 476 l 113 665 z "},"?":{"ha":835,"x_min":72,"x_max":763,"o":"m 547 326 l 306 326 l 306 615 l 346 618 q 473 662 431 629 q 515 761 515 694 q 489 836 515 808 q 417 864 463 864 q 341 836 368 864 q 314 758 314 808 q 319 726 314 744 l 75 726 q 72 763 72 751 q 167 983 72 901 q 414 1064 261 1064 q 666 985 569 1064 q 763 769 763 906 q 547 506 763 564 l 547 326 m 426 -18 q 322 19 367 -18 q 278 113 278 56 q 322 208 278 171 q 426 246 367 246 q 529 208 485 246 q 574 113 574 171 q 529 19 574 56 q 426 -18 485 -18 z "},"@":{"ha":1249,"x_min":72,"x_max":1176,"o":"m 786 807 l 932 807 l 886 451 q 890 379 879 401 q 931 357 900 357 q 1017 425 982 357 q 1051 597 1051 493 q 1028 721 1051 661 q 958 831 1004 781 q 832 913 913 882 q 649 944 751 944 q 334 822 457 944 q 211 501 211 699 q 324 215 211 325 q 617 106 438 106 q 886 174 778 106 l 929 60 q 617 -22 807 -22 q 224 126 375 -22 q 72 501 72 274 q 235 908 72 747 q 649 1069 399 1069 q 878 1027 775 1069 q 1045 916 982 985 q 1142 765 1108 847 q 1176 597 1176 683 q 1107 337 1176 436 q 915 238 1038 238 q 754 325 786 238 q 557 236 685 236 q 369 319 443 236 q 308 531 296 401 q 404 742 321 663 q 606 821 488 821 q 713 796 668 821 q 776 738 757 771 l 786 807 m 590 364 q 703 408 661 364 q 753 529 744 451 q 723 647 760 600 q 619 694 686 694 q 510 648 553 694 q 463 531 468 601 q 490 410 456 456 q 590 364 525 364 z "},"A":{"ha":1076,"x_min":-4,"x_max":1081,"o":"m 1081 0 l 794 0 l 726 199 l 343 199 l 271 0 l -4 0 l 425 1047 l 657 1047 l 1081 0 m 469 546 l 414 394 l 658 394 l 607 544 q 540 750 569 656 q 469 546 507 647 z "},"B":{"ha":946,"x_min":119,"x_max":881,"o":"m 499 0 l 119 0 l 119 1047 l 414 1047 q 695 980 592 1047 q 799 769 799 913 q 764 640 799 697 q 675 554 729 582 l 675 553 q 826 455 772 522 q 881 294 881 388 q 771 72 881 143 q 499 0 661 0 m 369 851 l 369 619 l 404 619 q 556 742 556 619 q 520 825 556 799 q 407 851 485 851 l 369 851 m 369 446 l 369 197 l 449 197 q 629 319 629 197 q 443 446 629 446 l 369 446 z "},"C":{"ha":964,"x_min":72,"x_max":892,"o":"m 608 -18 q 228 137 383 -18 q 72 517 72 292 q 231 906 72 744 q 622 1067 390 1067 q 888 1004 758 1067 l 892 718 q 638 828 769 828 q 426 741 515 828 q 338 522 338 654 q 426 308 338 396 q 640 219 514 219 q 771 245 713 219 q 892 328 829 271 l 888 46 q 608 -18 767 -18 z "},"D":{"ha":1096,"x_min":119,"x_max":1024,"o":"m 436 0 l 119 0 l 119 1047 l 419 1047 q 859 913 694 1047 q 1024 524 1024 778 q 863 137 1024 274 q 436 0 701 0 m 376 814 l 376 226 l 432 226 q 672 303 583 226 q 760 524 760 381 q 676 740 760 665 q 432 814 593 814 l 376 814 z "},"E":{"ha":872,"x_min":119,"x_max":763,"o":"m 763 0 l 119 0 l 119 1047 l 757 1047 l 757 833 l 376 833 l 376 656 l 738 656 l 738 449 l 376 449 l 376 214 l 763 214 l 763 0 z "},"F":{"ha":801,"x_min":119,"x_max":728,"o":"m 376 0 l 119 0 l 119 1047 l 728 1047 l 728 826 l 376 826 l 376 643 l 703 643 l 703 435 l 376 435 l 376 0 z "},"G":{"ha":1228,"x_min":72,"x_max":1156,"o":"m 626 -18 q 233 133 393 -18 q 72 519 72 285 q 234 913 72 760 q 635 1067 396 1067 q 902 1006 781 1067 q 1104 826 1024 946 l 878 708 q 638 836 785 836 q 422 745 507 836 q 338 518 338 654 q 424 294 338 385 q 629 203 510 203 q 790 253 725 203 q 868 383 856 304 l 868 385 l 649 385 l 649 582 l 1156 582 l 1156 538 q 1013 132 1156 282 q 626 -18 871 -18 z "},"H":{"ha":1101,"x_min":119,"x_max":982,"o":"m 376 0 l 119 0 l 119 1047 l 376 1047 l 376 664 l 725 664 l 725 1047 l 982 1047 l 982 0 l 725 0 l 725 429 l 376 429 l 376 0 z "},"I":{"ha":496,"x_min":119,"x_max":376,"o":"m 376 0 l 119 0 l 119 1047 l 376 1047 l 376 0 z "},"J":{"ha":667,"x_min":-7,"x_max":558,"o":"m 251 -18 q -7 78 101 -18 l 101 281 q 213 221 158 221 q 280 258 261 221 q 299 369 299 296 l 299 1047 l 558 1047 l 558 340 q 478 74 558 165 q 251 -18 399 -18 z "},"K":{"ha":1036,"x_min":119,"x_max":1031,"o":"m 1031 0 l 710 0 l 396 467 l 375 457 l 378 0 l 119 0 l 119 1047 l 378 1047 l 375 613 l 706 1047 l 1013 1047 l 614 556 l 1031 0 z "},"L":{"ha":714,"x_min":119,"x_max":690,"o":"m 690 0 l 119 0 l 119 1047 l 376 1047 l 376 238 l 690 238 l 690 0 z "},"M":{"ha":1404,"x_min":64,"x_max":1340,"o":"m 764 0 l 635 0 l 414 606 l 321 0 l 64 0 l 253 1047 l 465 1047 l 706 406 l 953 1047 l 1163 1047 l 1340 0 l 1079 0 l 999 604 l 764 0 z "},"N":{"ha":1222,"x_min":119,"x_max":1101,"o":"m 858 392 l 850 1047 l 1101 1047 l 1101 0 l 893 0 l 368 660 l 372 0 l 119 0 l 119 1047 l 333 1047 l 858 392 z "},"O":{"ha":1269,"x_min":72,"x_max":1197,"o":"m 632 -18 q 353 49 481 -18 q 149 241 226 115 q 72 525 72 367 q 238 910 72 754 q 636 1065 403 1065 q 1033 910 869 1065 q 1197 522 1197 754 q 1033 135 1197 288 q 632 -18 868 -18 m 632 219 q 846 306 760 219 q 932 522 932 392 q 847 740 932 651 q 635 828 763 828 q 424 740 510 828 q 338 524 338 651 q 424 306 338 392 q 632 219 510 219 z "},"P":{"ha":901,"x_min":119,"x_max":858,"o":"m 376 0 l 119 0 l 119 1047 l 435 1047 q 744 963 631 1047 q 858 710 858 879 q 749 457 858 547 q 463 367 640 367 l 376 367 l 376 0 m 376 835 l 376 575 l 432 575 q 604 708 604 575 q 428 835 604 835 l 376 835 z "},"Q":{"ha":1269,"x_min":72,"x_max":1197,"o":"m 1197 521 q 1067 169 1197 315 l 1188 49 l 989 -72 l 892 39 q 632 -18 769 -18 q 236 134 400 -18 q 72 524 72 286 q 238 910 72 754 q 636 1065 403 1065 q 1033 910 868 1065 q 1197 521 1197 754 m 338 524 q 424 306 338 393 q 632 219 510 219 q 725 233 683 219 l 621 354 l 792 453 l 886 356 q 932 522 932 429 q 847 740 932 651 q 635 828 763 828 q 424 740 510 828 q 338 524 338 651 z "},"R":{"ha":953,"x_min":119,"x_max":942,"o":"m 643 417 l 942 0 l 633 0 l 401 385 l 376 385 l 376 0 l 119 0 l 119 1047 l 435 1047 q 739 965 625 1047 q 853 714 853 883 q 643 417 853 511 m 422 833 l 376 833 l 376 575 l 418 575 q 596 706 596 575 q 552 803 596 774 q 422 833 508 833 z "},"S":{"ha":893,"x_min":63,"x_max":818,"o":"m 449 -18 q 218 34 317 -18 q 63 175 119 86 l 201 329 q 432 193 297 193 q 522 222 489 193 q 554 299 554 250 q 519 375 554 344 q 394 443 485 406 q 182 567 253 499 q 111 756 111 635 q 211 979 111 892 q 465 1067 311 1067 q 797 926 671 1067 l 664 763 q 483 854 593 854 q 404 831 435 854 q 374 768 374 807 q 410 706 374 732 q 544 640 447 681 q 751 511 685 586 q 818 308 818 436 q 715 72 818 161 q 449 -18 611 -18 z "},"T":{"ha":749,"x_min":17,"x_max":732,"o":"m 506 0 l 243 0 l 243 810 l 17 810 l 17 1047 l 732 1047 l 732 810 l 506 810 l 506 0 z "},"U":{"ha":1083,"x_min":108,"x_max":975,"o":"m 856 90 q 796 36 856 90 q 542 -18 736 -18 q 228 90 347 -18 q 108 399 108 197 l 108 1047 l 372 1047 l 372 426 q 542 214 372 214 q 713 429 713 214 l 713 1047 l 975 1047 l 975 399 q 856 90 975 197 z "},"V":{"ha":1018,"x_min":-3,"x_max":1022,"o":"m 599 0 l 415 0 l -3 1047 l 275 1047 l 508 372 l 743 1047 l 1022 1047 l 599 0 z "},"W":{"ha":1553,"x_min":1,"x_max":1551,"o":"m 575 0 l 393 0 l 1 1047 l 278 1047 l 485 389 l 696 1047 l 851 1047 l 1056 389 l 1275 1047 l 1551 1047 l 1149 0 l 963 0 l 774 625 l 575 0 z "},"X":{"ha":999,"x_min":6,"x_max":992,"o":"m 304 0 l 6 0 l 353 553 l 44 1047 l 343 1047 l 501 738 l 664 1047 l 963 1047 l 649 553 l 992 0 l 694 0 l 501 361 l 304 0 z "},"Y":{"ha":947,"x_min":-7,"x_max":956,"o":"m 604 0 l 346 0 l 346 453 l -7 1047 l 292 1047 l 476 690 l 657 1047 l 956 1047 l 604 453 l 604 0 z "},"Z":{"ha":971,"x_min":26,"x_max":938,"o":"m 910 0 l 26 0 l 26 3 l 517 819 l 113 819 l 113 1047 l 938 1047 l 938 1044 l 451 232 l 910 232 l 910 0 z "},"[":{"ha":568,"x_min":107,"x_max":493,"o":"m 493 -228 l 107 -228 l 107 1178 l 493 1178 l 493 1017 l 332 1017 l 332 -67 l 493 -67 l 493 -228 z "},"\\":{"ha":821,"x_min":-1,"x_max":822,"o":"m 822 -172 l 681 -242 l -1 1131 l 142 1201 l 822 -172 z "},"]":{"ha":568,"x_min":75,"x_max":463,"o":"m 463 -228 l 75 -228 l 75 -67 l 236 -67 l 236 1017 l 75 1017 l 75 1178 l 463 1178 l 463 -228 z "},"^":{"ha":857,"x_min":35,"x_max":821,"o":"m 546 1051 l 821 507 l 596 507 l 428 849 l 260 507 l 35 507 l 310 1051 l 546 1051 z "},"_":{"ha":575,"x_min":0,"x_max":575,"o":"m 575 -239 l 0 -239 l 0 -94 l 575 -94 l 575 -239 z "},"`":{"ha":399,"x_min":-6,"x_max":383,"o":"m 383 850 l 253 775 l -6 988 l 185 1108 l 383 850 z "},"a":{"ha":950,"x_min":60,"x_max":851,"o":"m 386 -18 q 150 88 240 -18 q 60 347 60 193 q 151 607 60 500 q 389 714 243 714 q 606 617 519 714 l 607 617 l 606 697 l 851 697 l 851 0 l 606 0 l 607 85 l 606 85 q 386 -18 503 -18 m 350 231 q 370 209 350 231 q 460 186 390 186 q 572 231 529 186 q 615 347 615 276 q 572 464 615 418 q 461 510 529 510 q 351 464 393 510 q 310 349 310 418 q 350 231 310 276 z "},"b":{"ha":949,"x_min":99,"x_max":889,"o":"m 563 -17 q 346 90 432 -17 l 343 90 l 343 0 l 99 0 l 99 1133 l 349 1133 l 349 740 q 348 704 349 725 q 346 656 347 683 q 344 613 344 628 l 346 613 q 565 715 433 715 q 801 609 713 715 q 889 349 889 503 q 799 90 889 196 q 563 -17 710 -17 m 378 233 q 399 210 378 233 q 489 188 421 188 q 599 233 557 188 q 640 349 640 279 q 599 465 640 421 q 489 510 558 510 q 378 465 421 510 q 335 350 335 419 q 378 233 335 279 z "},"c":{"ha":692,"x_min":60,"x_max":633,"o":"m 443 -18 q 165 81 271 -18 q 60 346 60 181 q 164 610 60 504 q 431 715 268 715 q 633 672 547 715 l 633 439 q 471 513 556 513 q 356 467 400 513 q 313 349 313 421 q 355 232 313 278 q 469 186 397 186 q 633 256 549 186 l 626 25 q 443 -18 547 -18 z "},"d":{"ha":949,"x_min":60,"x_max":851,"o":"m 388 -17 q 150 90 240 -17 q 60 349 60 196 q 149 609 60 503 q 385 715 238 715 q 603 613 515 715 l 604 613 q 601 740 601 690 l 601 1133 l 851 1133 l 851 0 l 606 0 l 607 90 l 604 90 q 388 -17 517 -17 m 351 233 q 372 210 351 233 q 461 188 393 188 q 572 233 529 188 q 614 350 614 279 q 572 465 614 421 q 460 510 529 510 q 350 465 390 510 q 310 349 310 421 q 351 233 310 279 z "},"e":{"ha":868,"x_min":60,"x_max":808,"o":"m 808 336 q 807 301 808 313 l 311 301 q 347 189 314 231 q 442 147 381 147 q 565 228 522 147 l 792 189 q 658 35 753 88 q 442 -18 564 -18 q 166 79 272 -18 q 60 344 60 176 q 165 614 60 513 q 433 715 271 715 q 706 615 603 715 q 808 336 808 514 m 317 439 l 558 439 q 519 520 551 490 q 438 550 488 550 q 356 519 388 550 q 317 439 325 489 z "},"f":{"ha":539,"x_min":19,"x_max":539,"o":"m 381 0 l 131 0 l 131 486 l 19 486 l 19 697 l 131 697 l 131 847 q 403 1147 131 1147 q 539 1132 475 1147 l 539 921 q 472 936 508 936 q 378 814 378 936 l 378 697 l 526 697 l 526 486 l 381 486 l 381 0 z "},"g":{"ha":922,"x_min":54,"x_max":825,"o":"m 436 -342 q 175 -272 274 -342 q 63 -62 76 -201 l 281 -56 q 429 -164 303 -164 q 585 11 585 -164 l 585 108 l 582 108 q 363 1 486 1 q 140 106 226 1 q 54 357 54 210 q 141 610 54 506 q 365 714 228 714 q 578 617 494 714 l 581 617 l 578 697 l 825 697 l 825 49 q 722 -242 825 -143 q 436 -342 618 -342 m 444 193 q 548 238 508 193 q 588 351 588 282 q 548 465 588 419 q 446 510 508 510 q 344 465 383 510 q 304 353 304 421 q 342 238 304 282 q 444 193 379 193 z "},"h":{"ha":893,"x_min":99,"x_max":801,"o":"m 349 0 l 99 0 l 99 1133 l 349 1133 l 349 772 q 343 604 349 699 l 347 604 q 441 688 392 660 q 561 715 490 715 q 742 638 682 715 q 801 429 801 560 l 801 0 l 551 0 l 551 365 q 531 472 551 438 q 460 506 511 506 q 375 465 401 506 q 349 339 349 425 l 349 0 z "},"i":{"ha":446,"x_min":76,"x_max":368,"o":"m 326 867 q 305 849 326 867 q 222 831 283 831 q 119 867 161 831 q 76 965 76 903 q 118 1061 76 1024 q 222 1099 160 1099 q 326 1061 285 1099 q 368 965 368 1024 q 326 867 368 903 m 347 0 l 97 0 l 97 697 l 347 697 l 347 0 z "},"j":{"ha":446,"x_min":76,"x_max":368,"o":"m 326 867 q 305 849 326 867 q 222 831 283 831 q 119 867 161 831 q 76 965 76 903 q 118 1061 76 1024 q 222 1099 160 1099 q 326 1061 285 1099 q 368 965 368 1024 q 326 867 368 903 m 347 -333 l 97 -333 l 97 697 l 347 697 l 347 -333 z "},"k":{"ha":860,"x_min":99,"x_max":856,"o":"m 558 383 l 856 0 l 557 0 l 374 276 l 349 263 l 349 0 l 99 0 l 99 1133 l 349 1133 l 349 446 l 543 697 l 838 697 l 558 383 z "},"l":{"ha":447,"x_min":99,"x_max":349,"o":"m 349 0 l 99 0 l 99 1133 l 349 1133 l 349 0 z "},"m":{"ha":1285,"x_min":99,"x_max":1194,"o":"m 343 0 l 99 0 l 99 697 l 339 697 l 333 603 l 340 603 q 529 715 397 715 q 729 589 671 715 l 733 589 q 947 715 808 715 q 1133 640 1071 715 q 1194 432 1194 564 l 1194 0 l 949 0 l 949 367 q 929 473 949 440 q 863 506 910 506 q 790 470 811 506 q 768 360 768 435 l 768 0 l 524 0 l 524 371 q 504 473 524 440 q 438 506 485 506 q 365 470 386 506 q 343 360 343 435 l 343 0 z "},"n":{"ha":893,"x_min":99,"x_max":801,"o":"m 349 0 l 99 0 l 99 697 l 344 697 l 340 604 l 343 604 q 440 688 390 660 q 561 715 489 715 q 742 638 682 715 q 801 429 801 560 l 801 0 l 551 0 l 551 365 q 531 472 551 438 q 460 506 511 506 q 349 342 349 506 l 349 0 z "},"o":{"ha":918,"x_min":60,"x_max":858,"o":"m 457 -18 q 172 82 283 -18 q 60 351 60 182 q 172 615 60 514 q 458 715 285 715 q 745 615 632 715 q 858 349 858 514 q 745 81 858 181 q 457 -18 632 -18 m 349 232 q 370 210 349 232 q 458 188 390 188 q 568 232 526 188 q 610 349 610 276 q 568 464 610 419 q 458 508 526 508 q 350 464 392 508 q 308 350 308 419 q 349 232 308 276 z "},"p":{"ha":949,"x_min":99,"x_max":889,"o":"m 349 -333 l 99 -333 l 99 697 l 344 697 l 343 613 l 346 613 q 565 715 433 715 q 801 609 713 715 q 889 349 889 503 q 799 90 889 197 q 563 -17 708 -17 q 346 86 431 -17 l 344 86 q 349 -43 349 32 l 349 -333 m 378 233 q 399 210 378 233 q 489 188 421 188 q 599 233 557 188 q 640 349 640 279 q 599 466 640 421 q 489 511 558 511 q 378 466 421 511 q 335 350 335 421 q 378 233 335 279 z "},"q":{"ha":949,"x_min":60,"x_max":851,"o":"m 851 -333 l 601 -333 l 601 -53 q 604 86 601 32 l 603 86 q 386 -17 518 -17 q 150 90 240 -17 q 60 349 60 197 q 149 609 60 503 q 385 715 238 715 q 603 613 515 715 l 606 613 l 604 697 l 851 697 l 851 -333 m 351 233 q 372 210 351 233 q 461 188 393 188 q 572 233 529 188 q 614 350 614 279 q 572 466 614 421 q 460 511 529 511 q 350 466 390 511 q 310 349 310 421 q 351 233 310 279 z "},"r":{"ha":619,"x_min":99,"x_max":614,"o":"m 349 0 l 99 0 l 99 697 l 349 697 l 344 619 l 350 619 q 433 694 392 672 q 536 715 474 715 q 614 693 572 715 l 578 449 q 476 483 524 483 q 349 315 349 483 l 349 0 z "},"s":{"ha":679,"x_min":50,"x_max":624,"o":"m 335 -19 q 50 94 156 -19 l 161 243 q 319 164 233 164 q 385 210 385 164 q 363 247 385 232 q 279 285 342 261 q 135 364 183 315 q 86 494 86 413 q 165 658 86 601 q 361 715 243 715 q 601 636 518 715 l 501 486 q 375 539 449 539 q 317 501 317 539 q 340 469 317 483 q 433 431 364 456 q 577 353 531 401 q 624 219 624 306 q 544 45 624 110 q 335 -19 464 -19 z "},"t":{"ha":522,"x_min":19,"x_max":503,"o":"m 382 0 l 132 0 l 132 486 l 19 486 l 19 697 l 132 697 l 132 938 l 382 938 l 382 697 l 503 697 l 503 486 l 382 486 l 382 0 z "},"u":{"ha":875,"x_min":92,"x_max":783,"o":"m 438 -18 q 185 61 278 -18 q 92 299 92 140 l 92 697 l 340 697 l 340 318 q 363 222 340 254 q 438 189 385 189 q 535 318 535 189 l 535 697 l 783 697 l 783 299 q 691 63 783 144 q 438 -18 599 -18 z "},"v":{"ha":811,"x_min":-4,"x_max":814,"o":"m 494 0 l 314 0 l -4 697 l 267 697 l 406 333 l 543 697 l 814 697 l 494 0 z "},"w":{"ha":1189,"x_min":-6,"x_max":1196,"o":"m 468 0 l 304 0 l -6 697 l 263 697 l 394 304 l 526 697 l 664 697 l 799 304 l 928 697 l 1196 697 l 885 0 l 722 0 l 596 354 l 468 0 z "},"x":{"ha":871,"x_min":4,"x_max":867,"o":"m 585 363 l 867 0 l 571 0 l 439 204 l 307 0 l 4 0 l 297 367 l 40 697 l 331 697 l 439 518 l 440 519 l 551 697 l 843 697 l 585 363 z "},"y":{"ha":843,"x_min":-4,"x_max":847,"o":"m 428 301 l 579 697 l 847 697 l 347 -333 l 76 -333 l 303 106 l -4 697 l 272 697 l 428 301 z "},"z":{"ha":813,"x_min":24,"x_max":774,"o":"m 761 0 l 24 0 l 24 25 l 375 492 l 76 492 l 76 697 l 774 697 l 774 676 l 421 206 l 761 206 l 761 0 z "},"{":{"ha":568,"x_min":53,"x_max":515,"o":"m 399 901 l 399 671 q 360 539 399 586 q 242 474 321 492 q 399 264 399 438 l 399 39 q 415 -44 399 -22 q 486 -65 432 -65 l 514 -65 l 514 -233 l 394 -233 q 223 -179 274 -233 q 172 6 172 -125 l 172 264 q 144 358 172 326 q 53 393 115 389 l 53 542 q 144 577 115 546 q 172 671 172 608 l 172 935 q 225 1119 172 1065 q 400 1174 278 1174 l 515 1174 l 515 1006 l 488 1006 q 416 984 433 1006 q 399 901 399 963 z "},"|":{"ha":978,"x_min":382,"x_max":596,"o":"m 596 -342 l 382 -342 l 382 1161 l 596 1161 l 596 -342 z "},"}":{"ha":568,"x_min":53,"x_max":515,"o":"m 397 935 l 397 671 q 425 577 397 608 q 515 542 453 546 l 515 393 q 425 358 453 389 q 397 264 397 326 l 397 6 q 346 -179 397 -125 q 174 -233 294 -233 l 54 -233 l 54 -65 l 82 -65 q 153 -44 136 -65 q 171 39 171 -22 l 171 264 q 326 474 171 439 q 209 539 247 492 q 171 671 171 586 l 171 901 q 153 984 171 963 q 81 1006 136 1006 l 53 1006 l 54 1174 l 168 1174 q 344 1119 292 1174 q 397 935 397 1065 z "},"~":{"ha":967,"x_min":64,"x_max":903,"o":"m 647 299 q 467 347 578 299 q 314 394 356 394 q 185 303 229 394 l 64 346 q 165 536 99 467 q 313 606 231 606 q 497 558 383 606 q 649 510 611 510 q 729 538 700 510 q 782 618 758 567 l 903 564 q 647 299 819 299 z "}," ":{"ha":417,"x_min":0,"x_max":0,"o":""},"¡":{"ha":500,"x_min":101,"x_max":397,"o":"m 250 836 q 353 799 308 836 q 397 704 397 763 q 353 608 397 646 q 250 571 308 571 q 146 608 190 571 q 101 704 101 646 q 146 799 101 763 q 250 836 190 836 m 122 -229 l 122 506 l 376 506 l 376 -229 l 122 -229 z "},"¢":{"ha":682,"x_min":54,"x_max":628,"o":"m 465 683 q 351 638 394 683 q 307 519 307 592 q 349 403 307 449 q 464 357 392 357 q 628 425 542 357 l 621 196 q 469 154 560 161 l 472 25 l 356 25 l 360 158 q 137 276 219 181 q 54 517 54 371 q 138 758 54 658 q 360 879 222 858 l 356 1013 l 472 1013 l 469 883 q 628 843 564 875 l 628 610 q 465 683 550 683 z "},"£":{"ha":963,"x_min":33,"x_max":949,"o":"m 804 294 l 949 156 q 818 24 878 61 q 674 -14 758 -14 q 486 24 619 -14 q 317 63 353 63 q 246 47 278 63 q 168 -19 214 31 l 33 124 q 154 231 101 199 q 269 271 207 264 q 279 342 279 310 q 263 419 279 374 l 74 419 l 74 583 l 181 583 q 142 747 142 671 q 244 975 142 885 q 524 1065 347 1065 q 794 974 696 1065 q 896 738 893 883 l 669 707 q 630 826 667 782 q 524 871 593 871 q 425 831 463 871 q 388 726 388 792 q 428 583 388 674 l 657 583 l 657 419 l 500 419 q 514 336 514 374 q 496 243 514 296 q 542 228 511 239 q 590 213 574 218 q 627 203 606 208 q 665 199 649 199 q 732 219 703 199 q 804 294 761 239 z "},"¤":{"ha":811,"x_min":69,"x_max":742,"o":"m 650 615 q 682 486 682 556 q 650 357 682 417 l 742 267 l 625 150 l 535 242 q 406 210 475 210 q 276 242 336 210 l 186 150 l 69 267 l 161 357 q 129 486 129 417 q 161 615 129 556 l 69 706 l 186 822 l 276 731 q 406 763 336 763 q 535 731 475 763 l 625 822 l 742 706 l 650 615 m 326 566 q 309 550 326 566 q 293 486 293 533 q 326 406 293 439 q 406 374 358 374 q 485 406 451 374 q 518 486 518 439 q 485 566 518 533 q 406 599 451 599 q 326 566 358 599 z "},"¥":{"ha":947,"x_min":-7,"x_max":956,"o":"m 657 1047 l 956 1047 l 669 563 l 836 563 l 836 413 l 604 413 l 604 303 l 836 303 l 836 153 l 604 153 l 604 0 l 346 0 l 346 153 l 113 153 l 113 303 l 346 303 l 346 413 l 113 413 l 113 563 l 281 563 l -7 1047 l 292 1047 l 476 690 l 657 1047 z "},"¦":{"ha":978,"x_min":382,"x_max":596,"o":"m 596 564 l 382 564 l 382 1161 l 596 1161 l 596 564 m 596 -342 l 382 -342 l 382 239 l 596 239 l 596 -342 z "},"§":{"ha":836,"x_min":69,"x_max":754,"o":"m 386 -346 q 71 -200 171 -346 l 192 -60 q 381 -157 267 -157 q 497 -71 497 -157 q 465 -2 497 -32 q 321 76 432 28 q 124 201 179 138 q 69 360 69 264 q 228 596 69 521 l 228 599 q 97 808 97 671 q 187 997 97 926 q 432 1067 276 1067 q 609 1030 531 1067 q 728 932 688 993 l 603 803 q 440 878 549 878 q 352 856 386 878 q 318 793 318 833 q 354 720 318 749 q 489 660 390 692 q 695 547 636 611 q 754 378 754 482 q 594 140 754 224 l 594 138 q 691 40 663 89 q 719 -81 719 -10 q 626 -274 719 -201 q 386 -346 533 -346 m 310 276 q 330 258 310 276 q 411 239 350 239 q 513 276 472 239 q 553 367 553 314 q 513 458 553 422 q 411 493 472 493 q 309 458 349 493 q 269 368 269 422 q 310 276 269 314 z "},"¨":{"ha":601,"x_min":8,"x_max":593,"o":"m 219 866 q 201 848 219 866 q 132 831 183 831 q 44 867 81 831 q 8 954 8 903 q 45 1042 8 1006 q 132 1078 82 1078 q 219 1042 183 1078 q 256 953 256 1006 q 219 866 256 901 m 469 831 q 381 866 417 831 q 346 954 346 901 q 382 1042 346 1007 q 469 1078 418 1078 q 557 1041 521 1078 q 593 953 593 1004 q 557 866 593 901 q 469 831 521 831 z "},"©":{"ha":1168,"x_min":40,"x_max":1126,"o":"m 583 -19 q 199 140 358 -19 q 40 524 40 299 q 199 908 40 749 q 583 1067 358 1067 q 968 908 810 1067 q 1126 524 1126 749 q 968 140 1126 299 q 583 -19 810 -19 m 583 94 q 888 217 765 94 q 1011 524 1011 339 q 888 831 1011 708 q 583 953 765 953 q 278 831 400 953 q 157 524 157 708 q 278 217 157 339 q 583 94 400 94 m 608 219 q 389 307 479 219 q 299 522 299 394 q 391 742 299 651 q 615 833 483 833 q 775 797 694 833 l 778 626 q 624 692 699 692 q 507 644 557 692 q 457 525 457 597 q 507 408 457 456 q 625 360 557 360 q 778 424 697 360 l 775 256 q 608 219 707 219 z "},"ª":{"ha":561,"x_min":32,"x_max":511,"o":"m 228 615 q 87 680 142 615 q 32 836 32 744 q 88 992 32 928 q 229 1057 143 1057 q 358 997 310 1057 l 360 997 l 360 1047 l 511 1047 l 511 626 l 360 626 l 360 681 l 358 681 q 228 615 304 615 m 211 769 q 223 756 211 769 q 275 743 235 743 q 340 769 315 743 q 365 836 365 796 q 340 904 365 878 q 275 931 315 931 q 212 903 236 931 q 188 838 188 876 q 211 769 188 796 z "},"«":{"ha":865,"x_min":60,"x_max":794,"o":"m 465 100 l 310 7 l 60 356 l 310 706 l 465 614 l 293 357 l 465 100 m 794 100 l 639 7 l 389 356 l 639 706 l 794 614 l 622 357 l 794 100 z "},"¬":{"ha":939,"x_min":93,"x_max":846,"o":"m 846 76 l 632 76 l 632 332 l 93 332 l 93 542 l 846 542 l 846 76 z "},"­":{"ha":432,"x_min":35,"x_max":396,"o":"m 396 254 l 35 254 l 35 469 l 396 469 l 396 254 z "},"®":{"ha":707,"x_min":28,"x_max":679,"o":"m 124 965 q 172 1012 124 965 q 354 1060 219 1060 q 584 965 489 1060 q 679 735 679 869 q 584 503 679 599 q 354 408 489 408 q 124 504 219 408 q 28 735 28 600 q 124 965 28 869 m 354 478 q 535 551 463 478 q 608 735 608 625 q 535 917 608 844 q 354 990 461 990 q 172 917 244 990 q 99 735 99 844 q 172 551 99 625 q 354 478 244 478 m 478 797 q 419 701 478 726 l 503 569 l 408 569 l 346 690 l 324 690 l 324 571 l 239 571 l 239 904 l 344 904 q 442 878 406 904 q 478 797 478 851 m 340 832 l 324 832 l 324 757 l 342 757 q 393 796 393 757 q 340 832 393 832 z "},"¯":{"ha":594,"x_min":57,"x_max":538,"o":"m 538 857 l 57 857 l 57 1015 l 538 1015 l 538 857 z "},"°":{"ha":606,"x_min":49,"x_max":557,"o":"m 481 627 q 443 590 481 627 q 301 553 406 553 q 123 626 197 553 q 49 806 49 700 q 124 985 49 911 q 303 1058 199 1058 q 481 983 406 1058 q 557 804 557 908 q 481 627 557 701 m 219 722 q 236 705 219 722 q 303 688 254 688 q 387 723 351 688 q 422 807 422 758 q 387 889 422 854 q 303 924 351 924 q 218 890 253 924 q 183 807 183 856 q 219 722 183 757 z "},"±":{"ha":978,"x_min":103,"x_max":875,"o":"m 588 338 l 390 338 l 390 544 l 103 544 l 103 742 l 390 742 l 390 949 l 588 949 l 588 742 l 875 742 l 875 544 l 588 544 l 588 338 m 875 56 l 103 56 l 103 253 l 875 253 l 875 56 z "},"²":{"ha":613,"x_min":1,"x_max":556,"o":"m 399 836 l 304 763 q 556 783 440 783 l 556 625 l 1 625 l 1 628 l 239 861 q 338 968 306 926 q 369 1046 369 1010 q 351 1092 369 1074 q 303 1111 333 1111 q 247 1087 267 1111 q 225 1021 228 1063 l 46 1021 q 307 1264 71 1264 q 485 1211 419 1264 q 550 1063 550 1158 q 512 944 550 997 q 399 836 474 890 z "},"³":{"ha":631,"x_min":47,"x_max":568,"o":"m 313 614 q 127 666 200 614 q 47 828 54 718 l 231 828 q 256 773 233 793 q 311 753 279 753 q 366 774 344 753 q 388 828 388 794 q 364 882 388 863 q 303 901 340 901 q 282 899 289 901 l 282 1008 l 300 1008 q 352 1026 332 1008 q 372 1071 372 1043 q 356 1113 372 1097 q 314 1128 339 1128 q 251 1068 256 1128 l 69 1068 q 319 1264 92 1264 q 478 1219 408 1264 q 547 1093 547 1174 q 453 960 547 999 q 537 906 506 944 q 568 813 568 867 q 491 665 568 715 q 313 614 414 614 z "},"´":{"ha":399,"x_min":15,"x_max":403,"o":"m 403 988 l 144 775 l 15 850 l 213 1108 l 403 988 z "},"µ":{"ha":901,"x_min":99,"x_max":803,"o":"m 335 -333 l 99 -333 l 99 697 l 349 697 l 349 306 q 444 188 349 188 q 553 332 553 188 l 553 697 l 803 697 l 803 0 l 565 0 l 560 58 l 557 58 q 446 -14 518 -14 q 340 51 372 -14 l 338 51 l 335 -333 z "},"¶":{"ha":974,"x_min":50,"x_max":831,"o":"m 532 -189 l 332 -189 l 332 428 q 128 516 207 435 q 50 731 50 597 q 138 962 50 876 q 379 1047 225 1047 l 831 1047 l 831 -189 l 629 -189 l 629 844 l 532 844 l 532 -189 z "},"·":{"ha":475,"x_min":101,"x_max":372,"o":"m 238 369 q 141 410 181 369 q 101 506 101 450 q 142 601 101 561 q 238 640 182 640 q 333 601 293 640 q 372 506 372 561 q 333 410 372 450 q 238 369 293 369 z "},"¸":{"ha":472,"x_min":89,"x_max":386,"o":"m 386 -122 l 199 -315 l 89 -246 l 243 -25 l 386 -122 z "},"¹":{"ha":389,"x_min":22,"x_max":306,"o":"m 306 625 l 122 625 l 122 1089 l 22 1086 l 47 1249 l 306 1253 l 306 625 z "},"º":{"ha":547,"x_min":32,"x_max":515,"o":"m 272 615 q 100 676 168 615 q 32 839 32 736 q 101 997 32 936 q 274 1057 169 1057 q 447 997 378 1057 q 515 836 515 936 q 447 675 515 735 q 272 615 379 615 m 210 769 q 223 756 210 769 q 274 743 235 743 q 337 769 313 743 q 361 836 361 796 q 338 903 361 876 q 274 931 314 931 q 210 903 235 931 q 186 838 186 876 q 210 769 186 796 z "},"»":{"ha":865,"x_min":71,"x_max":806,"o":"m 476 356 l 226 7 l 71 100 l 243 357 l 71 614 l 226 706 l 476 356 m 806 356 l 556 7 l 400 100 l 572 357 l 400 614 l 556 706 l 806 356 z "},"¼":{"ha":1154,"x_min":22,"x_max":1119,"o":"m 135 15 l 790 1057 l 900 1035 l 247 -8 l 135 15 m 306 1047 l 306 419 l 122 419 l 122 883 l 22 881 l 47 1043 l 306 1047 m 1044 249 l 1119 249 l 1119 115 l 1042 115 l 1044 0 l 875 0 l 878 115 l 558 114 l 558 176 l 933 644 l 1044 644 l 1044 249 m 761 249 l 878 249 l 879 319 q 886 411 881 344 l 761 249 z "},"½":{"ha":1219,"x_min":22,"x_max":1164,"o":"m 129 15 l 783 1057 l 893 1035 l 240 -8 l 129 15 m 306 1047 l 306 419 l 122 419 l 122 883 l 22 881 l 47 1043 l 306 1047 m 1006 211 l 911 138 q 1164 158 1050 158 l 1164 0 l 608 0 l 608 3 l 847 236 q 945 343 914 301 q 976 421 976 385 q 959 467 976 449 q 910 486 942 486 q 855 462 875 486 q 832 396 835 438 l 653 396 q 915 639 679 639 q 1093 586 1028 639 q 1158 438 1158 533 q 1120 319 1158 372 q 1006 211 1082 265 z "},"¾":{"ha":1396,"x_min":47,"x_max":1361,"o":"m 568 607 q 491 459 568 510 q 313 408 414 408 q 127 460 200 408 q 47 622 54 513 l 231 622 q 256 567 233 588 q 311 547 279 547 q 366 568 344 547 q 388 622 388 589 q 364 676 388 657 q 303 696 340 696 q 282 693 289 696 l 282 803 l 300 803 q 352 820 332 803 q 372 865 372 838 q 356 907 372 892 q 314 922 339 922 q 251 863 256 922 l 69 863 q 319 1058 92 1058 q 478 1013 408 1058 q 547 888 547 968 q 453 754 547 793 q 537 700 506 739 q 568 607 568 661 m 371 15 l 1025 1057 l 1135 1035 l 482 -8 l 371 15 m 1286 249 l 1361 249 l 1361 115 l 1283 115 l 1286 0 l 1117 0 l 1119 115 l 800 114 l 800 176 l 1175 644 l 1286 644 l 1286 249 m 1003 249 l 1119 249 l 1121 319 q 1128 411 1122 344 l 1003 249 z "},"¿":{"ha":835,"x_min":72,"x_max":763,"o":"m 512 604 q 490 585 512 604 q 408 567 468 567 q 305 604 349 567 q 261 700 261 642 q 305 794 261 757 q 408 832 349 832 q 512 794 468 832 q 556 700 556 757 q 512 604 556 642 m 421 -250 q 169 -172 265 -250 q 72 43 72 -93 q 288 307 72 249 l 288 488 l 528 488 l 528 197 l 488 194 q 360 151 403 183 q 318 53 318 118 q 344 -24 318 4 q 418 -51 371 -51 q 492 -24 465 -51 q 519 54 519 4 q 515 88 519 67 l 760 88 q 763 51 763 60 q 668 -169 763 -87 q 421 -250 574 -250 z "},"À":{"ha":1076,"x_min":-4,"x_max":1081,"o":"m 504 1450 l 713 1201 l 585 1124 l 317 1324 l 504 1450 m 1081 0 l 794 0 l 726 199 l 343 199 l 271 0 l -4 0 l 425 1047 l 657 1047 l 1081 0 m 469 546 l 414 394 l 658 394 l 607 544 q 540 750 569 656 q 469 546 507 647 z "},"Á":{"ha":1076,"x_min":-4,"x_max":1081,"o":"m 565 1450 l 753 1324 l 485 1124 l 357 1201 l 565 1450 m 1081 0 l 794 0 l 726 199 l 343 199 l 271 0 l -4 0 l 425 1047 l 657 1047 l 1081 0 m 469 546 l 414 394 l 658 394 l 607 544 q 540 750 569 656 q 469 546 507 647 z "},"Â":{"ha":1076,"x_min":-4,"x_max":1081,"o":"m 719 1132 l 542 1225 l 365 1132 l 265 1253 l 542 1435 l 819 1253 l 719 1132 m 1081 0 l 794 0 l 726 199 l 343 199 l 271 0 l -4 0 l 425 1047 l 657 1047 l 1081 0 m 469 546 l 414 394 l 658 394 l 607 544 q 540 750 569 656 q 469 546 507 647 z "},"Ã":{"ha":1076,"x_min":-4,"x_max":1081,"o":"m 432 1201 q 353 1128 392 1201 l 240 1214 q 442 1368 329 1368 q 551 1328 481 1368 q 646 1288 622 1288 q 728 1364 688 1288 l 846 1286 q 647 1122 768 1122 q 532 1162 610 1122 q 432 1201 454 1201 m 1081 0 l 794 0 l 726 199 l 343 199 l 271 0 l -4 0 l 425 1047 l 657 1047 l 1081 0 m 469 546 l 414 394 l 658 394 l 607 544 q 540 750 569 656 q 469 546 507 647 z "},"Ä":{"ha":1076,"x_min":-4,"x_max":1081,"o":"m 374 1156 q 286 1192 322 1156 q 250 1279 250 1228 q 286 1367 250 1331 q 374 1403 322 1403 q 460 1367 424 1403 q 496 1279 496 1331 q 460 1191 496 1226 q 374 1156 424 1156 m 711 1156 q 622 1191 658 1156 q 586 1279 586 1226 q 623 1367 586 1332 q 711 1403 660 1403 q 799 1367 763 1403 q 835 1279 835 1331 q 799 1191 835 1226 q 711 1156 763 1156 m 1081 0 l 794 0 l 726 199 l 343 199 l 271 0 l -4 0 l 425 1047 l 657 1047 l 1081 0 m 469 546 l 414 394 l 658 394 l 607 544 q 540 750 569 656 q 469 546 507 647 z "},"Å":{"ha":1076,"x_min":-4,"x_max":1081,"o":"m 668 1127 q 642 1105 668 1127 q 543 1083 615 1083 q 417 1128 471 1083 q 364 1244 364 1172 q 417 1361 364 1317 q 543 1406 471 1406 q 668 1361 615 1406 q 721 1244 721 1317 q 668 1127 721 1171 m 590 1292 q 581 1301 590 1292 q 543 1310 571 1310 q 495 1292 515 1310 q 475 1244 475 1274 q 495 1197 475 1215 q 543 1179 515 1179 q 590 1197 571 1179 q 610 1244 610 1215 q 590 1292 610 1274 m 1081 0 l 794 0 l 726 199 l 343 199 l 271 0 l -4 0 l 425 1047 l 657 1047 l 1081 0 m 469 546 l 414 394 l 658 394 l 607 544 q 540 750 569 656 q 469 546 507 647 z "},"Æ":{"ha":1439,"x_min":-4,"x_max":1442,"o":"m 990 214 l 1360 214 l 1442 0 l 797 0 l 722 194 l 353 194 l 276 0 l -4 0 l 435 1047 l 1021 1047 l 1104 833 l 739 833 l 813 656 l 1178 656 l 1258 449 l 894 449 l 990 214 m 507 614 l 421 389 l 658 389 l 574 617 q 542 715 558 661 q 507 614 535 689 z "},"Ç":{"ha":964,"x_min":72,"x_max":892,"o":"m 608 -18 q 228 137 383 -18 q 72 517 72 292 q 231 906 72 744 q 622 1067 390 1067 q 888 1004 758 1067 l 892 718 q 638 828 769 828 q 426 741 515 828 q 338 522 338 654 q 426 308 338 396 q 640 219 514 219 q 771 245 713 219 q 892 328 829 271 l 888 46 q 608 -18 767 -18 m 639 -122 l 453 -315 l 342 -246 l 496 -25 l 639 -122 z "},"È":{"ha":872,"x_min":119,"x_max":763,"o":"m 615 1201 l 488 1124 l 219 1324 l 407 1450 l 615 1201 m 763 0 l 119 0 l 119 1047 l 757 1047 l 757 833 l 376 833 l 376 656 l 738 656 l 738 449 l 376 449 l 376 214 l 763 214 l 763 0 z "},"É":{"ha":872,"x_min":119,"x_max":763,"o":"m 657 1324 l 389 1124 l 261 1201 l 469 1450 l 657 1324 m 763 0 l 119 0 l 119 1047 l 757 1047 l 757 833 l 376 833 l 376 656 l 738 656 l 738 449 l 376 449 l 376 214 l 763 214 l 763 0 z "},"Ê":{"ha":872,"x_min":119,"x_max":763,"o":"m 446 1225 l 269 1132 l 169 1253 l 446 1435 l 724 1253 l 624 1132 l 446 1225 m 763 0 l 119 0 l 119 1047 l 757 1047 l 757 833 l 376 833 l 376 656 l 738 656 l 738 449 l 376 449 l 376 214 l 763 214 l 763 0 z "},"Ë":{"ha":872,"x_min":119,"x_max":763,"o":"m 278 1156 q 190 1192 225 1156 q 154 1279 154 1228 q 190 1367 154 1331 q 278 1403 226 1403 q 364 1367 328 1403 q 400 1279 400 1331 q 364 1191 400 1226 q 278 1156 328 1156 m 615 1156 q 526 1191 563 1156 q 490 1279 490 1226 q 527 1367 490 1332 q 615 1403 564 1403 q 703 1367 667 1403 q 739 1279 739 1331 q 703 1191 739 1226 q 615 1156 667 1156 m 763 0 l 119 0 l 119 1047 l 757 1047 l 757 833 l 376 833 l 376 656 l 738 656 l 738 449 l 376 449 l 376 214 l 763 214 l 763 0 z "},"Ì":{"ha":496,"x_min":22,"x_max":418,"o":"m 418 1201 l 290 1124 l 22 1324 l 210 1450 l 418 1201 m 376 0 l 119 0 l 119 1047 l 376 1047 l 376 0 z "},"Í":{"ha":496,"x_min":64,"x_max":460,"o":"m 460 1324 l 192 1124 l 64 1201 l 272 1450 l 460 1324 m 376 0 l 119 0 l 119 1047 l 376 1047 l 376 0 z "},"Î":{"ha":496,"x_min":-28,"x_max":526,"o":"m 249 1225 l 72 1132 l -28 1253 l 249 1435 l 526 1253 l 426 1132 l 249 1225 m 376 0 l 119 0 l 119 1047 l 376 1047 l 376 0 z "},"Ï":{"ha":496,"x_min":-43,"x_max":542,"o":"m 81 1156 q -8 1192 28 1156 q -43 1279 -43 1228 q -7 1367 -43 1331 q 81 1403 29 1403 q 167 1367 131 1403 q 203 1279 203 1331 q 167 1191 203 1226 q 81 1156 131 1156 m 418 1156 q 329 1191 365 1156 q 293 1279 293 1226 q 330 1367 293 1332 q 418 1403 367 1403 q 506 1367 469 1403 q 542 1279 542 1331 q 506 1191 542 1226 q 418 1156 469 1156 m 376 0 l 119 0 l 119 1047 l 376 1047 l 376 0 z "},"Ð":{"ha":1096,"x_min":18,"x_max":1024,"o":"m 119 1047 l 419 1047 q 859 913 694 1047 q 1024 524 1024 778 q 863 137 1024 274 q 436 0 701 0 l 119 0 l 119 450 l 18 450 l 18 592 l 119 592 l 119 1047 m 376 226 l 432 226 q 672 303 583 226 q 760 524 760 381 q 676 740 760 665 q 432 814 593 814 l 376 814 l 376 592 l 544 592 l 544 450 l 376 450 l 376 226 z "},"Ñ":{"ha":1222,"x_min":119,"x_max":1101,"o":"m 507 1201 q 428 1128 467 1201 l 315 1214 q 517 1368 404 1368 q 626 1328 556 1368 q 721 1288 697 1288 q 803 1364 763 1288 l 921 1286 q 722 1122 843 1122 q 607 1162 685 1122 q 507 1201 529 1201 m 858 392 l 850 1047 l 1101 1047 l 1101 0 l 893 0 l 368 660 l 372 0 l 119 0 l 119 1047 l 333 1047 l 858 392 z "},"Ò":{"ha":1269,"x_min":72,"x_max":1197,"o":"m 804 1201 l 676 1124 l 408 1324 l 596 1450 l 804 1201 m 632 -18 q 353 49 481 -18 q 149 241 226 115 q 72 525 72 367 q 238 910 72 754 q 636 1065 403 1065 q 1033 910 869 1065 q 1197 522 1197 754 q 1033 135 1197 288 q 632 -18 868 -18 m 632 219 q 846 306 760 219 q 932 522 932 392 q 847 740 932 651 q 635 828 763 828 q 424 740 510 828 q 338 524 338 651 q 424 306 338 392 q 632 219 510 219 z "},"Ó":{"ha":1269,"x_min":72,"x_max":1197,"o":"m 846 1324 l 578 1124 l 450 1201 l 658 1450 l 846 1324 m 632 -18 q 353 49 481 -18 q 149 241 226 115 q 72 525 72 367 q 238 910 72 754 q 636 1065 403 1065 q 1033 910 869 1065 q 1197 522 1197 754 q 1033 135 1197 288 q 632 -18 868 -18 m 632 219 q 846 306 760 219 q 932 522 932 392 q 847 740 932 651 q 635 828 763 828 q 424 740 510 828 q 338 524 338 651 q 424 306 338 392 q 632 219 510 219 z "},"Ô":{"ha":1269,"x_min":72,"x_max":1197,"o":"m 633 1225 l 457 1132 l 357 1253 l 633 1435 l 911 1253 l 811 1132 l 633 1225 m 632 -18 q 353 49 481 -18 q 149 241 226 115 q 72 525 72 367 q 238 910 72 754 q 636 1065 403 1065 q 1033 910 869 1065 q 1197 522 1197 754 q 1033 135 1197 288 q 632 -18 868 -18 m 632 219 q 846 306 760 219 q 932 522 932 392 q 847 740 932 651 q 635 828 763 828 q 424 740 510 828 q 338 524 338 651 q 424 306 338 392 q 632 219 510 219 z "},"Õ":{"ha":1269,"x_min":72,"x_max":1197,"o":"m 740 1122 q 625 1162 703 1122 q 525 1201 547 1201 q 446 1128 485 1201 l 333 1214 q 535 1368 422 1368 q 644 1328 574 1368 q 739 1288 715 1288 q 821 1364 781 1288 l 939 1286 q 740 1122 861 1122 m 632 -18 q 353 49 481 -18 q 149 241 226 115 q 72 525 72 367 q 238 910 72 754 q 636 1065 403 1065 q 1033 910 869 1065 q 1197 522 1197 754 q 1033 135 1197 288 q 632 -18 868 -18 m 632 219 q 846 306 760 219 q 932 522 932 392 q 847 740 932 651 q 635 828 763 828 q 424 740 510 828 q 338 524 338 651 q 424 306 338 392 q 632 219 510 219 z "},"Ö":{"ha":1269,"x_min":72,"x_max":1197,"o":"m 467 1156 q 378 1192 414 1156 q 343 1279 343 1228 q 379 1367 343 1331 q 467 1403 415 1403 q 553 1367 517 1403 q 589 1279 589 1331 q 553 1191 589 1226 q 467 1156 517 1156 m 804 1156 q 715 1191 751 1156 q 679 1279 679 1226 q 716 1367 679 1332 q 804 1403 753 1403 q 892 1367 856 1403 q 928 1279 928 1331 q 892 1191 928 1226 q 804 1156 856 1156 m 632 -18 q 353 49 481 -18 q 149 241 226 115 q 72 525 72 367 q 238 910 72 754 q 636 1065 403 1065 q 1033 910 869 1065 q 1197 522 1197 754 q 1033 135 1197 288 q 632 -18 868 -18 m 632 219 q 846 306 760 219 q 932 522 932 392 q 847 740 932 651 q 635 828 763 828 q 424 740 510 828 q 338 524 338 651 q 424 306 338 392 q 632 219 510 219 z "},"×":{"ha":978,"x_min":128,"x_max":849,"o":"m 489 288 l 267 65 l 128 203 l 351 425 l 128 647 l 267 786 l 489 564 l 711 786 l 849 647 l 626 425 l 849 203 l 711 65 l 489 288 z "},"Ø":{"ha":1269,"x_min":60,"x_max":1197,"o":"m 1189 1021 l 1057 886 q 1197 522 1197 735 q 1033 135 1197 288 q 632 -18 868 -18 q 285 93 435 -18 l 146 -49 l 60 36 l 196 176 q 72 525 72 322 q 238 910 72 754 q 636 1065 403 1065 q 965 965 819 1065 l 1100 1104 l 1189 1021 m 338 524 q 379 364 338 436 l 790 786 q 635 828 719 828 q 424 740 510 828 q 338 524 338 651 m 632 219 q 846 306 760 219 q 932 522 932 392 q 878 701 932 624 l 461 274 q 632 219 538 219 z "},"Ù":{"ha":1083,"x_min":108,"x_max":975,"o":"m 713 1201 l 585 1124 l 317 1324 l 504 1450 l 713 1201 m 856 90 q 796 36 856 90 q 542 -18 736 -18 q 228 90 347 -18 q 108 399 108 197 l 108 1047 l 372 1047 l 372 426 q 542 214 372 214 q 713 429 713 214 l 713 1047 l 975 1047 l 975 399 q 856 90 975 197 z "},"Ú":{"ha":1083,"x_min":108,"x_max":975,"o":"m 754 1324 l 486 1124 l 358 1201 l 567 1450 l 754 1324 m 856 90 q 796 36 856 90 q 542 -18 736 -18 q 228 90 347 -18 q 108 399 108 197 l 108 1047 l 372 1047 l 372 426 q 542 214 372 214 q 713 429 713 214 l 713 1047 l 975 1047 l 975 399 q 856 90 975 197 z "},"Û":{"ha":1083,"x_min":108,"x_max":975,"o":"m 543 1225 l 367 1132 l 267 1253 l 543 1435 l 821 1253 l 721 1132 l 543 1225 m 856 90 q 796 36 856 90 q 542 -18 736 -18 q 228 90 347 -18 q 108 399 108 197 l 108 1047 l 372 1047 l 372 426 q 542 214 372 214 q 713 429 713 214 l 713 1047 l 975 1047 l 975 399 q 856 90 975 197 z "},"Ü":{"ha":1083,"x_min":108,"x_max":975,"o":"m 375 1156 q 287 1192 322 1156 q 251 1279 251 1228 q 288 1367 251 1331 q 375 1403 324 1403 q 461 1367 425 1403 q 497 1279 497 1331 q 461 1191 497 1226 q 375 1156 425 1156 m 713 1156 q 624 1191 660 1156 q 588 1279 588 1226 q 624 1367 588 1332 q 713 1403 661 1403 q 800 1367 764 1403 q 836 1279 836 1331 q 800 1191 836 1226 q 713 1156 764 1156 m 856 90 q 796 36 856 90 q 542 -18 736 -18 q 228 90 347 -18 q 108 399 108 197 l 108 1047 l 372 1047 l 372 426 q 542 214 372 214 q 713 429 713 214 l 713 1047 l 975 1047 l 975 399 q 856 90 975 197 z "},"Ý":{"ha":947,"x_min":-7,"x_max":956,"o":"m 685 1324 l 417 1124 l 289 1201 l 497 1450 l 685 1324 m 604 0 l 346 0 l 346 453 l -7 1047 l 292 1047 l 476 690 l 657 1047 l 956 1047 l 604 453 l 604 0 z "},"Þ":{"ha":901,"x_min":119,"x_max":858,"o":"m 376 0 l 119 0 l 119 1047 l 376 1047 l 376 890 l 442 890 q 747 808 636 890 q 858 553 858 725 q 752 300 858 390 q 469 210 646 210 l 376 210 l 376 0 m 376 679 l 376 419 l 432 419 q 606 553 606 419 q 428 679 606 679 l 376 679 z "},"ß":{"ha":989,"x_min":19,"x_max":929,"o":"m 717 639 q 874 530 818 604 q 929 350 929 456 q 821 87 929 185 q 528 -11 713 -11 l 488 -11 l 488 158 l 494 158 q 631 214 582 161 q 679 353 679 267 q 493 536 679 528 l 493 703 q 597 738 558 703 q 635 829 635 772 q 601 911 635 882 q 508 940 568 940 q 381 799 381 940 l 381 0 l 131 0 l 131 486 l 19 486 l 19 697 l 131 697 l 131 793 q 224 1056 131 965 q 506 1147 318 1147 q 760 1072 660 1147 q 860 867 860 996 q 717 639 860 706 z "},"à":{"ha":950,"x_min":60,"x_max":851,"o":"m 608 850 l 478 775 l 219 988 l 410 1108 l 608 850 m 386 -18 q 150 88 240 -18 q 60 347 60 193 q 151 607 60 500 q 389 714 243 714 q 606 617 519 714 l 607 617 l 606 697 l 851 697 l 851 0 l 606 0 l 607 85 l 606 85 q 386 -18 503 -18 m 350 231 q 370 209 350 231 q 460 186 390 186 q 572 231 529 186 q 615 347 615 276 q 572 464 615 418 q 461 510 529 510 q 351 464 393 510 q 310 349 310 418 q 350 231 310 276 z "},"á":{"ha":950,"x_min":60,"x_max":851,"o":"m 708 988 l 450 775 l 321 850 l 518 1108 l 708 988 m 386 -18 q 150 88 240 -18 q 60 347 60 193 q 151 607 60 500 q 389 714 243 714 q 606 617 519 714 l 607 617 l 606 697 l 851 697 l 851 0 l 606 0 l 607 85 l 606 85 q 386 -18 503 -18 m 350 231 q 370 209 350 231 q 460 186 390 186 q 572 231 529 186 q 615 347 615 276 q 572 464 615 418 q 461 510 529 510 q 351 464 393 510 q 310 349 310 418 q 350 231 310 276 z "},"â":{"ha":950,"x_min":60,"x_max":851,"o":"m 468 883 l 292 775 l 192 897 l 468 1094 l 746 897 l 646 775 l 468 883 m 386 -18 q 150 88 240 -18 q 60 347 60 193 q 151 607 60 500 q 389 714 243 714 q 606 617 519 714 l 607 617 l 606 697 l 851 697 l 851 0 l 606 0 l 607 85 l 606 85 q 386 -18 503 -18 m 350 231 q 370 209 350 231 q 460 186 390 186 q 572 231 529 186 q 615 347 615 276 q 572 464 615 418 q 461 510 529 510 q 351 464 393 510 q 310 349 310 418 q 350 231 310 276 z "},"ã":{"ha":950,"x_min":60,"x_max":851,"o":"m 572 792 q 458 831 536 792 q 358 871 381 871 q 279 797 318 871 l 167 883 q 368 1038 256 1038 q 478 997 407 1038 q 572 957 549 957 q 654 1033 614 957 l 772 956 q 572 792 693 792 m 386 -18 q 150 88 240 -18 q 60 347 60 193 q 151 607 60 500 q 389 714 243 714 q 606 617 519 714 l 607 617 l 606 697 l 851 697 l 851 0 l 606 0 l 607 85 l 606 85 q 386 -18 503 -18 m 350 231 q 370 209 350 231 q 460 186 390 186 q 572 231 529 186 q 615 347 615 276 q 572 464 615 418 q 461 510 529 510 q 351 464 393 510 q 310 349 310 418 q 350 231 310 276 z "},"ä":{"ha":950,"x_min":60,"x_max":851,"o":"m 304 807 q 220 841 254 807 q 186 924 186 875 q 221 1006 186 972 q 304 1040 256 1040 q 385 1006 351 1040 q 419 922 419 972 q 385 840 419 874 q 304 807 351 807 m 635 807 q 551 840 585 807 q 517 924 517 874 q 551 1007 517 974 q 635 1040 586 1040 q 717 1006 683 1040 q 751 922 751 971 q 717 840 751 874 q 635 807 683 807 m 386 -18 q 150 88 240 -18 q 60 347 60 193 q 151 607 60 500 q 389 714 243 714 q 606 617 519 714 l 607 617 l 606 697 l 851 697 l 851 0 l 606 0 l 607 85 l 606 85 q 386 -18 503 -18 m 350 231 q 370 209 350 231 q 460 186 390 186 q 572 231 529 186 q 615 347 615 276 q 572 464 615 418 q 461 510 529 510 q 351 464 393 510 q 310 349 310 418 q 350 231 310 276 z "},"å":{"ha":950,"x_min":60,"x_max":851,"o":"m 469 781 q 338 827 393 781 q 282 949 282 874 q 338 1072 282 1025 q 469 1119 393 1119 q 600 1072 544 1119 q 656 949 656 1025 q 600 827 656 874 q 469 781 544 781 m 469 888 q 515 905 496 888 q 533 950 533 922 q 515 995 533 978 q 469 1013 496 1013 q 423 995 442 1013 q 404 950 404 978 q 423 905 404 922 q 469 888 442 888 m 386 -18 q 150 88 240 -18 q 60 347 60 193 q 151 607 60 500 q 389 714 243 714 q 606 617 519 714 l 607 617 l 606 697 l 851 697 l 851 0 l 606 0 l 607 85 l 606 85 q 386 -18 503 -18 m 350 231 q 370 209 350 231 q 460 186 390 186 q 572 231 529 186 q 615 347 615 276 q 572 464 615 418 q 461 510 529 510 q 351 464 393 510 q 310 349 310 418 q 350 231 310 276 z "},"æ":{"ha":1308,"x_min":54,"x_max":1249,"o":"m 1249 336 l 1249 301 l 751 301 q 788 190 754 231 q 883 149 822 149 q 1011 235 960 149 l 1238 194 q 1099 36 1193 89 q 883 -17 1004 -17 q 614 97 707 -17 q 499 9 565 36 q 333 -18 432 -18 q 131 44 208 -18 q 54 215 54 107 q 131 385 54 325 q 338 446 208 446 q 518 403 447 446 l 518 424 q 382 542 518 542 q 194 497 296 542 l 129 650 q 425 714 265 714 q 650 631 575 714 q 881 715 743 715 q 1148 615 1047 715 q 1249 336 1249 514 m 757 439 l 999 439 q 962 520 993 490 q 879 550 931 550 q 798 520 829 550 q 757 439 767 490 m 399 128 q 486 153 451 128 q 521 222 521 178 q 486 290 521 267 q 399 313 451 313 q 320 289 350 313 q 290 221 290 265 q 319 151 290 175 q 399 128 349 128 z "},"ç":{"ha":692,"x_min":60,"x_max":633,"o":"m 443 -18 q 165 81 271 -18 q 60 346 60 181 q 164 610 60 504 q 431 715 268 715 q 633 672 547 715 l 633 439 q 471 513 556 513 q 356 467 400 513 q 313 349 313 421 q 355 232 313 278 q 469 186 397 186 q 633 256 549 186 l 626 25 q 443 -18 547 -18 m 539 -122 l 353 -315 l 242 -246 l 396 -25 l 539 -122 z "},"è":{"ha":868,"x_min":60,"x_max":808,"o":"m 376 1108 l 575 850 l 444 775 l 186 988 l 376 1108 m 808 336 q 807 301 808 313 l 311 301 q 347 189 314 231 q 442 147 381 147 q 565 228 522 147 l 792 189 q 658 35 753 88 q 442 -18 564 -18 q 166 79 272 -18 q 60 344 60 176 q 165 614 60 513 q 433 715 271 715 q 706 615 603 715 q 808 336 808 514 m 317 439 l 558 439 q 519 520 551 490 q 438 550 488 550 q 356 519 388 550 q 317 439 325 489 z "},"é":{"ha":868,"x_min":60,"x_max":808,"o":"m 483 1108 l 674 988 l 415 775 l 286 850 l 483 1108 m 808 336 q 807 301 808 313 l 311 301 q 347 189 314 231 q 442 147 381 147 q 565 228 522 147 l 792 189 q 658 35 753 88 q 442 -18 564 -18 q 166 79 272 -18 q 60 344 60 176 q 165 614 60 513 q 433 715 271 715 q 706 615 603 715 q 808 336 808 514 m 317 439 l 558 439 q 519 520 551 490 q 438 550 488 550 q 356 519 388 550 q 317 439 325 489 z "},"ê":{"ha":868,"x_min":60,"x_max":808,"o":"m 611 775 l 433 883 l 257 775 l 157 897 l 433 1094 l 711 897 l 611 775 m 808 336 q 807 301 808 313 l 311 301 q 347 189 314 231 q 442 147 381 147 q 565 228 522 147 l 792 189 q 658 35 753 88 q 442 -18 564 -18 q 166 79 272 -18 q 60 344 60 176 q 165 614 60 513 q 433 715 271 715 q 706 615 603 715 q 808 336 808 514 m 317 439 l 558 439 q 519 520 551 490 q 438 550 488 550 q 356 519 388 550 q 317 439 325 489 z "},"ë":{"ha":868,"x_min":60,"x_max":808,"o":"m 271 807 q 187 841 221 807 q 153 924 153 875 q 188 1006 153 972 q 271 1040 222 1040 q 352 1006 318 1040 q 386 922 386 972 q 352 840 386 874 q 271 807 318 807 m 601 807 q 517 840 551 807 q 483 924 483 874 q 518 1007 483 974 q 601 1040 553 1040 q 684 1006 650 1040 q 718 922 718 971 q 684 840 718 874 q 601 807 650 807 m 808 336 q 807 301 808 313 l 311 301 q 347 189 314 231 q 442 147 381 147 q 565 228 522 147 l 792 189 q 658 35 753 88 q 442 -18 564 -18 q 166 79 272 -18 q 60 344 60 176 q 165 614 60 513 q 433 715 271 715 q 706 615 603 715 q 808 336 808 514 m 317 439 l 558 439 q 519 520 551 490 q 438 550 488 550 q 356 519 388 550 q 317 439 325 489 z "},"ì":{"ha":447,"x_min":-24,"x_max":365,"o":"m 365 850 l 235 775 l -24 988 l 167 1108 l 365 850 m 349 0 l 99 0 l 99 697 l 349 697 l 349 0 z "},"í":{"ha":447,"x_min":76,"x_max":464,"o":"m 464 988 l 206 775 l 76 850 l 274 1108 l 464 988 m 349 0 l 99 0 l 99 697 l 349 697 l 349 0 z "},"î":{"ha":447,"x_min":-53,"x_max":501,"o":"m 224 883 l 47 775 l -53 897 l 224 1094 l 501 897 l 401 775 l 224 883 m 349 0 l 99 0 l 99 697 l 349 697 l 349 0 z "},"ï":{"ha":447,"x_min":-57,"x_max":508,"o":"m 61 807 q -23 841 11 807 q -57 924 -57 875 q -22 1006 -57 972 q 61 1040 13 1040 q 142 1006 108 1040 q 176 922 176 972 q 142 840 176 874 q 61 807 108 807 m 392 807 q 308 840 342 807 q 274 924 274 874 q 308 1007 274 974 q 392 1040 343 1040 q 474 1006 440 1040 q 508 922 508 971 q 474 840 508 874 q 392 807 440 807 m 349 0 l 99 0 l 99 697 l 349 697 l 349 0 z "},"ð":{"ha":918,"x_min":60,"x_max":854,"o":"m 713 1008 l 588 943 q 782 686 710 828 q 854 399 854 544 q 740 90 854 199 q 456 -18 626 -18 q 178 81 297 -18 q 60 346 60 179 q 167 605 60 506 q 424 704 274 704 q 557 676 504 704 q 404 849 506 763 l 222 754 l 153 863 l 290 933 q 135 1018 221 979 l 281 1146 q 481 1032 385 1101 l 644 1117 l 713 1008 m 348 230 q 369 208 348 230 q 457 186 390 186 q 566 231 524 186 q 608 346 608 275 q 566 463 608 417 q 457 508 524 508 q 348 463 390 508 q 306 347 306 418 q 348 230 306 274 z "},"ñ":{"ha":893,"x_min":99,"x_max":801,"o":"m 550 792 q 436 831 514 792 q 336 871 358 871 q 257 797 296 871 l 144 883 q 346 1038 233 1038 q 456 997 385 1038 q 550 957 526 957 q 632 1033 592 957 l 750 956 q 550 792 671 792 m 349 0 l 99 0 l 99 697 l 344 697 l 340 604 l 343 604 q 440 688 390 660 q 561 715 489 715 q 742 638 682 715 q 801 429 801 560 l 801 0 l 551 0 l 551 365 q 531 472 551 438 q 460 506 511 506 q 349 342 349 506 l 349 0 z "},"ò":{"ha":918,"x_min":60,"x_max":858,"o":"m 599 850 l 468 775 l 210 988 l 400 1108 l 599 850 m 457 -18 q 172 82 283 -18 q 60 351 60 182 q 172 615 60 514 q 458 715 285 715 q 745 615 632 715 q 858 349 858 514 q 745 81 858 181 q 457 -18 632 -18 m 349 232 q 370 210 349 232 q 458 188 390 188 q 568 232 526 188 q 610 349 610 276 q 568 464 610 419 q 458 508 526 508 q 350 464 392 508 q 308 350 308 419 q 349 232 308 276 z "},"ó":{"ha":918,"x_min":60,"x_max":858,"o":"m 697 988 l 439 775 l 310 850 l 507 1108 l 697 988 m 457 -18 q 172 82 283 -18 q 60 351 60 182 q 172 615 60 514 q 458 715 285 715 q 745 615 632 715 q 858 349 858 514 q 745 81 858 181 q 457 -18 632 -18 m 349 232 q 370 210 349 232 q 458 188 390 188 q 568 232 526 188 q 610 349 610 276 q 568 464 610 419 q 458 508 526 508 q 350 464 392 508 q 308 350 308 419 q 349 232 308 276 z "},"ô":{"ha":918,"x_min":60,"x_max":858,"o":"m 458 883 l 282 775 l 182 897 l 458 1094 l 736 897 l 636 775 l 458 883 m 457 -18 q 172 82 283 -18 q 60 351 60 182 q 172 615 60 514 q 458 715 285 715 q 745 615 632 715 q 858 349 858 514 q 745 81 858 181 q 457 -18 632 -18 m 349 232 q 370 210 349 232 q 458 188 390 188 q 568 232 526 188 q 610 349 610 276 q 568 464 610 419 q 458 508 526 508 q 350 464 392 508 q 308 350 308 419 q 349 232 308 276 z "},"õ":{"ha":918,"x_min":60,"x_max":858,"o":"m 563 792 q 449 831 526 792 q 349 871 371 871 q 269 797 308 871 l 157 883 q 358 1038 246 1038 q 468 997 397 1038 q 563 957 539 957 q 644 1033 604 957 l 763 956 q 563 792 683 792 m 457 -18 q 172 82 283 -18 q 60 351 60 182 q 172 615 60 514 q 458 715 285 715 q 745 615 632 715 q 858 349 858 514 q 745 81 858 181 q 457 -18 632 -18 m 349 232 q 370 210 349 232 q 458 188 390 188 q 568 232 526 188 q 610 349 610 276 q 568 464 610 419 q 458 508 526 508 q 350 464 392 508 q 308 350 308 419 q 349 232 308 276 z "},"ö":{"ha":918,"x_min":60,"x_max":858,"o":"m 294 807 q 210 841 244 807 q 176 924 176 875 q 211 1006 176 972 q 294 1040 246 1040 q 376 1006 342 1040 q 410 922 410 972 q 376 840 410 874 q 294 807 342 807 m 625 807 q 541 840 575 807 q 507 924 507 874 q 542 1007 507 974 q 625 1040 576 1040 q 708 1006 674 1040 q 742 922 742 971 q 708 840 742 874 q 625 807 674 807 m 457 -18 q 172 82 283 -18 q 60 351 60 182 q 172 615 60 514 q 458 715 285 715 q 745 615 632 715 q 858 349 858 514 q 745 81 858 181 q 457 -18 632 -18 m 349 232 q 370 210 349 232 q 458 188 390 188 q 568 232 526 188 q 610 349 610 276 q 568 464 610 419 q 458 508 526 508 q 350 464 392 508 q 308 350 308 419 q 349 232 308 276 z "},"÷":{"ha":978,"x_min":103,"x_max":875,"o":"m 581 641 q 561 625 581 641 q 489 608 542 608 q 397 641 436 608 q 357 725 357 674 q 397 811 357 778 q 489 844 436 844 q 581 811 542 844 q 619 725 619 778 q 581 641 619 674 m 875 328 l 103 328 l 103 525 l 875 525 l 875 328 m 581 44 q 561 27 581 44 q 489 11 542 11 q 397 44 436 11 q 357 128 357 76 q 397 214 357 181 q 489 247 436 247 q 581 214 542 247 q 619 128 619 181 q 581 44 619 76 z "},"ø":{"ha":918,"x_min":49,"x_max":868,"o":"m 797 763 l 868 692 l 768 590 q 858 349 858 493 q 745 81 858 181 q 457 -18 632 -18 q 226 40 326 -18 l 119 -68 l 49 3 l 149 104 q 60 351 60 204 q 172 615 60 514 q 458 715 285 715 q 690 654 593 715 l 797 763 m 308 350 q 319 278 308 311 l 538 499 q 458 521 501 521 q 350 473 392 521 q 308 350 308 425 m 610 349 q 599 418 610 385 l 379 196 q 458 175 413 175 q 568 223 526 175 q 610 349 610 271 z "},"ù":{"ha":875,"x_min":92,"x_max":783,"o":"m 578 850 l 447 775 l 189 988 l 379 1108 l 578 850 m 438 -18 q 185 61 278 -18 q 92 299 92 140 l 92 697 l 340 697 l 340 318 q 363 222 340 254 q 438 189 385 189 q 535 318 535 189 l 535 697 l 783 697 l 783 299 q 691 63 783 144 q 438 -18 599 -18 z "},"ú":{"ha":875,"x_min":92,"x_max":783,"o":"m 676 988 l 418 775 l 289 850 l 486 1108 l 676 988 m 438 -18 q 185 61 278 -18 q 92 299 92 140 l 92 697 l 340 697 l 340 318 q 363 222 340 254 q 438 189 385 189 q 535 318 535 189 l 535 697 l 783 697 l 783 299 q 691 63 783 144 q 438 -18 599 -18 z "},"û":{"ha":875,"x_min":92,"x_max":783,"o":"m 436 883 l 260 775 l 160 897 l 436 1094 l 714 897 l 614 775 l 436 883 m 438 -18 q 185 61 278 -18 q 92 299 92 140 l 92 697 l 340 697 l 340 318 q 363 222 340 254 q 438 189 385 189 q 535 318 535 189 l 535 697 l 783 697 l 783 299 q 691 63 783 144 q 438 -18 599 -18 z "},"ü":{"ha":875,"x_min":92,"x_max":783,"o":"m 274 807 q 190 841 224 807 q 156 924 156 875 q 190 1006 156 972 q 274 1040 225 1040 q 355 1006 321 1040 q 389 922 389 972 q 355 840 389 874 q 274 807 321 807 m 604 807 q 520 840 554 807 q 486 924 486 874 q 521 1007 486 974 q 604 1040 556 1040 q 687 1006 653 1040 q 721 922 721 971 q 687 840 721 874 q 604 807 653 807 m 438 -18 q 185 61 278 -18 q 92 299 92 140 l 92 697 l 340 697 l 340 318 q 363 222 340 254 q 438 189 385 189 q 535 318 535 189 l 535 697 l 783 697 l 783 299 q 691 63 783 144 q 438 -18 599 -18 z "},"ý":{"ha":843,"x_min":-4,"x_max":847,"o":"m 472 1108 l 663 988 l 404 775 l 275 850 l 472 1108 m 428 301 l 579 697 l 847 697 l 347 -333 l 76 -333 l 303 106 l -4 697 l 272 697 l 428 301 z "},"þ":{"ha":949,"x_min":99,"x_max":889,"o":"m 349 -333 l 99 -333 l 99 1133 l 349 1133 l 349 740 q 344 613 349 674 l 346 613 q 565 715 433 715 q 801 609 713 715 q 889 349 889 503 q 799 90 889 197 q 563 -17 708 -17 q 346 86 431 -17 l 344 86 q 349 -43 349 19 l 349 -333 m 378 233 q 399 210 378 233 q 489 188 421 188 q 599 233 557 188 q 640 349 640 279 q 599 466 640 421 q 489 511 558 511 q 378 466 421 511 q 335 350 335 421 q 378 233 335 279 z "},"ÿ":{"ha":843,"x_min":-4,"x_max":847,"o":"m 260 807 q 176 841 210 807 q 142 924 142 875 q 176 1006 142 972 q 260 1040 211 1040 q 341 1006 307 1040 q 375 922 375 972 q 341 840 375 874 q 260 807 307 807 m 590 807 q 506 840 540 807 q 472 924 472 874 q 507 1007 472 974 q 590 1040 542 1040 q 673 1006 639 1040 q 707 922 707 971 q 673 840 707 874 q 590 807 639 807 m 428 301 l 579 697 l 847 697 l 347 -333 l 76 -333 l 303 106 l -4 697 l 272 697 l 428 301 z "},"Ā":{"ha":1076,"x_min":-4,"x_max":1081,"o":"m 314 1293 l 769 1293 l 769 1154 l 314 1154 l 314 1293 m 1081 0 l 794 0 l 726 199 l 343 199 l 271 0 l -4 0 l 425 1047 l 657 1047 l 1081 0 m 469 546 l 414 394 l 658 394 l 607 544 q 540 750 569 656 q 469 546 507 647 z "},"ā":{"ha":950,"x_min":60,"x_max":851,"o":"m 710 842 l 229 842 l 229 1000 l 710 1000 l 710 842 m 386 -18 q 150 88 240 -18 q 60 347 60 193 q 151 607 60 500 q 389 714 243 714 q 606 617 519 714 l 607 617 l 606 697 l 851 697 l 851 0 l 606 0 l 607 85 l 606 85 q 386 -18 503 -18 m 350 231 q 370 209 350 231 q 460 186 390 186 q 572 231 529 186 q 615 347 615 276 q 572 464 615 418 q 461 510 529 510 q 351 464 393 510 q 310 349 310 418 q 350 231 310 276 z "},"Ă":{"ha":1076,"x_min":-4,"x_max":1081,"o":"m 731 1207 q 694 1172 731 1207 q 540 1138 657 1138 q 351 1204 424 1138 q 271 1385 279 1271 l 428 1385 q 542 1289 444 1289 q 657 1385 638 1289 l 814 1385 q 731 1207 806 1276 m 1081 0 l 794 0 l 726 199 l 343 199 l 271 0 l -4 0 l 425 1047 l 657 1047 l 1081 0 m 469 546 l 414 394 l 658 394 l 607 544 q 540 750 569 656 q 469 546 507 647 z "},"ă":{"ha":950,"x_min":60,"x_max":851,"o":"m 658 854 q 620 819 658 854 q 467 785 583 785 q 278 851 350 785 q 197 1032 206 918 l 354 1032 q 468 936 372 936 q 583 1032 564 936 l 740 1032 q 658 854 732 924 m 386 -18 q 150 88 240 -18 q 60 347 60 193 q 151 607 60 500 q 389 714 243 714 q 606 617 519 714 l 607 617 l 606 697 l 851 697 l 851 0 l 606 0 l 607 85 l 606 85 q 386 -18 503 -18 m 350 231 q 370 209 350 231 q 460 186 390 186 q 572 231 529 186 q 615 347 615 276 q 572 464 615 418 q 461 510 529 510 q 351 464 393 510 q 310 349 310 418 q 350 231 310 276 z "},"Ą":{"ha":1076,"x_min":-4,"x_max":1081,"o":"m 961 -153 q 1035 -135 996 -153 l 1081 -261 q 917 -300 1003 -300 q 790 -261 843 -300 q 736 -154 736 -222 q 840 0 736 -58 l 794 0 l 726 199 l 343 199 l 271 0 l -4 0 l 425 1047 l 657 1047 l 1081 0 l 1011 0 q 908 -108 908 -57 q 922 -140 908 -128 q 961 -153 936 -153 m 469 546 l 414 394 l 658 394 l 607 544 q 540 750 569 656 q 469 546 507 647 z "},"ą":{"ha":950,"x_min":60,"x_max":879,"o":"m 833 -135 l 879 -261 q 715 -300 801 -300 q 588 -261 642 -300 q 535 -154 535 -222 q 639 0 535 -58 l 606 0 l 607 85 l 606 85 q 386 -18 503 -18 q 150 88 240 -18 q 60 347 60 193 q 151 607 60 500 q 389 714 243 714 q 606 617 519 714 l 607 617 l 606 697 l 851 697 l 851 0 l 810 0 q 707 -108 707 -57 q 721 -140 707 -128 q 760 -153 735 -153 q 833 -135 794 -153 m 350 231 q 370 209 350 231 q 460 186 390 186 q 572 231 529 186 q 615 347 615 276 q 572 464 615 418 q 461 510 529 510 q 351 464 393 510 q 310 349 310 418 q 350 231 310 276 z "},"Ć":{"ha":964,"x_min":72,"x_max":892,"o":"m 779 1324 l 511 1124 l 383 1201 l 592 1450 l 779 1324 m 608 -18 q 228 137 383 -18 q 72 517 72 292 q 231 906 72 744 q 622 1067 390 1067 q 888 1004 758 1067 l 892 718 q 638 828 769 828 q 426 741 515 828 q 338 522 338 654 q 426 308 338 396 q 640 219 514 219 q 771 245 713 219 q 892 328 829 271 l 888 46 q 608 -18 767 -18 z "},"ć":{"ha":692,"x_min":60,"x_max":649,"o":"m 649 988 l 390 775 l 261 850 l 458 1108 l 649 988 m 443 -18 q 165 81 271 -18 q 60 346 60 181 q 164 610 60 504 q 431 715 268 715 q 633 672 547 715 l 633 439 q 471 513 556 513 q 356 467 400 513 q 313 349 313 421 q 355 232 313 278 q 469 186 397 186 q 633 256 549 186 l 626 25 q 443 -18 547 -18 z "},"Ĉ":{"ha":964,"x_min":72,"x_max":892,"o":"m 568 1225 l 392 1132 l 292 1253 l 568 1435 l 846 1253 l 746 1132 l 568 1225 m 608 -18 q 228 137 383 -18 q 72 517 72 292 q 231 906 72 744 q 622 1067 390 1067 q 888 1004 758 1067 l 892 718 q 638 828 769 828 q 426 741 515 828 q 338 522 338 654 q 426 308 338 396 q 640 219 514 219 q 771 245 713 219 q 892 328 829 271 l 888 46 q 608 -18 767 -18 z "},"ĉ":{"ha":692,"x_min":60,"x_max":686,"o":"m 408 883 l 232 775 l 132 897 l 408 1094 l 686 897 l 586 775 l 408 883 m 443 -18 q 165 81 271 -18 q 60 346 60 181 q 164 610 60 504 q 431 715 268 715 q 633 672 547 715 l 633 439 q 471 513 556 513 q 356 467 400 513 q 313 349 313 421 q 355 232 313 278 q 469 186 397 186 q 633 256 549 186 l 626 25 q 443 -18 547 -18 z "},"Ċ":{"ha":964,"x_min":72,"x_max":892,"o":"m 672 1192 q 650 1174 672 1192 q 568 1156 629 1156 q 465 1192 507 1156 q 422 1290 422 1229 q 464 1386 422 1349 q 568 1424 506 1424 q 672 1386 631 1424 q 714 1290 714 1349 q 672 1192 714 1229 m 608 -18 q 228 137 383 -18 q 72 517 72 292 q 231 906 72 744 q 622 1067 390 1067 q 888 1004 758 1067 l 892 718 q 638 828 769 828 q 426 741 515 828 q 338 522 338 654 q 426 308 338 396 q 640 219 514 219 q 771 245 713 219 q 892 328 829 271 l 888 46 q 608 -18 767 -18 z "},"ċ":{"ha":692,"x_min":60,"x_max":633,"o":"m 513 867 q 492 849 513 867 q 410 831 471 831 q 306 867 349 831 q 264 965 264 903 q 306 1061 264 1024 q 410 1099 347 1099 q 514 1061 472 1099 q 556 965 556 1024 q 513 867 556 903 m 443 -18 q 165 81 271 -18 q 60 346 60 181 q 164 610 60 504 q 431 715 268 715 q 633 672 547 715 l 633 439 q 471 513 556 513 q 356 467 400 513 q 313 349 313 421 q 355 232 313 278 q 469 186 397 186 q 633 256 549 186 l 626 25 q 443 -18 547 -18 z "},"Č":{"ha":964,"x_min":72,"x_max":892,"o":"m 846 1318 l 569 1129 l 292 1318 l 392 1440 l 569 1339 l 746 1440 l 846 1318 m 608 -18 q 228 137 383 -18 q 72 517 72 292 q 231 906 72 744 q 622 1067 390 1067 q 888 1004 758 1067 l 892 718 q 638 828 769 828 q 426 741 515 828 q 338 522 338 654 q 426 308 338 396 q 640 219 514 219 q 771 245 713 219 q 892 328 829 271 l 888 46 q 608 -18 767 -18 z "},"č":{"ha":692,"x_min":60,"x_max":688,"o":"m 688 972 l 411 775 l 133 972 l 233 1094 l 411 986 l 588 1094 l 688 972 m 443 -18 q 165 81 271 -18 q 60 346 60 181 q 164 610 60 504 q 431 715 268 715 q 633 672 547 715 l 633 439 q 471 513 556 513 q 356 467 400 513 q 313 349 313 421 q 355 232 313 278 q 469 186 397 186 q 633 256 549 186 l 626 25 q 443 -18 547 -18 z "},"Ď":{"ha":1096,"x_min":119,"x_max":1024,"o":"m 826 1318 l 550 1129 l 272 1318 l 372 1440 l 550 1339 l 726 1440 l 826 1318 m 436 0 l 119 0 l 119 1047 l 419 1047 q 859 913 694 1047 q 1024 524 1024 778 q 863 137 1024 274 q 436 0 701 0 m 376 814 l 376 226 l 432 226 q 672 303 583 226 q 760 524 760 381 q 676 740 760 665 q 432 814 593 814 l 376 814 z "},"ď":{"ha":949,"x_min":60,"x_max":1165,"o":"m 388 -17 q 150 90 240 -17 q 60 349 60 196 q 149 609 60 503 q 385 715 238 715 q 603 613 515 715 l 604 613 q 601 740 601 690 l 601 1133 l 851 1133 l 851 0 l 606 0 l 607 90 l 604 90 q 388 -17 517 -17 m 1165 1054 l 1022 793 l 889 836 l 975 1122 l 1165 1054 m 351 233 q 372 210 351 233 q 461 188 393 188 q 572 233 529 188 q 614 350 614 279 q 572 465 614 421 q 460 510 529 510 q 350 465 390 510 q 310 349 310 421 q 351 233 310 279 z "},"Đ":{"ha":1096,"x_min":18,"x_max":1024,"o":"m 119 1047 l 419 1047 q 859 913 694 1047 q 1024 524 1024 778 q 863 137 1024 274 q 436 0 701 0 l 119 0 l 119 450 l 18 450 l 18 592 l 119 592 l 119 1047 m 376 226 l 432 226 q 672 303 583 226 q 760 524 760 381 q 676 740 760 665 q 432 814 593 814 l 376 814 l 376 592 l 544 592 l 544 450 l 376 450 l 376 226 z "},"đ":{"ha":949,"x_min":60,"x_max":936,"o":"m 851 981 l 936 981 l 936 867 l 851 867 l 851 0 l 606 0 l 608 90 l 604 90 q 388 -17 517 -17 q 150 90 240 -17 q 60 349 60 196 q 149 609 60 503 q 385 715 238 715 q 603 613 515 715 l 608 613 q 601 740 601 692 l 601 867 l 414 867 l 414 981 l 601 981 l 601 1133 l 851 1133 l 851 981 m 351 233 q 372 210 351 233 q 461 188 393 188 q 572 233 529 188 q 614 350 614 279 q 572 465 614 421 q 460 510 529 510 q 350 465 390 510 q 310 349 310 421 q 351 233 310 279 z "},"Ē":{"ha":872,"x_min":119,"x_max":763,"o":"m 674 1154 l 218 1154 l 218 1293 l 674 1293 l 674 1154 m 763 0 l 119 0 l 119 1047 l 757 1047 l 757 833 l 376 833 l 376 656 l 738 656 l 738 449 l 376 449 l 376 214 l 763 214 l 763 0 z "},"ē":{"ha":868,"x_min":60,"x_max":808,"o":"m 194 1000 l 675 1000 l 675 842 l 194 842 l 194 1000 m 808 336 q 807 301 808 313 l 311 301 q 347 189 314 231 q 442 147 381 147 q 565 228 522 147 l 792 189 q 658 35 753 88 q 442 -18 564 -18 q 166 79 272 -18 q 60 344 60 176 q 165 614 60 513 q 433 715 271 715 q 706 615 603 715 q 808 336 808 514 m 317 439 l 558 439 q 519 520 551 490 q 438 550 488 550 q 356 519 388 550 q 317 439 325 489 z "},"Ĕ":{"ha":872,"x_min":119,"x_max":763,"o":"m 635 1207 q 598 1172 635 1207 q 444 1138 561 1138 q 256 1204 328 1138 q 175 1385 183 1271 l 332 1385 q 446 1289 349 1289 q 561 1385 542 1289 l 718 1385 q 635 1207 710 1276 m 763 0 l 119 0 l 119 1047 l 757 1047 l 757 833 l 376 833 l 376 656 l 738 656 l 738 449 l 376 449 l 376 214 l 763 214 l 763 0 z "},"ĕ":{"ha":868,"x_min":60,"x_max":808,"o":"m 624 854 q 587 819 624 854 q 433 785 550 785 q 244 851 317 785 q 164 1032 172 918 l 321 1032 q 435 936 339 936 q 550 1032 531 936 l 707 1032 q 624 854 699 924 m 808 336 q 807 301 808 313 l 311 301 q 347 189 314 231 q 442 147 381 147 q 565 228 522 147 l 792 189 q 658 35 753 88 q 442 -18 564 -18 q 166 79 272 -18 q 60 344 60 176 q 165 614 60 513 q 433 715 271 715 q 706 615 603 715 q 808 336 808 514 m 317 439 l 558 439 q 519 520 551 490 q 438 550 488 550 q 356 519 388 550 q 317 439 325 489 z "},"Ė":{"ha":872,"x_min":119,"x_max":763,"o":"m 549 1192 q 528 1174 549 1192 q 446 1156 507 1156 q 342 1192 385 1156 q 300 1290 300 1229 q 342 1386 300 1349 q 446 1424 383 1424 q 550 1386 508 1424 q 592 1290 592 1349 q 549 1192 592 1229 m 763 0 l 119 0 l 119 1047 l 757 1047 l 757 833 l 376 833 l 376 656 l 738 656 l 738 449 l 376 449 l 376 214 l 763 214 l 763 0 z "},"ė":{"ha":868,"x_min":60,"x_max":808,"o":"m 538 867 q 517 849 538 867 q 435 831 496 831 q 331 867 374 831 q 289 965 289 903 q 331 1061 289 1024 q 435 1099 372 1099 q 539 1061 497 1099 q 581 965 581 1024 q 538 867 581 903 m 808 336 q 807 301 808 313 l 311 301 q 347 189 314 231 q 442 147 381 147 q 565 228 522 147 l 792 189 q 658 35 753 88 q 442 -18 564 -18 q 166 79 272 -18 q 60 344 60 176 q 165 614 60 513 q 433 715 271 715 q 706 615 603 715 q 808 336 808 514 m 317 439 l 558 439 q 519 520 551 490 q 438 550 488 550 q 356 519 388 550 q 317 439 325 489 z "},"Ę":{"ha":872,"x_min":119,"x_max":763,"o":"m 763 0 l 683 0 q 581 -108 581 -57 q 594 -140 581 -128 q 633 -153 608 -153 q 707 -135 668 -153 l 753 -261 q 589 -300 675 -300 q 462 -261 515 -300 q 408 -154 408 -222 q 513 0 408 -58 l 119 0 l 119 1047 l 757 1047 l 757 833 l 376 833 l 376 656 l 738 656 l 738 449 l 376 449 l 376 214 l 763 214 l 763 0 z "},"ę":{"ha":868,"x_min":60,"x_max":808,"o":"m 808 336 q 807 301 808 313 l 311 301 q 347 189 314 231 q 442 147 381 147 q 565 228 522 147 l 792 189 q 592 6 739 56 q 479 -108 479 -54 q 493 -140 479 -128 q 532 -153 507 -153 q 606 -135 567 -153 l 651 -261 q 488 -300 574 -300 q 360 -261 414 -300 q 307 -154 307 -222 q 386 -15 307 -71 q 149 96 239 1 q 60 344 60 190 q 165 614 60 513 q 433 715 271 715 q 706 615 603 715 q 808 336 808 514 m 317 439 l 558 439 q 519 520 551 490 q 438 550 488 550 q 356 519 388 550 q 317 439 325 489 z "},"Ě":{"ha":872,"x_min":119,"x_max":763,"o":"m 724 1318 l 447 1129 l 169 1318 l 269 1440 l 447 1339 l 624 1440 l 724 1318 m 763 0 l 119 0 l 119 1047 l 757 1047 l 757 833 l 376 833 l 376 656 l 738 656 l 738 449 l 376 449 l 376 214 l 763 214 l 763 0 z "},"ě":{"ha":868,"x_min":60,"x_max":808,"o":"m 613 1094 l 713 972 l 436 775 l 158 972 l 258 1094 l 436 986 l 613 1094 m 808 336 q 807 301 808 313 l 311 301 q 347 189 314 231 q 442 147 381 147 q 565 228 522 147 l 792 189 q 658 35 753 88 q 442 -18 564 -18 q 166 79 272 -18 q 60 344 60 176 q 165 614 60 513 q 433 715 271 715 q 706 615 603 715 q 808 336 808 514 m 317 439 l 558 439 q 519 520 551 490 q 438 550 488 550 q 356 519 388 550 q 317 439 325 489 z "},"Ĝ":{"ha":1228,"x_min":72,"x_max":1156,"o":"m 613 1225 l 436 1132 l 336 1253 l 613 1435 l 890 1253 l 790 1132 l 613 1225 m 626 -18 q 233 133 393 -18 q 72 519 72 285 q 234 913 72 760 q 635 1067 396 1067 q 902 1006 781 1067 q 1104 826 1024 946 l 878 708 q 638 836 785 836 q 422 745 507 836 q 338 518 338 654 q 424 294 338 385 q 629 203 510 203 q 790 253 725 203 q 868 383 856 304 l 868 385 l 649 385 l 649 582 l 1156 582 l 1156 538 q 1013 132 1156 282 q 626 -18 871 -18 z "},"ĝ":{"ha":922,"x_min":54,"x_max":825,"o":"m 449 883 l 272 775 l 172 897 l 449 1094 l 726 897 l 626 775 l 449 883 m 436 -342 q 175 -272 274 -342 q 63 -62 76 -201 l 281 -56 q 429 -164 303 -164 q 585 11 585 -164 l 585 108 l 582 108 q 363 1 486 1 q 140 106 226 1 q 54 357 54 210 q 141 610 54 506 q 365 714 228 714 q 578 617 494 714 l 581 617 l 578 697 l 825 697 l 825 49 q 722 -242 825 -143 q 436 -342 618 -342 m 444 193 q 548 238 508 193 q 588 351 588 282 q 548 465 588 419 q 446 510 508 510 q 344 465 383 510 q 304 353 304 421 q 342 238 304 282 q 444 193 379 193 z "},"Ğ":{"ha":1228,"x_min":72,"x_max":1156,"o":"m 802 1207 q 765 1172 802 1207 q 611 1138 728 1138 q 422 1204 494 1138 q 342 1385 350 1271 l 499 1385 q 613 1289 515 1289 q 728 1385 708 1289 l 885 1385 q 802 1207 876 1276 m 626 -18 q 233 133 393 -18 q 72 519 72 285 q 234 913 72 760 q 635 1067 396 1067 q 902 1006 781 1067 q 1104 826 1024 946 l 878 708 q 638 836 785 836 q 422 745 507 836 q 338 518 338 654 q 424 294 338 385 q 629 203 510 203 q 790 253 725 203 q 868 383 856 304 l 868 385 l 649 385 l 649 582 l 1156 582 l 1156 538 q 1013 132 1156 282 q 626 -18 871 -18 z "},"ğ":{"ha":922,"x_min":54,"x_max":825,"o":"m 638 854 q 601 819 638 854 q 447 785 564 785 q 258 851 331 785 q 178 1032 186 918 l 335 1032 q 449 936 353 936 q 564 1032 544 936 l 721 1032 q 638 854 713 924 m 436 -342 q 175 -272 274 -342 q 63 -62 76 -201 l 281 -56 q 429 -164 303 -164 q 585 11 585 -164 l 585 108 l 582 108 q 363 1 486 1 q 140 106 226 1 q 54 357 54 210 q 141 610 54 506 q 365 714 228 714 q 578 617 494 714 l 581 617 l 578 697 l 825 697 l 825 49 q 722 -242 825 -143 q 436 -342 618 -342 m 444 193 q 548 238 508 193 q 588 351 588 282 q 548 465 588 419 q 446 510 508 510 q 344 465 383 510 q 304 353 304 421 q 342 238 304 282 q 444 193 379 193 z "},"Ġ":{"ha":1228,"x_min":72,"x_max":1156,"o":"m 716 1192 q 695 1174 716 1192 q 613 1156 674 1156 q 509 1192 551 1156 q 467 1290 467 1229 q 508 1386 467 1349 q 613 1424 550 1424 q 717 1386 675 1424 q 758 1290 758 1349 q 716 1192 758 1229 m 626 -18 q 233 133 393 -18 q 72 519 72 285 q 234 913 72 760 q 635 1067 396 1067 q 902 1006 781 1067 q 1104 826 1024 946 l 878 708 q 638 836 785 836 q 422 745 507 836 q 338 518 338 654 q 424 294 338 385 q 629 203 510 203 q 790 253 725 203 q 868 383 856 304 l 868 385 l 649 385 l 649 582 l 1156 582 l 1156 538 q 1013 132 1156 282 q 626 -18 871 -18 z "},"ġ":{"ha":922,"x_min":54,"x_max":825,"o":"m 552 867 q 531 849 552 867 q 449 831 510 831 q 345 867 388 831 q 303 965 303 903 q 344 1061 303 1024 q 449 1099 386 1099 q 553 1061 511 1099 q 594 965 594 1024 q 552 867 594 903 m 436 -342 q 175 -272 274 -342 q 63 -62 76 -201 l 281 -56 q 429 -164 303 -164 q 585 11 585 -164 l 585 108 l 582 108 q 363 1 486 1 q 140 106 226 1 q 54 357 54 210 q 141 610 54 506 q 365 714 228 714 q 578 617 494 714 l 581 617 l 578 697 l 825 697 l 825 49 q 722 -242 825 -143 q 436 -342 618 -342 m 444 193 q 548 238 508 193 q 588 351 588 282 q 548 465 588 419 q 446 510 508 510 q 344 465 383 510 q 304 353 304 421 q 342 238 304 282 q 444 193 379 193 z "},"Ģ":{"ha":1228,"x_min":72,"x_max":1156,"o":"m 626 -18 q 233 133 393 -18 q 72 519 72 285 q 234 913 72 760 q 635 1067 396 1067 q 902 1006 781 1067 q 1104 826 1024 946 l 878 708 q 638 836 785 836 q 422 745 507 836 q 338 518 338 654 q 424 294 338 385 q 629 203 510 203 q 790 253 725 203 q 868 383 856 304 l 868 385 l 649 385 l 649 582 l 1156 582 l 1156 538 q 1013 132 1156 282 q 626 -18 871 -18 m 757 -94 l 610 -325 l 444 -299 l 551 -62 l 757 -94 z "},"ģ":{"ha":922,"x_min":54,"x_max":825,"o":"m 636 1067 l 522 804 l 321 838 l 471 1093 l 636 1067 m 436 -342 q 175 -272 274 -342 q 63 -62 76 -201 l 281 -56 q 429 -164 303 -164 q 585 11 585 -164 l 585 108 l 582 108 q 363 1 486 1 q 140 106 226 1 q 54 357 54 210 q 141 610 54 506 q 365 714 228 714 q 578 617 494 714 l 581 617 l 578 697 l 825 697 l 825 49 q 722 -242 825 -143 q 436 -342 618 -342 m 444 193 q 548 238 508 193 q 588 351 588 282 q 548 465 588 419 q 446 510 508 510 q 344 465 383 510 q 304 353 304 421 q 342 238 304 282 q 444 193 379 193 z "},"Ĥ":{"ha":1101,"x_min":119,"x_max":982,"o":"m 550 1225 l 374 1132 l 274 1253 l 550 1435 l 828 1253 l 728 1132 l 550 1225 m 376 0 l 119 0 l 119 1047 l 376 1047 l 376 664 l 725 664 l 725 1047 l 982 1047 l 982 0 l 725 0 l 725 429 l 376 429 l 376 0 z "},"ĥ":{"ha":893,"x_min":99,"x_max":801,"o":"m 457 1249 l 281 1156 l 181 1276 l 457 1458 l 735 1276 l 635 1156 l 457 1249 m 349 0 l 99 0 l 99 1133 l 349 1133 l 349 772 q 343 604 349 699 l 347 604 q 441 688 392 660 q 561 715 490 715 q 742 638 682 715 q 801 429 801 560 l 801 0 l 551 0 l 551 365 q 531 472 551 438 q 460 506 511 506 q 375 465 401 506 q 349 339 349 425 l 349 0 z "},"Ħ":{"ha":1101,"x_min":39,"x_max":1063,"o":"m 982 917 l 1063 917 l 1063 775 l 982 775 l 982 0 l 725 0 l 725 429 l 376 429 l 376 0 l 119 0 l 119 775 l 39 775 l 39 917 l 119 917 l 119 1047 l 376 1047 l 376 917 l 725 917 l 725 1047 l 982 1047 l 982 917 m 376 644 l 725 644 l 725 775 l 376 775 l 376 644 z "},"ħ":{"ha":893,"x_min":0,"x_max":801,"o":"m 561 715 q 742 638 682 715 q 801 429 801 560 l 801 0 l 551 0 l 551 365 q 531 472 551 438 q 460 506 511 506 q 375 465 401 506 q 349 339 349 425 l 349 0 l 99 0 l 99 867 l 0 867 l 0 981 l 99 981 l 99 1133 l 349 1133 l 349 981 l 526 981 l 526 867 l 349 867 l 349 772 q 346 677 349 743 q 343 604 343 611 l 346 604 q 561 715 436 715 z "},"Ĩ":{"ha":496,"x_min":-53,"x_max":553,"o":"m 354 1122 q 239 1162 317 1122 q 139 1201 161 1201 q 60 1128 99 1201 l -53 1214 q 149 1368 36 1368 q 258 1328 188 1368 q 353 1288 329 1288 q 435 1364 394 1288 l 553 1286 q 354 1122 475 1122 m 376 0 l 119 0 l 119 1047 l 376 1047 l 376 0 z "},"ĩ":{"ha":447,"x_min":-78,"x_max":528,"o":"m 328 792 q 214 831 292 792 q 114 871 136 871 q 35 797 74 871 l -78 883 q 124 1038 11 1038 q 233 997 163 1038 q 328 957 304 957 q 410 1033 369 957 l 528 956 q 328 792 449 792 m 349 0 l 99 0 l 99 697 l 349 697 l 349 0 z "},"Ī":{"ha":496,"x_min":21,"x_max":476,"o":"m 476 1154 l 21 1154 l 21 1293 l 476 1293 l 476 1154 m 376 0 l 119 0 l 119 1047 l 376 1047 l 376 0 z "},"ī":{"ha":447,"x_min":-15,"x_max":465,"o":"m 465 842 l -15 842 l -15 1000 l 465 1000 l 465 842 m 349 0 l 99 0 l 99 697 l 349 697 l 349 0 z "},"Ĭ":{"ha":496,"x_min":-22,"x_max":521,"o":"m 438 1207 q 401 1172 438 1207 q 247 1138 364 1138 q 58 1204 131 1138 q -22 1385 -14 1271 l 135 1385 q 249 1289 151 1289 q 364 1385 344 1289 l 521 1385 q 438 1207 513 1276 m 376 0 l 119 0 l 119 1047 l 376 1047 l 376 0 z "},"ĭ":{"ha":447,"x_min":-46,"x_max":497,"o":"m 415 854 q 377 819 415 854 q 224 785 340 785 q 35 851 107 785 q -46 1032 -37 918 l 111 1032 q 225 936 129 936 q 340 1032 321 936 l 497 1032 q 415 854 489 924 m 349 0 l 99 0 l 99 697 l 349 697 l 349 0 z "},"Į":{"ha":496,"x_min":57,"x_max":401,"o":"m 356 -135 l 401 -261 q 238 -300 324 -300 q 110 -261 164 -300 q 57 -154 57 -222 q 161 0 57 -58 l 119 0 l 119 1047 l 376 1047 l 376 0 l 332 0 q 229 -108 229 -57 q 243 -140 229 -128 q 282 -153 257 -153 q 356 -135 317 -153 z "},"į":{"ha":446,"x_min":32,"x_max":376,"o":"m 326 867 q 305 849 326 867 q 222 831 283 831 q 119 867 161 831 q 76 965 76 903 q 118 1061 76 1024 q 222 1099 160 1099 q 326 1061 285 1099 q 368 965 368 1024 q 326 867 368 903 m 331 -135 l 376 -261 q 213 -300 299 -300 q 85 -261 139 -300 q 32 -154 32 -222 q 136 0 32 -58 l 97 0 l 97 697 l 347 697 l 347 0 l 307 0 q 204 -108 204 -57 q 218 -140 204 -128 q 257 -153 232 -153 q 331 -135 292 -153 z "},"İ":{"ha":496,"x_min":103,"x_max":394,"o":"m 352 1192 q 331 1174 352 1192 q 249 1156 310 1156 q 145 1192 188 1156 q 103 1290 103 1229 q 144 1386 103 1349 q 249 1424 186 1424 q 353 1386 311 1424 q 394 1290 394 1349 q 352 1192 394 1229 m 376 0 l 119 0 l 119 1047 l 376 1047 l 376 0 z "},"ı":{"ha":447,"x_min":99,"x_max":349,"o":"m 349 0 l 99 0 l 99 697 l 349 697 l 349 0 z "},"Ĳ":{"ha":1163,"x_min":119,"x_max":1054,"o":"m 376 0 l 119 0 l 119 1047 l 376 1047 l 376 0 m 747 -18 q 489 78 597 -18 l 597 281 q 708 221 654 221 q 776 258 757 221 q 794 369 794 296 l 794 1047 l 1054 1047 l 1054 340 q 974 74 1054 165 q 747 -18 894 -18 z "},"ĳ":{"ha":890,"x_min":76,"x_max":814,"o":"m 326 867 q 305 849 326 867 q 222 831 283 831 q 119 867 161 831 q 76 965 76 903 q 118 1061 76 1024 q 222 1099 160 1099 q 326 1061 285 1099 q 368 965 368 1024 q 326 867 368 903 m 772 867 q 750 849 772 867 q 668 831 729 831 q 565 867 607 831 q 522 965 522 903 q 564 1061 522 1024 q 668 1099 606 1099 q 772 1061 731 1099 q 814 965 814 1024 q 772 867 814 903 m 347 0 l 97 0 l 97 697 l 347 697 l 347 0 m 793 -333 l 543 -333 l 543 697 l 793 697 l 793 -333 z "},"Ĵ":{"ha":667,"x_min":-7,"x_max":699,"o":"m 421 1225 l 244 1132 l 144 1253 l 421 1435 l 699 1253 l 599 1132 l 421 1225 m 251 -18 q -7 78 101 -18 l 101 281 q 213 221 158 221 q 280 258 261 221 q 299 369 299 296 l 299 1047 l 558 1047 l 558 340 q 478 74 558 165 q 251 -18 399 -18 z "},"ĵ":{"ha":447,"x_min":-54,"x_max":500,"o":"m 222 883 l 46 775 l -54 897 l 222 1094 l 500 897 l 400 775 l 222 883 m 349 -333 l 99 -333 l 99 697 l 349 697 l 349 -333 z "},"Ķ":{"ha":1036,"x_min":119,"x_max":1031,"o":"m 1013 1047 l 614 556 l 1031 0 l 710 0 l 396 467 l 375 457 l 378 0 l 119 0 l 119 1047 l 378 1047 l 375 613 l 706 1047 l 1013 1047 m 533 -325 l 368 -299 l 475 -62 l 681 -94 l 533 -325 z "},"ķ":{"ha":860,"x_min":99,"x_max":856,"o":"m 374 276 l 349 263 l 349 0 l 99 0 l 99 1133 l 349 1133 l 349 446 l 543 697 l 838 697 l 558 383 l 856 0 l 557 0 l 374 276 m 435 -325 l 269 -299 l 376 -62 l 582 -94 l 435 -325 z "},"ĸ":{"ha":860,"x_min":99,"x_max":856,"o":"m 553 378 l 856 0 l 557 0 l 371 275 l 349 263 l 349 0 l 99 0 l 99 697 l 349 697 l 349 446 l 549 697 l 838 697 l 553 378 z "},"Ĺ":{"ha":714,"x_min":119,"x_max":690,"o":"m 568 1324 l 300 1124 l 172 1201 l 381 1450 l 568 1324 m 690 0 l 119 0 l 119 1047 l 376 1047 l 376 238 l 690 238 l 690 0 z "},"ĺ":{"ha":447,"x_min":39,"x_max":435,"o":"m 435 1410 l 167 1210 l 39 1288 l 247 1536 l 435 1410 m 349 0 l 99 0 l 99 1133 l 349 1133 l 349 0 z "},"Ļ":{"ha":714,"x_min":119,"x_max":690,"o":"m 690 0 l 119 0 l 119 1047 l 376 1047 l 376 238 l 690 238 l 690 0 m 549 -94 l 401 -325 l 236 -299 l 343 -62 l 549 -94 z "},"ļ":{"ha":447,"x_min":43,"x_max":356,"o":"m 349 0 l 99 0 l 99 1133 l 349 1133 l 349 0 m 356 -94 l 208 -325 l 43 -299 l 150 -62 l 356 -94 z "},"Ľ":{"ha":714,"x_min":119,"x_max":726,"o":"m 690 0 l 119 0 l 119 1047 l 376 1047 l 376 238 l 690 238 l 690 0 m 726 978 l 583 717 l 450 760 l 536 1046 l 726 978 z "},"ľ":{"ha":447,"x_min":99,"x_max":661,"o":"m 349 0 l 99 0 l 99 1133 l 349 1133 l 349 0 m 661 1054 l 518 793 l 385 836 l 471 1122 l 661 1054 z "},"Ŀ":{"ha":714,"x_min":119,"x_max":725,"o":"m 690 0 l 119 0 l 119 1047 l 376 1047 l 376 238 l 690 238 l 690 0 m 689 506 q 671 488 689 506 q 599 469 653 469 q 508 507 544 469 q 472 596 472 544 q 510 685 472 649 q 599 722 547 722 q 688 685 651 722 q 725 596 725 649 q 689 506 725 543 z "},"ŀ":{"ha":653,"x_min":99,"x_max":683,"o":"m 349 0 l 99 0 l 99 1133 l 349 1133 l 349 0 m 547 439 q 451 479 490 439 q 413 574 413 519 q 453 670 413 631 q 547 710 493 710 q 643 669 603 710 q 683 574 683 629 q 643 478 683 518 q 547 439 603 439 z "},"Ł":{"ha":714,"x_min":21,"x_max":690,"o":"m 376 499 l 376 238 l 690 238 l 690 0 l 119 0 l 119 332 l 21 258 l 21 449 l 119 522 l 119 1047 l 376 1047 l 376 690 l 379 692 l 518 793 l 518 603 l 378 500 l 376 499 z "},"ł":{"ha":464,"x_min":11,"x_max":453,"o":"m 357 726 l 453 800 l 453 643 l 357 571 l 357 0 l 107 0 l 107 406 l 11 333 l 11 489 l 107 561 l 107 1133 l 357 1133 l 357 726 z "},"Ń":{"ha":1222,"x_min":119,"x_max":1101,"o":"m 642 1450 l 829 1324 l 561 1124 l 433 1201 l 642 1450 m 858 392 l 850 1047 l 1101 1047 l 1101 0 l 893 0 l 368 660 l 372 0 l 119 0 l 119 1047 l 333 1047 l 858 392 z "},"ń":{"ha":893,"x_min":99,"x_max":801,"o":"m 686 988 l 428 775 l 299 850 l 496 1108 l 686 988 m 349 0 l 99 0 l 99 697 l 344 697 l 340 604 l 343 604 q 440 688 390 660 q 561 715 489 715 q 742 638 682 715 q 801 429 801 560 l 801 0 l 551 0 l 551 365 q 531 472 551 438 q 460 506 511 506 q 349 342 349 506 l 349 0 z "},"Ņ":{"ha":1222,"x_min":119,"x_max":1101,"o":"m 858 392 l 850 1047 l 1101 1047 l 1101 0 l 893 0 l 368 660 l 372 0 l 119 0 l 119 1047 l 333 1047 l 858 392 m 607 -325 l 442 -299 l 549 -62 l 754 -94 l 607 -325 z "},"ņ":{"ha":893,"x_min":99,"x_max":801,"o":"m 349 0 l 99 0 l 99 697 l 344 697 l 340 604 l 343 604 q 440 688 390 660 q 561 715 489 715 q 742 638 682 715 q 801 429 801 560 l 801 0 l 551 0 l 551 365 q 531 472 551 438 q 460 506 511 506 q 349 342 349 506 l 349 0 m 590 -94 l 443 -325 l 278 -299 l 385 -62 l 590 -94 z "},"Ň":{"ha":1222,"x_min":119,"x_max":1101,"o":"m 794 1440 l 894 1318 l 618 1129 l 340 1318 l 440 1440 l 618 1339 l 794 1440 m 858 392 l 850 1047 l 1101 1047 l 1101 0 l 893 0 l 368 660 l 372 0 l 119 0 l 119 1047 l 333 1047 l 858 392 z "},"ň":{"ha":893,"x_min":99,"x_max":801,"o":"m 724 972 l 447 775 l 169 972 l 269 1094 l 447 986 l 624 1094 l 724 972 m 349 0 l 99 0 l 99 697 l 344 697 l 340 604 l 343 604 q 440 688 390 660 q 561 715 489 715 q 742 638 682 715 q 801 429 801 560 l 801 0 l 551 0 l 551 365 q 531 472 551 438 q 460 506 511 506 q 349 342 349 506 l 349 0 z "},"ŉ":{"ha":1082,"x_min":-86,"x_max":990,"o":"m 319 1043 l 100 593 l -86 617 l 78 1071 l 319 1043 m 536 0 l 286 0 l 286 697 l 532 697 l 529 604 l 532 604 q 627 688 578 660 q 749 715 676 715 q 930 638 869 715 q 990 429 990 560 l 990 0 l 740 0 l 740 365 q 719 472 740 438 q 647 506 699 506 q 536 342 536 506 l 536 0 z "},"Ŋ":{"ha":1222,"x_min":119,"x_max":1101,"o":"m 858 397 l 850 1047 l 1101 1047 l 1101 26 q 1019 -263 1101 -164 q 783 -362 936 -362 q 569 -300 664 -362 l 654 -100 q 746 -131 700 -131 q 822 -94 800 -131 q 843 28 843 -57 l 843 68 l 368 658 l 372 0 l 119 0 l 119 1047 l 332 1047 l 858 397 z "},"ŋ":{"ha":893,"x_min":99,"x_max":801,"o":"m 544 -346 q 407 -325 474 -346 l 407 -129 q 481 -151 447 -151 q 535 -126 519 -151 q 551 -39 551 -100 l 551 365 q 531 472 551 438 q 460 506 511 506 q 349 342 349 506 l 349 0 l 99 0 l 99 697 l 344 697 l 340 604 l 343 604 q 440 688 390 660 q 561 715 489 715 q 742 638 682 715 q 801 429 801 560 l 801 -76 q 544 -346 801 -346 z "},"Ō":{"ha":1269,"x_min":72,"x_max":1197,"o":"m 863 1154 l 407 1154 l 407 1293 l 863 1293 l 863 1154 m 632 -18 q 353 49 481 -18 q 149 241 226 115 q 72 525 72 367 q 238 910 72 754 q 636 1065 403 1065 q 1033 910 869 1065 q 1197 522 1197 754 q 1033 135 1197 288 q 632 -18 868 -18 m 632 219 q 846 306 760 219 q 932 522 932 392 q 847 740 932 651 q 635 828 763 828 q 424 740 510 828 q 338 524 338 651 q 424 306 338 392 q 632 219 510 219 z "},"ō":{"ha":918,"x_min":60,"x_max":858,"o":"m 700 842 l 219 842 l 219 1000 l 700 1000 l 700 842 m 457 -18 q 172 82 283 -18 q 60 351 60 182 q 172 615 60 514 q 458 715 285 715 q 745 615 632 715 q 858 349 858 514 q 745 81 858 181 q 457 -18 632 -18 m 349 232 q 370 210 349 232 q 458 188 390 188 q 568 232 526 188 q 610 349 610 276 q 568 464 610 419 q 458 508 526 508 q 350 464 392 508 q 308 350 308 419 q 349 232 308 276 z "},"Ŏ":{"ha":1269,"x_min":72,"x_max":1197,"o":"m 824 1207 q 787 1172 824 1207 q 633 1138 750 1138 q 444 1204 517 1138 q 364 1385 372 1271 l 521 1385 q 635 1289 538 1289 q 750 1385 731 1289 l 907 1385 q 824 1207 899 1276 m 632 -18 q 353 49 481 -18 q 149 241 226 115 q 72 525 72 367 q 238 910 72 754 q 636 1065 403 1065 q 1033 910 869 1065 q 1197 522 1197 754 q 1033 135 1197 288 q 632 -18 868 -18 m 632 219 q 846 306 760 219 q 932 522 932 392 q 847 740 932 651 q 635 828 763 828 q 424 740 510 828 q 338 524 338 651 q 424 306 338 392 q 632 219 510 219 z "},"ŏ":{"ha":918,"x_min":60,"x_max":858,"o":"m 648 854 q 611 819 648 854 q 457 785 574 785 q 268 851 340 785 q 188 1032 196 918 l 344 1032 q 458 936 363 936 q 574 1032 554 936 l 731 1032 q 648 854 722 924 m 457 -18 q 172 82 283 -18 q 60 351 60 182 q 172 615 60 514 q 458 715 285 715 q 745 615 632 715 q 858 349 858 514 q 745 81 858 181 q 457 -18 632 -18 m 349 232 q 370 210 349 232 q 458 188 390 188 q 568 232 526 188 q 610 349 610 276 q 568 464 610 419 q 458 508 526 508 q 350 464 392 508 q 308 350 308 419 q 349 232 308 276 z "},"Ő":{"ha":1269,"x_min":72,"x_max":1197,"o":"m 703 1403 l 554 1142 l 415 1169 l 500 1433 l 703 1403 m 996 1403 l 833 1142 l 696 1169 l 793 1433 l 996 1403 m 632 -18 q 353 49 481 -18 q 149 241 226 115 q 72 525 72 367 q 238 910 72 754 q 636 1065 403 1065 q 1033 910 869 1065 q 1197 522 1197 754 q 1033 135 1197 288 q 632 -18 868 -18 m 632 219 q 846 306 760 219 q 932 522 932 392 q 847 740 932 651 q 635 828 763 828 q 424 740 510 828 q 338 524 338 651 q 424 306 338 392 q 632 219 510 219 z "},"ő":{"ha":918,"x_min":60,"x_max":858,"o":"m 511 1049 l 361 774 l 224 803 l 307 1082 l 511 1049 m 804 1049 l 640 774 l 503 803 l 601 1082 l 804 1049 m 457 -18 q 172 82 283 -18 q 60 351 60 182 q 172 615 60 514 q 458 715 285 715 q 745 615 632 715 q 858 349 858 514 q 745 81 858 181 q 457 -18 632 -18 m 349 232 q 370 210 349 232 q 458 188 390 188 q 568 232 526 188 q 610 349 610 276 q 568 464 610 419 q 458 508 526 508 q 350 464 392 508 q 308 350 308 419 q 349 232 308 276 z "},"Œ":{"ha":1690,"x_min":72,"x_max":1581,"o":"m 1194 449 l 1194 214 l 1581 214 l 1581 0 l 940 0 l 940 135 q 599 -18 807 -18 q 226 135 381 -18 q 72 525 72 288 q 228 910 72 754 q 603 1065 383 1065 q 940 908 806 1065 l 940 1047 l 1575 1047 l 1575 833 l 1194 833 l 1194 656 l 1556 656 l 1556 449 l 1194 449 m 424 306 q 467 263 424 306 q 632 219 510 219 q 837 306 754 219 q 919 521 919 392 q 838 740 919 651 q 635 828 757 828 q 424 740 510 828 q 338 524 338 651 q 424 306 338 392 z "},"œ":{"ha":1413,"x_min":60,"x_max":1353,"o":"m 1353 336 q 1351 301 1353 313 l 856 301 q 892 189 858 231 q 986 147 925 147 q 1113 233 1063 147 l 1340 193 q 1200 35 1296 88 q 986 -18 1104 -18 q 717 92 815 -18 q 444 -18 614 -18 q 170 83 281 -18 q 60 351 60 183 q 171 614 60 513 q 446 715 282 715 q 718 600 615 715 q 985 715 818 715 q 1252 615 1151 715 q 1353 336 1353 514 m 861 439 l 1103 439 q 1064 520 1096 490 q 982 550 1032 550 q 901 519 932 550 q 861 439 869 489 m 349 232 q 370 210 349 232 q 458 188 390 188 q 568 232 526 188 q 610 349 610 276 q 568 464 610 419 q 458 508 526 508 q 350 464 392 508 q 308 350 308 419 q 349 232 308 276 z "},"Ŕ":{"ha":953,"x_min":119,"x_max":942,"o":"m 513 1450 l 700 1324 l 432 1124 l 304 1201 l 513 1450 m 643 417 l 942 0 l 633 0 l 401 385 l 376 385 l 376 0 l 119 0 l 119 1047 l 435 1047 q 739 965 625 1047 q 853 714 853 883 q 643 417 853 511 m 422 833 l 376 833 l 376 575 l 418 575 q 596 706 596 575 q 552 803 596 774 q 422 833 508 833 z "},"ŕ":{"ha":619,"x_min":99,"x_max":614,"o":"m 589 988 l 331 775 l 201 850 l 399 1108 l 589 988 m 349 0 l 99 0 l 99 697 l 349 697 l 344 619 l 350 619 q 433 694 392 672 q 536 715 474 715 q 614 693 572 715 l 578 449 q 476 483 524 483 q 349 315 349 483 l 349 0 z "},"Ŗ":{"ha":953,"x_min":119,"x_max":942,"o":"m 643 417 l 942 0 l 633 0 l 401 385 l 376 385 l 376 0 l 119 0 l 119 1047 l 435 1047 q 739 965 625 1047 q 853 714 853 883 q 643 417 853 511 m 422 833 l 376 833 l 376 575 l 418 575 q 596 706 596 575 q 552 803 596 774 q 422 833 508 833 m 485 -325 l 319 -299 l 426 -62 l 632 -94 l 485 -325 z "},"ŗ":{"ha":619,"x_min":49,"x_max":614,"o":"m 349 0 l 99 0 l 99 697 l 349 697 l 344 619 l 350 619 q 433 694 392 672 q 536 715 474 715 q 614 693 572 715 l 578 449 q 476 483 524 483 q 349 315 349 483 l 349 0 m 361 -94 l 214 -325 l 49 -299 l 156 -62 l 361 -94 z "},"Ř":{"ha":953,"x_min":119,"x_max":942,"o":"m 665 1440 l 765 1318 l 489 1129 l 211 1318 l 311 1440 l 489 1339 l 665 1440 m 643 417 l 942 0 l 633 0 l 401 385 l 376 385 l 376 0 l 119 0 l 119 1047 l 435 1047 q 739 965 625 1047 q 853 714 853 883 q 643 417 853 511 m 422 833 l 376 833 l 376 575 l 418 575 q 596 706 596 575 q 552 803 596 774 q 422 833 508 833 z "},"ř":{"ha":619,"x_min":74,"x_max":628,"o":"m 628 972 l 351 775 l 74 972 l 174 1094 l 351 986 l 528 1094 l 628 972 m 349 0 l 99 0 l 99 697 l 349 697 l 344 619 l 350 619 q 433 694 392 672 q 536 715 474 715 q 614 693 572 715 l 578 449 q 476 483 524 483 q 349 315 349 483 l 349 0 z "},"Ś":{"ha":893,"x_min":63,"x_max":818,"o":"m 664 1324 l 396 1124 l 268 1201 l 476 1450 l 664 1324 m 449 -18 q 218 34 317 -18 q 63 175 119 86 l 201 329 q 432 193 297 193 q 522 222 489 193 q 554 299 554 250 q 519 375 554 344 q 394 443 485 406 q 182 567 253 499 q 111 756 111 635 q 211 979 111 892 q 465 1067 311 1067 q 797 926 671 1067 l 664 763 q 483 854 593 854 q 404 831 435 854 q 374 768 374 807 q 410 706 374 732 q 544 640 447 681 q 751 511 685 586 q 818 308 818 436 q 715 72 818 161 q 449 -18 611 -18 z "},"ś":{"ha":679,"x_min":50,"x_max":624,"o":"m 596 988 l 338 775 l 208 850 l 406 1108 l 596 988 m 335 -19 q 50 94 156 -19 l 161 243 q 319 164 233 164 q 385 210 385 164 q 363 247 385 232 q 279 285 342 261 q 135 364 183 315 q 86 494 86 413 q 165 658 86 601 q 361 715 243 715 q 601 636 518 715 l 501 486 q 375 539 449 539 q 317 501 317 539 q 340 469 317 483 q 433 431 364 456 q 577 353 531 401 q 624 219 624 306 q 544 45 624 110 q 335 -19 464 -19 z "},"Ŝ":{"ha":893,"x_min":63,"x_max":818,"o":"m 453 1225 l 276 1132 l 176 1253 l 453 1435 l 731 1253 l 631 1132 l 453 1225 m 449 -18 q 218 34 317 -18 q 63 175 119 86 l 201 329 q 432 193 297 193 q 522 222 489 193 q 554 299 554 250 q 519 375 554 344 q 394 443 485 406 q 182 567 253 499 q 111 756 111 635 q 211 979 111 892 q 465 1067 311 1067 q 797 926 671 1067 l 664 763 q 483 854 593 854 q 404 831 435 854 q 374 768 374 807 q 410 706 374 732 q 544 640 447 681 q 751 511 685 586 q 818 308 818 436 q 715 72 818 161 q 449 -18 611 -18 z "},"ŝ":{"ha":679,"x_min":50,"x_max":633,"o":"m 356 883 l 179 775 l 79 897 l 356 1094 l 633 897 l 533 775 l 356 883 m 335 -19 q 50 94 156 -19 l 161 243 q 319 164 233 164 q 385 210 385 164 q 363 247 385 232 q 279 285 342 261 q 135 364 183 315 q 86 494 86 413 q 165 658 86 601 q 361 715 243 715 q 601 636 518 715 l 501 486 q 375 539 449 539 q 317 501 317 539 q 340 469 317 483 q 433 431 364 456 q 577 353 531 401 q 624 219 624 306 q 544 45 624 110 q 335 -19 464 -19 z "},"Ş":{"ha":893,"x_min":63,"x_max":818,"o":"m 449 -18 q 218 34 317 -18 q 63 175 119 86 l 201 329 q 432 193 297 193 q 522 222 489 193 q 554 299 554 250 q 519 375 554 344 q 394 443 485 406 q 182 567 253 499 q 111 756 111 635 q 211 979 111 892 q 465 1067 311 1067 q 797 926 671 1067 l 664 763 q 483 854 593 854 q 404 831 435 854 q 374 768 374 807 q 410 706 374 732 q 544 640 447 681 q 751 511 685 586 q 818 308 818 436 q 715 72 818 161 q 449 -18 611 -18 m 571 -122 l 385 -315 l 274 -246 l 428 -25 l 571 -122 z "},"ş":{"ha":679,"x_min":50,"x_max":624,"o":"m 335 -19 q 50 94 156 -19 l 161 243 q 319 164 233 164 q 385 210 385 164 q 363 247 385 232 q 279 285 342 261 q 135 364 183 315 q 86 494 86 413 q 165 658 86 601 q 361 715 243 715 q 601 636 518 715 l 501 486 q 375 539 449 539 q 317 501 317 539 q 340 469 317 483 q 433 431 364 456 q 577 353 531 401 q 624 219 624 306 q 544 45 624 110 q 335 -19 464 -19 m 460 -122 l 274 -315 l 163 -246 l 317 -25 l 460 -122 z "},"Š":{"ha":893,"x_min":63,"x_max":818,"o":"m 731 1318 l 454 1129 l 176 1318 l 276 1440 l 454 1339 l 631 1440 l 731 1318 m 449 -18 q 218 34 317 -18 q 63 175 119 86 l 201 329 q 432 193 297 193 q 522 222 489 193 q 554 299 554 250 q 519 375 554 344 q 394 443 485 406 q 182 567 253 499 q 111 756 111 635 q 211 979 111 892 q 465 1067 311 1067 q 797 926 671 1067 l 664 763 q 483 854 593 854 q 404 831 435 854 q 374 768 374 807 q 410 706 374 732 q 544 640 447 681 q 751 511 685 586 q 818 308 818 436 q 715 72 818 161 q 449 -18 611 -18 z "},"š":{"ha":679,"x_min":50,"x_max":633,"o":"m 633 972 l 357 775 l 79 972 l 179 1094 l 357 986 l 533 1094 l 633 972 m 335 -19 q 50 94 156 -19 l 161 243 q 319 164 233 164 q 385 210 385 164 q 363 247 385 232 q 279 285 342 261 q 135 364 183 315 q 86 494 86 413 q 165 658 86 601 q 361 715 243 715 q 601 636 518 715 l 501 486 q 375 539 449 539 q 317 501 317 539 q 340 469 317 483 q 433 431 364 456 q 577 353 531 401 q 624 219 624 306 q 544 45 624 110 q 335 -19 464 -19 z "},"Ţ":{"ha":749,"x_min":17,"x_max":732,"o":"m 506 0 l 243 0 l 243 810 l 17 810 l 17 1047 l 732 1047 l 732 810 l 506 810 l 506 0 m 479 -122 l 293 -315 l 182 -246 l 336 -25 l 479 -122 z "},"ţ":{"ha":522,"x_min":19,"x_max":503,"o":"m 382 0 l 132 0 l 132 486 l 19 486 l 19 697 l 132 697 l 132 938 l 382 938 l 382 697 l 503 697 l 503 486 l 382 486 l 382 0 m 363 -122 l 176 -315 l 65 -246 l 219 -25 l 363 -122 z "},"Ť":{"ha":749,"x_min":17,"x_max":732,"o":"m 651 1318 l 375 1129 l 97 1318 l 197 1440 l 375 1339 l 551 1440 l 651 1318 m 506 0 l 243 0 l 243 810 l 17 810 l 17 1047 l 732 1047 l 732 810 l 506 810 l 506 0 z "},"ť":{"ha":522,"x_min":19,"x_max":704,"o":"m 704 1053 l 561 792 l 428 835 l 514 1121 l 704 1053 m 382 0 l 132 0 l 132 486 l 19 486 l 19 697 l 132 697 l 132 938 l 382 938 l 382 697 l 503 697 l 503 486 l 382 486 l 382 0 z "},"Ŧ":{"ha":749,"x_min":18,"x_max":733,"o":"m 733 1047 l 733 810 l 507 810 l 507 567 l 643 567 l 643 425 l 507 425 l 507 0 l 244 0 l 244 425 l 107 425 l 107 567 l 244 567 l 244 810 l 18 810 l 18 1047 l 733 1047 z "},"ŧ":{"ha":522,"x_min":19,"x_max":503,"o":"m 503 697 l 503 486 l 382 486 l 382 354 l 464 354 l 464 240 l 382 240 l 382 0 l 132 0 l 132 240 l 50 240 l 50 354 l 132 354 l 132 486 l 19 486 l 19 697 l 132 697 l 132 938 l 382 938 l 382 697 l 503 697 z "},"Ũ":{"ha":1083,"x_min":108,"x_max":975,"o":"m 649 1122 q 533 1162 611 1122 q 433 1201 456 1201 q 354 1128 393 1201 l 242 1214 q 443 1368 331 1368 q 553 1328 482 1368 q 647 1288 624 1288 q 729 1364 689 1288 l 847 1286 q 649 1122 769 1122 m 856 90 q 796 36 856 90 q 542 -18 736 -18 q 228 90 347 -18 q 108 399 108 197 l 108 1047 l 372 1047 l 372 426 q 542 214 372 214 q 713 429 713 214 l 713 1047 l 975 1047 l 975 399 q 856 90 975 197 z "},"ũ":{"ha":875,"x_min":92,"x_max":783,"o":"m 540 792 q 426 831 504 792 q 326 871 349 871 q 247 797 286 871 l 135 883 q 336 1038 224 1038 q 446 997 375 1038 q 540 957 517 957 q 622 1033 582 957 l 740 956 q 540 792 661 792 m 438 -18 q 185 61 278 -18 q 92 299 92 140 l 92 697 l 340 697 l 340 318 q 363 222 340 254 q 438 189 385 189 q 535 318 535 189 l 535 697 l 783 697 l 783 299 q 691 63 783 144 q 438 -18 599 -18 z "},"Ū":{"ha":1083,"x_min":108,"x_max":975,"o":"m 771 1154 l 315 1154 l 315 1293 l 771 1293 l 771 1154 m 856 90 q 796 36 856 90 q 542 -18 736 -18 q 228 90 347 -18 q 108 399 108 197 l 108 1047 l 372 1047 l 372 426 q 542 214 372 214 q 713 429 713 214 l 713 1047 l 975 1047 l 975 399 q 856 90 975 197 z "},"ū":{"ha":875,"x_min":92,"x_max":783,"o":"m 678 842 l 197 842 l 197 1000 l 678 1000 l 678 842 m 438 -18 q 185 61 278 -18 q 92 299 92 140 l 92 697 l 340 697 l 340 318 q 363 222 340 254 q 438 189 385 189 q 535 318 535 189 l 535 697 l 783 697 l 783 299 q 691 63 783 144 q 438 -18 599 -18 z "},"Ŭ":{"ha":1083,"x_min":108,"x_max":975,"o":"m 733 1207 q 695 1172 733 1207 q 542 1138 658 1138 q 353 1204 425 1138 q 272 1385 281 1271 l 429 1385 q 543 1289 446 1289 q 658 1385 639 1289 l 815 1385 q 733 1207 807 1276 m 856 90 q 796 36 856 90 q 542 -18 736 -18 q 228 90 347 -18 q 108 399 108 197 l 108 1047 l 372 1047 l 372 426 q 542 214 372 214 q 713 429 713 214 l 713 1047 l 975 1047 l 975 399 q 856 90 975 197 z "},"ŭ":{"ha":875,"x_min":92,"x_max":783,"o":"m 627 854 q 590 819 627 854 q 436 785 553 785 q 247 851 319 785 q 167 1032 175 918 l 324 1032 q 438 936 342 936 q 553 1032 533 936 l 710 1032 q 627 854 701 924 m 438 -18 q 185 61 278 -18 q 92 299 92 140 l 92 697 l 340 697 l 340 318 q 363 222 340 254 q 438 189 385 189 q 535 318 535 189 l 535 697 l 783 697 l 783 299 q 691 63 783 144 q 438 -18 599 -18 z "},"Ů":{"ha":1083,"x_min":108,"x_max":975,"o":"m 669 1127 q 643 1105 669 1127 q 544 1083 617 1083 q 419 1128 472 1083 q 365 1244 365 1172 q 419 1361 365 1317 q 544 1406 472 1406 q 669 1361 617 1406 q 722 1244 722 1317 q 669 1127 722 1171 m 497 1197 q 507 1188 497 1197 q 544 1179 517 1179 q 592 1197 572 1179 q 611 1244 611 1215 q 592 1292 611 1274 q 544 1310 572 1310 q 497 1292 517 1310 q 476 1244 476 1274 q 497 1197 476 1215 m 856 90 q 796 36 856 90 q 542 -18 736 -18 q 228 90 347 -18 q 108 399 108 197 l 108 1047 l 372 1047 l 372 426 q 542 214 372 214 q 713 429 713 214 l 713 1047 l 975 1047 l 975 399 q 856 90 975 197 z "},"ů":{"ha":875,"x_min":92,"x_max":783,"o":"m 439 781 q 307 827 363 781 q 251 949 251 874 q 307 1072 251 1025 q 439 1119 363 1119 q 569 1072 514 1119 q 625 949 625 1025 q 569 827 625 874 q 439 781 514 781 m 439 888 q 484 905 465 888 q 503 950 503 922 q 484 995 503 978 q 439 1013 465 1013 q 392 995 411 1013 q 374 950 374 978 q 392 905 374 922 q 439 888 411 888 m 438 -18 q 185 61 278 -18 q 92 299 92 140 l 92 697 l 340 697 l 340 318 q 363 222 340 254 q 438 189 385 189 q 535 318 535 189 l 535 697 l 783 697 l 783 299 q 691 63 783 144 q 438 -18 599 -18 z "},"Ű":{"ha":1083,"x_min":108,"x_max":975,"o":"m 611 1403 l 463 1142 l 324 1169 l 408 1433 l 611 1403 m 904 1403 l 742 1142 l 604 1169 l 701 1433 l 904 1403 m 856 90 q 796 36 856 90 q 542 -18 736 -18 q 228 90 347 -18 q 108 399 108 197 l 108 1047 l 372 1047 l 372 426 q 542 214 372 214 q 713 429 713 214 l 713 1047 l 975 1047 l 975 399 q 856 90 975 197 z "},"ű":{"ha":875,"x_min":92,"x_max":783,"o":"m 490 1049 l 340 774 l 203 803 l 286 1082 l 490 1049 m 783 1049 l 619 774 l 482 803 l 581 1082 l 783 1049 m 438 -18 q 185 61 278 -18 q 92 299 92 140 l 92 697 l 340 697 l 340 318 q 363 222 340 254 q 438 189 385 189 q 535 318 535 189 l 535 697 l 783 697 l 783 299 q 691 63 783 144 q 438 -18 599 -18 z "},"Ų":{"ha":1083,"x_min":108,"x_max":975,"o":"m 713 429 l 713 1047 l 975 1047 l 975 399 q 907 150 975 249 q 719 10 839 51 q 599 -108 599 -51 q 613 -140 599 -128 q 651 -153 626 -153 q 725 -135 686 -153 l 771 -261 q 607 -300 693 -300 q 480 -261 533 -300 q 426 -154 426 -222 q 504 -17 426 -72 q 217 101 325 -6 q 108 399 108 207 l 108 1047 l 372 1047 l 372 426 q 542 214 372 214 q 713 429 713 214 z "},"ų":{"ha":875,"x_min":92,"x_max":783,"o":"m 535 318 l 535 697 l 783 697 l 783 299 q 610 13 783 85 q 504 -97 504 -43 q 518 -129 504 -117 q 557 -142 532 -142 q 631 -124 592 -142 l 676 -250 q 513 -289 599 -289 q 385 -250 439 -289 q 332 -143 332 -211 q 396 -17 332 -71 q 173 72 254 -7 q 92 299 92 151 l 92 697 l 340 697 l 340 318 q 363 222 340 254 q 438 189 385 189 q 535 318 535 189 z "},"Ŵ":{"ha":1553,"x_min":1,"x_max":1551,"o":"m 774 1225 l 597 1132 l 497 1253 l 774 1435 l 1051 1253 l 951 1132 l 774 1225 m 575 0 l 393 0 l 1 1047 l 278 1047 l 485 389 l 696 1047 l 851 1047 l 1056 389 l 1275 1047 l 1551 1047 l 1149 0 l 963 0 l 774 625 l 575 0 z "},"ŵ":{"ha":1189,"x_min":-6,"x_max":1196,"o":"m 593 883 l 417 775 l 317 897 l 593 1094 l 871 897 l 771 775 l 593 883 m 468 0 l 304 0 l -6 697 l 263 697 l 394 304 l 526 697 l 664 697 l 799 304 l 928 697 l 1196 697 l 885 0 l 722 0 l 596 354 l 468 0 z "},"Ŷ":{"ha":947,"x_min":-7,"x_max":956,"o":"m 474 1225 l 297 1132 l 197 1253 l 474 1435 l 751 1253 l 651 1132 l 474 1225 m 604 0 l 346 0 l 346 453 l -7 1047 l 292 1047 l 476 690 l 657 1047 l 956 1047 l 604 453 l 604 0 z "},"ŷ":{"ha":843,"x_min":-4,"x_max":847,"o":"m 601 775 l 424 883 l 247 775 l 147 897 l 424 1094 l 701 897 l 601 775 m 428 301 l 579 697 l 847 697 l 347 -333 l 76 -333 l 303 106 l -4 697 l 272 697 l 428 301 z "},"Ÿ":{"ha":947,"x_min":-7,"x_max":956,"o":"m 306 1156 q 217 1192 253 1156 q 182 1279 182 1228 q 218 1367 182 1331 q 306 1403 254 1403 q 392 1367 356 1403 q 428 1279 428 1331 q 392 1191 428 1226 q 306 1156 356 1156 m 643 1156 q 554 1191 590 1156 q 518 1279 518 1226 q 555 1367 518 1332 q 643 1403 592 1403 q 731 1367 694 1403 q 767 1279 767 1331 q 731 1191 767 1226 q 643 1156 694 1156 m 604 0 l 346 0 l 346 453 l -7 1047 l 292 1047 l 476 690 l 657 1047 l 956 1047 l 604 453 l 604 0 z "},"Ź":{"ha":971,"x_min":26,"x_max":938,"o":"m 728 1324 l 460 1124 l 332 1201 l 540 1450 l 728 1324 m 910 0 l 26 0 l 26 3 l 517 819 l 113 819 l 113 1047 l 938 1047 l 938 1044 l 451 232 l 910 232 l 910 0 z "},"ź":{"ha":813,"x_min":24,"x_max":774,"o":"m 657 988 l 399 775 l 269 850 l 467 1108 l 657 988 m 761 0 l 24 0 l 24 25 l 375 492 l 76 492 l 76 697 l 774 697 l 774 676 l 421 206 l 761 206 l 761 0 z "},"Ż":{"ha":971,"x_min":26,"x_max":938,"o":"m 619 1192 q 598 1174 619 1192 q 515 1156 576 1156 q 412 1192 454 1156 q 369 1290 369 1229 q 411 1386 369 1349 q 515 1424 453 1424 q 619 1386 578 1424 q 661 1290 661 1349 q 619 1192 661 1229 m 910 0 l 26 0 l 26 3 l 517 819 l 113 819 l 113 1047 l 938 1047 l 938 1044 l 451 232 l 910 232 l 910 0 z "},"ż":{"ha":813,"x_min":24,"x_max":774,"o":"m 520 867 q 499 849 520 867 q 417 831 478 831 q 313 867 356 831 q 271 965 271 903 q 313 1061 271 1024 q 417 1099 354 1099 q 521 1061 479 1099 q 563 965 563 1024 q 520 867 563 903 m 761 0 l 24 0 l 24 25 l 375 492 l 76 492 l 76 697 l 774 697 l 774 676 l 421 206 l 761 206 l 761 0 z "},"Ž":{"ha":971,"x_min":26,"x_max":938,"o":"m 793 1318 l 517 1129 l 239 1318 l 339 1440 l 517 1339 l 693 1440 l 793 1318 m 910 0 l 26 0 l 26 3 l 517 819 l 113 819 l 113 1047 l 938 1047 l 938 1044 l 451 232 l 910 232 l 910 0 z "},"ž":{"ha":813,"x_min":24,"x_max":774,"o":"m 694 972 l 418 775 l 140 972 l 240 1094 l 418 986 l 594 1094 l 694 972 m 761 0 l 24 0 l 24 25 l 375 492 l 76 492 l 76 697 l 774 697 l 774 676 l 421 206 l 761 206 l 761 0 z "},"Ə":{"ha":1260,"x_min":72,"x_max":1188,"o":"m 638 1065 q 1028 910 868 1065 q 1188 522 1188 756 q 1026 135 1188 288 q 633 -18 865 -18 q 218 150 364 -18 q 72 601 72 318 l 72 607 l 914 607 q 814 773 889 710 q 639 836 739 836 q 372 728 475 836 l 157 843 q 356 1004 229 943 q 638 1065 483 1065 m 633 200 q 807 260 732 200 q 910 419 882 321 l 351 419 q 447 259 374 318 q 633 200 519 200 z "},"ƒ":{"ha":714,"x_min":-25,"x_max":689,"o":"m 621 942 q 560 913 579 942 q 529 814 542 885 l 508 697 l 642 697 l 611 510 l 476 510 l 383 -26 q 295 -262 354 -192 q 111 -333 236 -333 q -25 -317 35 -333 l -25 -107 q 42 -121 7 -121 q 101 -92 82 -121 q 133 8 119 -64 l 221 510 l 119 510 l 149 697 l 253 697 l 279 847 q 367 1083 308 1013 q 551 1154 426 1154 q 689 1139 622 1154 l 689 928 q 621 942 660 942 z "},"Ǵ":{"ha":1228,"x_min":72,"x_max":1156,"o":"m 825 1324 l 557 1124 l 429 1201 l 638 1450 l 825 1324 m 626 -18 q 233 133 393 -18 q 72 519 72 285 q 234 913 72 760 q 635 1067 396 1067 q 902 1006 781 1067 q 1104 826 1024 946 l 878 708 q 638 836 785 836 q 422 745 507 836 q 338 518 338 654 q 424 294 338 385 q 629 203 510 203 q 790 253 725 203 q 868 383 856 304 l 868 385 l 649 385 l 649 582 l 1156 582 l 1156 538 q 1013 132 1156 282 q 626 -18 871 -18 z "},"ǵ":{"ha":922,"x_min":54,"x_max":825,"o":"m 688 988 l 429 775 l 300 850 l 497 1108 l 688 988 m 436 -342 q 175 -272 274 -342 q 63 -62 76 -201 l 281 -56 q 429 -164 303 -164 q 585 11 585 -164 l 585 108 l 582 108 q 363 1 486 1 q 140 106 226 1 q 54 357 54 210 q 141 610 54 506 q 365 714 228 714 q 578 617 494 714 l 581 617 l 578 697 l 825 697 l 825 49 q 722 -242 825 -143 q 436 -342 618 -342 m 444 193 q 548 238 508 193 q 588 351 588 282 q 548 465 588 419 q 446 510 508 510 q 344 465 383 510 q 304 353 304 421 q 342 238 304 282 q 444 193 379 193 z "},"Ǻ":{"ha":1076,"x_min":-4,"x_max":1081,"o":"m 569 1735 l 757 1608 l 489 1408 l 361 1486 l 569 1735 m 417 1128 q 391 1150 417 1128 q 364 1244 364 1172 q 417 1361 364 1317 q 543 1406 471 1406 q 668 1361 615 1406 q 721 1244 721 1317 q 668 1127 721 1171 q 543 1083 615 1083 q 417 1128 471 1083 m 590 1197 q 600 1206 590 1197 q 610 1244 610 1215 q 590 1292 610 1274 q 543 1310 571 1310 q 495 1292 515 1310 q 475 1244 475 1274 q 495 1197 475 1215 q 543 1179 515 1179 q 590 1197 571 1179 m 1081 0 l 794 0 l 726 199 l 343 199 l 271 0 l -4 0 l 425 1047 l 657 1047 l 1081 0 m 469 546 l 414 394 l 658 394 l 607 544 q 540 750 569 656 q 469 546 507 647 z "},"ǻ":{"ha":950,"x_min":60,"x_max":851,"o":"m 689 1353 l 431 1140 l 300 1214 l 497 1472 l 689 1353 m 469 781 q 338 827 393 781 q 282 949 282 874 q 338 1072 282 1025 q 469 1119 393 1119 q 600 1072 544 1119 q 656 949 656 1025 q 600 827 656 874 q 469 781 544 781 m 469 888 q 515 905 496 888 q 533 950 533 922 q 515 995 533 978 q 469 1013 496 1013 q 423 995 442 1013 q 404 950 404 978 q 423 905 404 922 q 469 888 442 888 m 386 -18 q 150 88 240 -18 q 60 347 60 193 q 151 607 60 500 q 389 714 243 714 q 606 617 519 714 l 607 617 l 606 697 l 851 697 l 851 0 l 606 0 l 607 85 l 606 85 q 386 -18 503 -18 m 350 231 q 370 209 350 231 q 460 186 390 186 q 572 231 529 186 q 615 347 615 276 q 572 464 615 418 q 461 510 529 510 q 351 464 393 510 q 310 349 310 418 q 350 231 310 276 z "},"Ǽ":{"ha":1439,"x_min":-4,"x_max":1442,"o":"m 761 1450 l 949 1324 l 681 1124 l 553 1201 l 761 1450 m 990 214 l 1360 214 l 1442 0 l 797 0 l 722 194 l 353 194 l 276 0 l -4 0 l 435 1047 l 1021 1047 l 1104 833 l 739 833 l 813 656 l 1178 656 l 1258 449 l 894 449 l 990 214 m 507 614 l 421 389 l 658 389 l 574 617 q 542 715 558 661 q 507 614 535 689 z "},"ǽ":{"ha":1308,"x_min":54,"x_max":1249,"o":"m 701 1108 l 892 988 l 633 775 l 504 850 l 701 1108 m 1249 336 l 1249 301 l 751 301 q 788 190 754 231 q 883 149 822 149 q 1011 235 960 149 l 1238 194 q 1099 36 1193 89 q 883 -17 1004 -17 q 614 97 707 -17 q 499 9 565 36 q 333 -18 432 -18 q 131 44 208 -18 q 54 215 54 107 q 131 385 54 325 q 338 446 208 446 q 518 403 447 446 l 518 424 q 382 542 518 542 q 194 497 296 542 l 129 650 q 425 714 265 714 q 650 631 575 714 q 881 715 743 715 q 1148 615 1047 715 q 1249 336 1249 514 m 757 439 l 999 439 q 962 520 993 490 q 879 550 931 550 q 798 520 829 550 q 757 439 767 490 m 399 128 q 486 153 451 128 q 521 222 521 178 q 486 290 521 267 q 399 313 451 313 q 320 289 350 313 q 290 221 290 265 q 319 151 290 175 q 399 128 349 128 z "},"Ǿ":{"ha":1269,"x_min":60,"x_max":1197,"o":"m 658 1450 l 846 1324 l 578 1124 l 450 1201 l 658 1450 m 1189 1021 l 1057 886 q 1197 522 1197 735 q 1033 135 1197 288 q 632 -18 868 -18 q 285 93 435 -18 l 146 -49 l 60 36 l 196 176 q 72 525 72 322 q 238 910 72 754 q 636 1065 403 1065 q 965 965 819 1065 l 1100 1104 l 1189 1021 m 338 524 q 379 364 338 436 l 790 786 q 635 828 719 828 q 424 740 510 828 q 338 524 338 651 m 632 219 q 846 306 760 219 q 932 522 932 392 q 878 701 932 624 l 461 274 q 632 219 538 219 z "},"ǿ":{"ha":918,"x_min":49,"x_max":868,"o":"m 507 1108 l 697 988 l 439 775 l 310 850 l 507 1108 m 797 763 l 868 692 l 768 590 q 858 349 858 493 q 745 81 858 181 q 457 -18 632 -18 q 226 40 326 -18 l 119 -68 l 49 3 l 149 104 q 60 351 60 204 q 172 615 60 514 q 458 715 285 715 q 690 654 593 715 l 797 763 m 308 350 q 319 278 308 311 l 538 499 q 458 521 501 521 q 350 473 392 521 q 308 350 308 425 m 610 349 q 599 418 610 385 l 379 196 q 458 175 413 175 q 568 223 526 175 q 610 349 610 271 z "},"Ș":{"ha":893,"x_min":63,"x_max":818,"o":"m 449 -18 q 218 34 317 -18 q 63 175 119 86 l 201 329 q 432 193 297 193 q 522 222 489 193 q 554 299 554 250 q 519 375 554 344 q 394 443 485 406 q 182 567 253 499 q 111 756 111 635 q 211 979 111 892 q 465 1067 311 1067 q 797 926 671 1067 l 664 763 q 483 854 593 854 q 404 831 435 854 q 374 768 374 807 q 410 706 374 732 q 544 640 447 681 q 751 511 685 586 q 818 308 818 436 q 715 72 818 161 q 449 -18 611 -18 m 585 -94 l 438 -325 l 272 -299 l 379 -62 l 585 -94 z "},"ș":{"ha":679,"x_min":50,"x_max":624,"o":"m 335 -19 q 50 94 156 -19 l 161 243 q 319 164 233 164 q 385 210 385 164 q 363 247 385 232 q 279 285 342 261 q 135 364 183 315 q 86 494 86 413 q 165 658 86 601 q 361 715 243 715 q 601 636 518 715 l 501 486 q 375 539 449 539 q 317 501 317 539 q 340 469 317 483 q 433 431 364 456 q 577 353 531 401 q 624 219 624 306 q 544 45 624 110 q 335 -19 464 -19 m 474 -94 l 326 -325 l 161 -299 l 268 -62 l 474 -94 z "},"Ț":{"ha":749,"x_min":17,"x_max":732,"o":"m 506 0 l 243 0 l 243 810 l 17 810 l 17 1047 l 732 1047 l 732 810 l 506 810 l 506 0 m 493 -94 l 346 -325 l 181 -299 l 288 -62 l 493 -94 z "},"ț":{"ha":522,"x_min":19,"x_max":503,"o":"m 382 0 l 132 0 l 132 486 l 19 486 l 19 697 l 132 697 l 132 938 l 382 938 l 382 697 l 503 697 l 503 486 l 382 486 l 382 0 m 376 -94 l 229 -325 l 64 -299 l 171 -62 l 376 -94 z "},"ȷ":{"ha":447,"x_min":99,"x_max":349,"o":"m 349 -333 l 99 -333 l 99 697 l 349 697 l 349 -333 z "},"ə":{"ha":868,"x_min":60,"x_max":808,"o":"m 426 715 q 702 618 596 715 q 808 353 808 521 q 703 83 808 185 q 435 -18 597 -18 q 162 83 264 -18 q 60 361 60 183 l 60 396 l 557 396 q 521 509 554 468 q 425 550 488 550 q 300 464 349 550 l 72 500 q 212 662 117 608 q 426 715 307 715 m 431 147 q 512 178 481 147 q 551 258 543 208 l 310 258 q 347 177 315 207 q 431 147 379 147 z "},"ʼ":{"ha":489,"x_min":79,"x_max":410,"o":"m 410 1043 l 258 761 l 79 785 l 174 1071 l 410 1043 z "},"ˆ":{"ha":571,"x_min":8,"x_max":563,"o":"m 285 883 l 108 775 l 8 897 l 285 1094 l 563 897 l 463 775 l 285 883 z "},"ˇ":{"ha":557,"x_min":1,"x_max":556,"o":"m 556 972 l 279 775 l 1 972 l 101 1094 l 279 986 l 456 1094 l 556 972 z "},"ˉ":{"ha":594,"x_min":67,"x_max":528,"o":"m 528 857 l 67 857 l 67 996 l 528 996 l 528 857 z "},"˘":{"ha":560,"x_min":8,"x_max":551,"o":"m 469 854 q 432 819 469 854 q 278 785 394 785 q 89 851 161 785 q 8 1032 17 918 l 165 1032 q 279 936 183 936 q 394 1032 375 936 l 551 1032 q 469 854 543 924 z "},"˙":{"ha":424,"x_min":65,"x_max":357,"o":"m 315 867 q 293 849 315 867 q 211 831 272 831 q 108 867 150 831 q 65 965 65 903 q 107 1061 65 1024 q 211 1099 149 1099 q 315 1061 274 1099 q 357 965 357 1024 q 315 867 357 903 z "},"˚":{"ha":432,"x_min":38,"x_max":394,"o":"m 342 826 q 315 804 342 826 q 217 782 289 782 q 91 826 144 782 q 38 943 38 871 q 91 1060 38 1015 q 217 1104 144 1104 q 342 1060 289 1104 q 394 943 394 1015 q 342 826 394 869 m 169 897 q 179 888 169 897 q 217 879 189 879 q 264 897 244 879 q 283 943 283 914 q 264 990 283 972 q 217 1008 244 1008 q 169 990 189 1008 q 149 943 149 972 q 169 897 149 914 z "},"˛":{"ha":600,"x_min":135,"x_max":458,"o":"m 310 -300 q 187 -261 239 -300 q 135 -154 135 -222 q 331 40 135 -29 l 424 14 q 316 -58 344 -26 q 288 -118 288 -89 q 339 -165 288 -165 q 414 -149 378 -165 l 458 -261 q 310 -300 393 -300 z "},"˜":{"ha":631,"x_min":13,"x_max":618,"o":"m 419 792 q 304 831 382 792 q 204 871 226 871 q 125 797 167 871 l 13 883 q 215 1038 103 1038 q 324 997 254 1038 q 418 957 394 957 q 501 1033 458 957 l 618 956 q 419 792 539 792 z "},"˝":{"ha":550,"x_min":-8,"x_max":572,"o":"m 279 1049 l 129 774 l -8 803 l 75 1082 l 279 1049 m 572 1049 l 408 774 l 271 803 l 369 1082 l 572 1049 z "},"̀":{"ha":0,"x_min":-404,"x_max":-15,"o":"m -15 850 l -146 775 l -404 988 l -214 1108 l -15 850 z "},"́":{"ha":0,"x_min":-383,"x_max":4,"o":"m 4 988 l -254 775 l -383 850 l -186 1108 l 4 988 z "},"̂":{"ha":0,"x_min":-562,"x_max":-8,"o":"m -286 883 l -462 775 l -562 897 l -286 1094 l -8 897 l -108 775 l -286 883 z "},"̃":{"ha":0,"x_min":-626,"x_max":-21,"o":"m -221 792 q -335 831 -257 792 q -435 871 -412 871 q -514 797 -475 871 l -626 883 q -425 1038 -537 1038 q -315 997 -386 1038 q -221 957 -244 957 q -139 1033 -179 957 l -21 956 q -221 792 -100 792 z "},"̄":{"ha":0,"x_min":-537,"x_max":-57,"o":"m -57 842 l -537 842 l -537 1000 l -57 1000 l -57 842 z "},"̆":{"ha":0,"x_min":-551,"x_max":-8,"o":"m -91 854 q -128 819 -91 854 q -282 785 -165 785 q -471 851 -399 785 q -551 1032 -543 918 l -394 1032 q -281 936 -376 936 q -165 1032 -185 936 l -8 1032 q -91 854 -17 924 z "},"̇":{"ha":0,"x_min":-358,"x_max":-67,"o":"m -109 867 q -130 849 -109 867 q -212 831 -151 831 q -316 867 -274 831 q -358 965 -358 903 q -317 1061 -358 1024 q -212 1099 -275 1099 q -108 1061 -150 1099 q -67 965 -67 1024 q -109 867 -67 903 z "},"̈":{"ha":0,"x_min":-583,"x_max":-18,"o":"m -465 807 q -549 841 -515 807 q -583 924 -583 875 q -549 1006 -583 972 q -465 1040 -514 1040 q -384 1006 -418 1040 q -350 922 -350 972 q -384 840 -350 874 q -465 807 -418 807 m -135 807 q -219 840 -185 807 q -253 924 -253 874 q -218 1007 -253 974 q -135 1040 -183 1040 q -52 1006 -86 1040 q -18 922 -18 971 q -52 840 -18 874 q -135 807 -86 807 z "},"̊":{"ha":0,"x_min":-403,"x_max":-29,"o":"m -215 781 q -347 827 -292 781 q -403 949 -403 874 q -347 1072 -403 1025 q -215 1119 -292 1119 q -85 1072 -140 1119 q -29 949 -29 1025 q -85 827 -29 874 q -215 781 -140 781 m -215 888 q -170 905 -189 888 q -151 950 -151 922 q -170 995 -151 978 q -215 1013 -189 1013 q -262 995 -243 1013 q -281 950 -281 978 q -262 905 -281 922 q -215 888 -243 888 z "},"̋":{"ha":0,"x_min":-558,"x_max":22,"o":"m -271 1049 l -421 774 l -558 803 l -475 1082 l -271 1049 m 22 1049 l -142 774 l -279 803 l -181 1082 l 22 1049 z "},"̌":{"ha":0,"x_min":-556,"x_max":-1,"o":"m -1 972 l -278 775 l -556 972 l -456 1094 l -278 986 l -101 1094 l -1 972 z "},"̒":{"ha":0,"x_min":-364,"x_max":-49,"o":"m -49 1067 l -162 804 l -364 838 l -214 1093 l -49 1067 z "},"̓":{"ha":0,"x_min":-485,"x_max":-79,"o":"m -79 1043 l -299 593 l -485 617 l -322 1071 l -79 1043 z "},"̣":{"ha":0,"x_min":-357,"x_max":-65,"o":"m -108 -317 q -129 -336 -108 -317 q -211 -354 -150 -354 q -315 -317 -272 -354 q -357 -219 -357 -281 q -315 -124 -357 -161 q -211 -86 -274 -86 q -107 -124 -149 -86 q -65 -219 -65 -161 q -108 -317 -65 -281 z "},"̤":{"ha":0,"x_min":-571,"x_max":-31,"o":"m -458 -321 q -538 -289 -506 -321 q -571 -210 -571 -257 q -537 -131 -571 -164 q -458 -99 -504 -99 q -381 -131 -412 -99 q -349 -211 -349 -164 q -381 -289 -349 -257 q -458 -321 -412 -321 m -142 -321 q -221 -289 -189 -321 q -253 -210 -253 -257 q -220 -131 -253 -164 q -142 -99 -187 -99 q -63 -131 -96 -99 q -31 -211 -31 -164 q -63 -289 -31 -257 q -142 -321 -96 -321 z "},"̥":{"ha":0,"x_min":-394,"x_max":-37,"o":"m -90 -380 q -117 -402 -90 -380 q -215 -424 -143 -424 q -341 -380 -287 -424 q -394 -264 -394 -336 q -341 -147 -394 -192 q -215 -101 -287 -101 q -90 -147 -143 -101 q -37 -264 -37 -192 q -90 -380 -37 -336 m -262 -310 q -253 -319 -262 -310 q -215 -328 -243 -328 q -168 -310 -187 -328 q -149 -262 -149 -292 q -168 -216 -149 -233 q -215 -199 -187 -199 q -262 -216 -243 -199 q -282 -262 -282 -233 q -262 -310 -282 -292 z "},"̦":{"ha":0,"x_min":-364,"x_max":-51,"o":"m -51 -94 l -199 -325 l -364 -299 l -257 -62 l -51 -94 z "},"̧":{"ha":0,"x_min":-349,"x_max":-51,"o":"m -51 -122 l -237 -315 l -349 -246 l -194 -25 l -51 -122 z "},"̨":{"ha":0,"x_min":-478,"x_max":-133,"o":"m -297 -300 q -424 -261 -371 -300 q -478 -154 -478 -222 q -428 -40 -478 -92 q -268 40 -379 13 l -176 14 q -306 -108 -306 -50 q -292 -140 -306 -128 q -253 -153 -278 -153 q -179 -135 -218 -153 l -133 -261 q -297 -300 -211 -300 z "},"̮":{"ha":0,"x_min":-551,"x_max":-8,"o":"m -90 -282 q -127 -317 -90 -282 q -281 -351 -164 -351 q -469 -285 -397 -351 q -551 -104 -542 -218 l -394 -104 q -279 -200 -375 -200 q -165 -104 -185 -200 l -8 -104 q -90 -282 -17 -212 z "},"̱":{"ha":0,"x_min":-539,"x_max":-51,"o":"m -51 -286 l -539 -286 l -539 -128 l -51 -128 l -51 -286 z "},"̵":{"ha":0,"x_min":-500,"x_max":-42,"o":"m -500 396 l -42 396 l -42 318 l -500 318 l -500 396 z "},"̶":{"ha":0,"x_min":-653,"x_max":-42,"o":"m -653 381 l -42 381 l -42 333 l -653 333 l -653 381 z "},"ʹ":{"ha":500,"x_min":50,"x_max":456,"o":"m 456 1035 l 236 586 l 50 586 l 204 1035 l 456 1035 z "},"͵":{"ha":499,"x_min":18,"x_max":424,"o":"m 424 217 l 204 -232 l 18 -232 l 172 217 l 424 217 z "},";":{"ha":500,"x_min":18,"x_max":426,"o":"m 279 449 q 175 485 219 449 q 131 579 131 522 q 175 675 131 638 q 279 713 219 713 q 382 675 338 713 q 426 579 426 638 q 382 485 426 522 q 279 449 338 449 m 424 217 l 204 -232 l 18 -232 l 172 217 l 424 217 z "},"΄":{"ha":546,"x_min":128,"x_max":429,"o":"m 282 804 l 128 804 l 207 1075 l 429 1075 l 282 804 z "},"΅":{"ha":732,"x_min":65,"x_max":668,"o":"m 385 806 l 289 806 l 326 1099 l 493 1099 l 385 806 m 241 842 q 226 828 241 842 q 168 814 211 814 q 95 842 125 814 q 65 917 65 871 q 95 990 65 961 q 168 1019 125 1019 q 241 990 211 1019 q 271 917 271 961 q 241 842 271 871 m 565 814 q 492 843 521 814 q 463 917 463 872 q 492 990 463 961 q 565 1019 522 1019 q 638 990 608 1019 q 668 917 668 961 q 638 842 668 871 q 565 814 608 814 z "},"Ά":{"ha":1076,"x_min":-10,"x_max":1081,"o":"m 68 1047 l 290 1047 l 143 769 l -10 769 l 68 1047 m 1081 0 l 794 0 l 726 199 l 343 199 l 271 0 l -4 0 l 425 1047 l 657 1047 l 1081 0 m 468 543 l 414 394 l 658 394 l 607 543 q 540 750 574 640 q 468 543 501 636 z "},"·":{"ha":500,"x_min":101,"x_max":397,"o":"m 250 449 q 146 485 190 449 q 101 579 101 522 q 146 675 101 638 q 250 713 190 713 q 353 675 308 713 q 397 579 397 638 q 353 485 397 522 q 250 449 308 449 z "},"Έ":{"ha":872,"x_min":-225,"x_max":763,"o":"m -72 769 l -225 769 l -147 1047 l 75 1047 l -72 769 m 763 0 l 119 0 l 119 1047 l 757 1047 l 757 833 l 376 833 l 376 656 l 738 656 l 738 449 l 376 449 l 376 214 l 763 214 l 763 0 z "},"Ή":{"ha":1101,"x_min":-225,"x_max":982,"o":"m -72 769 l -225 769 l -147 1047 l 75 1047 l -72 769 m 376 0 l 119 0 l 119 1047 l 376 1047 l 376 664 l 725 664 l 725 1047 l 982 1047 l 982 0 l 725 0 l 725 429 l 376 429 l 376 0 z "},"Ί":{"ha":496,"x_min":-225,"x_max":376,"o":"m -72 769 l -225 769 l -147 1047 l 75 1047 l -72 769 m 376 0 l 119 0 l 119 1047 l 376 1047 l 376 0 z "},"Ό":{"ha":1269,"x_min":-142,"x_max":1197,"o":"m 632 -18 q 353 49 481 -18 q 149 241 226 115 q 72 525 72 367 q 238 910 72 754 q 636 1065 403 1065 q 1033 910 869 1065 q 1197 522 1197 754 q 1033 135 1197 288 q 632 -18 868 -18 m 11 769 l -142 769 l -64 1047 l 158 1047 l 11 769 m 632 219 q 846 306 760 219 q 932 522 932 392 q 847 740 932 651 q 635 828 763 828 q 424 740 510 828 q 338 524 338 651 q 424 306 338 392 q 632 219 510 219 z "},"Ύ":{"ha":947,"x_min":-287,"x_max":956,"o":"m 476 690 l 657 1047 l 956 1047 l 604 453 l 604 0 l 346 0 l 346 453 l 3 1031 l -135 769 l -287 769 l -210 1047 l 292 1047 l 476 690 z "},"Ώ":{"ha":1292,"x_min":-135,"x_max":1208,"o":"m 1028 206 l 1208 206 l 1208 0 l 747 0 l 747 200 q 886 345 843 267 q 929 533 929 424 q 846 743 929 657 q 646 829 763 829 q 444 744 528 829 q 361 533 361 658 q 404 347 361 425 q 543 203 447 268 l 543 0 l 83 0 l 83 206 l 263 206 q 97 558 97 342 q 255 920 97 774 q 646 1067 413 1067 q 1035 920 876 1067 q 1193 558 1193 774 q 1028 206 1193 342 m -135 769 l -57 1047 l 165 1047 l 18 769 l -135 769 z "},"ΐ":{"ha":467,"x_min":-64,"x_max":539,"o":"m 256 789 l 160 789 l 197 1082 l 364 1082 l 256 789 m 112 826 q 97 811 112 826 q 39 797 82 797 q -34 826 -4 797 q -64 900 -64 854 q -34 974 -64 944 q 39 1003 -4 1003 q 112 974 82 1003 q 142 900 142 944 q 112 826 142 854 m 436 797 q 363 826 392 797 q 333 900 333 856 q 363 974 333 944 q 436 1003 393 1003 q 509 974 479 1003 q 539 900 539 944 q 509 826 539 854 q 436 797 479 797 m 296 -15 q 149 34 200 -15 q 99 179 99 83 l 99 697 l 347 697 l 347 231 q 393 171 347 171 q 449 186 421 171 l 449 17 q 296 -15 388 -15 z "},"Α":{"ha":1076,"x_min":-4,"x_max":1081,"o":"m 1081 0 l 794 0 l 726 199 l 343 199 l 271 0 l -4 0 l 425 1047 l 657 1047 l 1081 0 m 468 543 l 414 394 l 658 394 l 607 543 q 540 750 574 640 q 468 543 501 636 z "},"Β":{"ha":946,"x_min":119,"x_max":881,"o":"m 499 0 l 119 0 l 119 1047 l 414 1047 q 695 980 592 1047 q 799 769 799 913 q 764 640 799 697 q 675 554 729 582 l 675 553 q 826 455 772 522 q 881 294 881 388 q 771 72 881 143 q 499 0 661 0 m 369 851 l 369 619 l 404 619 q 556 742 556 619 q 520 825 556 799 q 407 851 485 851 l 369 851 m 369 446 l 369 197 l 449 197 q 629 319 629 197 q 443 446 629 446 l 369 446 z "},"Γ":{"ha":739,"x_min":119,"x_max":722,"o":"m 376 0 l 119 0 l 119 1047 l 722 1047 l 722 815 l 376 815 l 376 0 z "},"Δ":{"ha":1076,"x_min":-4,"x_max":1081,"o":"m 1081 0 l -4 0 l 425 1047 l 657 1047 l 1081 0 m 500 631 l 332 196 l 744 196 l 582 631 q 542 747 558 693 q 500 631 528 697 z "},"Ε":{"ha":872,"x_min":119,"x_max":763,"o":"m 763 0 l 119 0 l 119 1047 l 757 1047 l 757 833 l 376 833 l 376 656 l 738 656 l 738 449 l 376 449 l 376 214 l 763 214 l 763 0 z "},"Ζ":{"ha":971,"x_min":26,"x_max":938,"o":"m 910 0 l 26 0 l 26 3 l 517 819 l 113 819 l 113 1047 l 938 1047 l 938 1044 l 451 232 l 910 232 l 910 0 z "},"Η":{"ha":1101,"x_min":119,"x_max":982,"o":"m 376 0 l 119 0 l 119 1047 l 376 1047 l 376 664 l 725 664 l 725 1047 l 982 1047 l 982 0 l 725 0 l 725 429 l 376 429 l 376 0 z "},"Θ":{"ha":1269,"x_min":72,"x_max":1197,"o":"m 632 -18 q 353 49 481 -18 q 149 241 226 115 q 72 525 72 367 q 238 910 72 754 q 636 1065 403 1065 q 1033 910 869 1065 q 1197 522 1197 754 q 1033 135 1197 288 q 632 -18 868 -18 m 632 217 q 846 303 760 217 q 932 519 932 389 q 847 736 932 649 q 635 824 763 824 q 424 735 510 824 q 338 521 338 647 q 424 303 338 389 q 632 217 510 217 m 829 436 l 440 436 l 440 610 l 829 610 l 829 436 z "},"Ι":{"ha":496,"x_min":119,"x_max":376,"o":"m 376 0 l 119 0 l 119 1047 l 376 1047 l 376 0 z "},"Κ":{"ha":1036,"x_min":119,"x_max":1031,"o":"m 1031 0 l 710 0 l 396 467 l 375 457 l 378 0 l 119 0 l 119 1047 l 378 1047 l 375 613 l 706 1047 l 1013 1047 l 614 556 l 1031 0 z "},"Λ":{"ha":1060,"x_min":-4,"x_max":1063,"o":"m 275 0 l -4 0 l 407 1047 l 654 1047 l 1063 0 l 783 0 l 529 749 l 275 0 z "},"Μ":{"ha":1404,"x_min":64,"x_max":1340,"o":"m 764 0 l 635 0 l 414 606 l 321 0 l 64 0 l 253 1047 l 465 1047 l 706 406 l 953 1047 l 1163 1047 l 1340 0 l 1079 0 l 999 604 l 764 0 z "},"Ν":{"ha":1222,"x_min":119,"x_max":1101,"o":"m 858 392 l 850 1047 l 1101 1047 l 1101 0 l 893 0 l 368 660 l 372 0 l 119 0 l 119 1047 l 333 1047 l 858 392 z "},"Ξ":{"ha":988,"x_min":110,"x_max":879,"o":"m 865 836 l 124 836 l 124 1047 l 865 1047 l 865 836 m 810 432 l 186 432 l 186 624 l 810 624 l 810 432 m 879 0 l 110 0 l 110 211 l 879 211 l 879 0 z "},"Ο":{"ha":1269,"x_min":72,"x_max":1197,"o":"m 632 -18 q 353 49 481 -18 q 149 241 226 115 q 72 525 72 367 q 238 910 72 754 q 636 1065 403 1065 q 1033 910 869 1065 q 1197 522 1197 754 q 1033 135 1197 288 q 632 -18 868 -18 m 632 219 q 846 306 760 219 q 932 522 932 392 q 847 740 932 651 q 635 828 763 828 q 424 740 510 828 q 338 524 338 651 q 424 306 338 392 q 632 219 510 219 z "},"Π":{"ha":1089,"x_min":119,"x_max":969,"o":"m 381 0 l 119 0 l 119 1047 l 969 1047 l 969 0 l 708 0 l 708 817 l 381 817 l 381 0 z "},"Ρ":{"ha":901,"x_min":119,"x_max":858,"o":"m 376 0 l 119 0 l 119 1047 l 435 1047 q 744 963 631 1047 q 858 710 858 879 q 749 457 858 547 q 463 367 640 367 l 376 367 l 376 0 m 376 835 l 376 575 l 432 575 q 604 708 604 575 q 428 835 604 835 l 376 835 z "},"Σ":{"ha":889,"x_min":26,"x_max":831,"o":"m 829 0 l 26 0 l 358 525 l 29 1047 l 831 1047 l 831 836 l 425 836 l 622 525 l 424 211 l 829 211 l 829 0 z "},"Τ":{"ha":749,"x_min":17,"x_max":732,"o":"m 506 0 l 243 0 l 243 810 l 17 810 l 17 1047 l 732 1047 l 732 810 l 506 810 l 506 0 z "},"Υ":{"ha":947,"x_min":-7,"x_max":956,"o":"m 604 0 l 346 0 l 346 453 l -7 1047 l 292 1047 l 476 690 l 657 1047 l 956 1047 l 604 453 l 604 0 z "},"Φ":{"ha":1344,"x_min":65,"x_max":1279,"o":"m 1279 528 q 1149 219 1279 338 q 794 72 1019 100 l 794 -24 l 549 -24 l 549 72 q 195 216 325 97 q 65 533 65 335 q 194 842 65 724 q 549 988 324 961 l 549 1076 l 794 1076 l 794 988 q 1149 843 1019 963 q 1279 528 1279 724 m 785 786 l 785 274 q 963 363 900 296 q 1026 529 1026 429 q 964 697 1026 631 q 785 786 901 764 m 318 531 q 382 363 318 429 q 558 272 446 296 l 558 786 q 381 696 444 763 q 318 531 318 629 z "},"Χ":{"ha":999,"x_min":6,"x_max":992,"o":"m 304 0 l 6 0 l 353 553 l 44 1047 l 343 1047 l 501 738 l 664 1047 l 963 1047 l 649 553 l 992 0 l 694 0 l 501 361 l 304 0 z "},"Ψ":{"ha":1385,"x_min":108,"x_max":1276,"o":"m 811 0 l 574 0 l 574 199 q 231 314 353 206 q 108 640 108 422 l 108 1047 l 343 1047 l 343 657 q 398 474 343 531 q 574 413 453 417 l 574 1047 l 811 1047 l 811 413 q 987 474 932 417 q 1042 657 1042 531 l 1042 1047 l 1276 1047 l 1276 640 q 1154 314 1276 422 q 811 199 1032 206 l 811 0 z "},"Ω":{"ha":1292,"x_min":83,"x_max":1208,"o":"m 1028 206 l 1208 206 l 1208 0 l 747 0 l 747 200 q 886 345 843 267 q 929 533 929 424 q 846 743 929 657 q 646 829 763 829 q 444 744 528 829 q 361 533 361 658 q 404 347 361 425 q 543 203 447 268 l 543 0 l 83 0 l 83 206 l 263 206 q 97 558 97 342 q 255 920 97 774 q 646 1067 413 1067 q 1035 920 876 1067 q 1193 558 1193 774 q 1028 206 1193 342 z "},"Ϊ":{"ha":496,"x_min":-43,"x_max":542,"o":"m 81 1156 q -8 1192 28 1156 q -43 1279 -43 1228 q -7 1367 -43 1331 q 81 1403 29 1403 q 167 1367 131 1403 q 203 1279 203 1331 q 167 1191 203 1226 q 81 1156 131 1156 m 418 1156 q 329 1191 365 1156 q 293 1279 293 1226 q 330 1367 293 1332 q 418 1403 367 1403 q 506 1367 469 1403 q 542 1279 542 1331 q 506 1191 542 1226 q 418 1156 469 1156 m 376 0 l 119 0 l 119 1047 l 376 1047 l 376 0 z "},"Ϋ":{"ha":947,"x_min":-7,"x_max":956,"o":"m 306 1156 q 217 1192 253 1156 q 182 1279 182 1228 q 218 1367 182 1331 q 306 1403 254 1403 q 392 1367 356 1403 q 428 1279 428 1331 q 392 1191 428 1226 q 306 1156 356 1156 m 643 1156 q 554 1191 590 1156 q 518 1279 518 1226 q 555 1367 518 1332 q 643 1403 592 1403 q 731 1367 694 1403 q 767 1279 767 1331 q 731 1191 767 1226 q 643 1156 694 1156 m 604 0 l 346 0 l 346 453 l -7 1047 l 292 1047 l 476 690 l 657 1047 l 956 1047 l 604 453 l 604 0 z "},"ά":{"ha":950,"x_min":60,"x_max":851,"o":"m 538 788 l 383 788 l 463 1058 l 685 1058 l 538 788 m 386 -18 q 150 88 240 -18 q 60 347 60 193 q 151 607 60 500 q 389 714 243 714 q 606 617 519 714 l 607 617 l 606 697 l 851 697 l 851 0 l 606 0 l 607 85 l 606 85 q 386 -18 503 -18 m 350 231 q 370 209 350 231 q 460 186 390 186 q 572 231 529 186 q 615 347 615 276 q 572 464 615 418 q 461 510 529 510 q 351 464 393 510 q 310 349 310 418 q 350 231 310 276 z "},"έ":{"ha":711,"x_min":60,"x_max":653,"o":"m 382 1058 l 604 1058 l 457 788 l 303 788 l 382 1058 m 440 153 q 562 172 503 153 q 653 219 621 192 l 653 24 q 388 -19 546 -19 q 146 35 232 -19 q 60 194 60 90 q 204 369 60 318 q 126 424 158 385 q 94 519 94 464 q 181 664 94 613 q 404 715 267 715 q 625 686 529 715 l 625 507 q 443 547 558 547 q 335 490 335 547 q 457 429 335 429 l 549 429 l 549 286 l 438 286 q 306 221 306 286 q 440 153 306 153 z "},"ή":{"ha":889,"x_min":99,"x_max":799,"o":"m 508 788 l 354 788 l 433 1058 l 656 1058 l 508 788 m 799 -300 l 549 -300 l 549 372 q 528 477 549 443 q 458 511 508 511 q 374 472 400 511 q 347 350 347 432 l 347 0 l 99 0 l 99 697 l 344 697 l 340 601 l 343 601 q 436 688 386 660 q 560 717 486 717 q 738 639 678 717 q 799 431 799 561 l 799 -300 z "},"ί":{"ha":467,"x_min":99,"x_max":449,"o":"m 294 788 l 140 788 l 219 1058 l 442 1058 l 294 788 m 296 -15 q 149 34 200 -15 q 99 179 99 83 l 99 697 l 347 697 l 347 231 q 393 171 347 171 q 449 186 421 171 l 449 17 q 296 -15 388 -15 z "},"ΰ":{"ha":875,"x_min":92,"x_max":783,"o":"m 461 789 l 365 789 l 403 1082 l 569 1082 l 461 789 m 317 826 q 302 811 317 826 q 244 797 288 797 q 172 826 201 797 q 142 900 142 854 q 172 974 142 944 q 244 1003 201 1003 q 317 974 288 1003 q 347 900 347 944 q 317 826 347 854 m 642 797 q 568 826 597 797 q 539 900 539 856 q 569 974 539 944 q 642 1003 599 1003 q 715 974 685 1003 q 744 900 744 944 q 715 826 744 854 q 642 797 685 797 m 438 -18 q 185 61 278 -18 q 92 299 92 140 l 92 697 l 340 697 l 340 318 q 363 222 340 254 q 438 189 385 189 q 535 318 535 189 l 535 697 l 783 697 l 783 299 q 691 63 783 144 q 438 -18 599 -18 z "},"α":{"ha":950,"x_min":60,"x_max":851,"o":"m 386 -18 q 150 88 240 -18 q 60 347 60 193 q 151 607 60 500 q 389 714 243 714 q 606 617 519 714 l 607 617 l 606 697 l 851 697 l 851 0 l 606 0 l 607 85 l 606 85 q 386 -18 503 -18 m 350 231 q 370 209 350 231 q 460 186 390 186 q 572 231 529 186 q 615 347 615 276 q 572 464 615 418 q 461 510 529 510 q 351 464 393 510 q 310 349 310 418 q 350 231 310 276 z "},"β":{"ha":976,"x_min":99,"x_max":917,"o":"m 347 -300 l 99 -300 l 99 782 q 207 1054 99 963 q 507 1146 315 1146 q 779 1066 679 1146 q 879 856 879 986 q 829 703 879 769 q 685 614 779 638 l 685 611 q 855 510 793 588 q 917 317 917 433 q 819 74 917 167 q 586 -18 722 -18 q 350 76 439 -18 l 347 76 l 347 -300 m 513 169 q 627 215 582 169 q 672 333 672 260 q 615 472 672 426 q 471 517 558 517 l 417 517 l 417 685 l 469 685 q 596 724 549 685 q 643 831 643 763 q 604 926 643 890 q 497 961 565 961 q 388 917 428 961 q 347 785 347 874 l 347 331 q 394 215 347 260 q 513 169 440 169 z "},"γ":{"ha":815,"x_min":-4,"x_max":819,"o":"m 533 -300 l 285 -300 l 289 39 l -4 697 l 265 697 l 408 307 l 549 697 l 819 697 l 528 43 l 533 -300 z "},"δ":{"ha":922,"x_min":60,"x_max":863,"o":"m 499 931 l 613 807 q 803 568 744 667 q 863 347 863 469 q 749 84 863 188 q 463 -19 636 -19 q 172 83 285 -19 q 60 347 60 185 q 165 601 60 501 q 431 706 271 701 q 405 733 422 715 q 379 758 388 750 l 140 1015 l 140 1133 l 842 1133 l 842 928 l 499 931 m 461 186 q 574 231 531 186 q 618 350 618 276 q 574 465 618 421 q 461 510 529 510 q 348 465 392 510 q 304 350 304 419 q 347 231 304 276 q 461 186 390 186 z "},"ε":{"ha":711,"x_min":60,"x_max":653,"o":"m 440 153 q 562 172 503 153 q 653 219 621 192 l 653 24 q 388 -19 546 -19 q 146 35 232 -19 q 60 194 60 90 q 204 369 60 318 q 126 424 158 385 q 94 519 94 464 q 181 664 94 613 q 404 715 267 715 q 625 686 529 715 l 625 507 q 443 547 558 547 q 335 490 335 547 q 457 429 335 429 l 549 429 l 549 286 l 438 286 q 306 221 306 286 q 440 153 306 153 z "},"ζ":{"ha":736,"x_min":60,"x_max":736,"o":"m 736 1133 l 736 1028 l 467 694 q 344 519 381 588 q 308 371 308 450 q 338 272 308 315 q 395 213 368 229 q 489 163 422 196 q 510 151 503 156 q 657 51 608 103 q 706 -104 706 -1 q 649 -312 706 -222 l 425 -312 q 469 -225 457 -257 q 482 -154 482 -193 q 440 -71 482 -104 q 317 0 399 -37 q 243 36 272 21 q 176 81 214 51 q 115 144 138 111 q 76 228 92 178 q 60 342 60 279 q 109 551 60 461 q 276 782 158 642 l 401 931 l 117 928 l 117 1133 l 736 1133 z "},"η":{"ha":889,"x_min":99,"x_max":799,"o":"m 799 -300 l 549 -300 l 549 372 q 528 477 549 443 q 458 511 508 511 q 374 472 400 511 q 347 350 347 432 l 347 0 l 99 0 l 99 697 l 344 697 l 340 601 l 343 601 q 436 688 386 660 q 560 717 486 717 q 738 639 678 717 q 799 431 799 561 l 799 -300 z "},"θ":{"ha":950,"x_min":65,"x_max":885,"o":"m 474 1147 q 776 1005 668 1147 q 885 565 885 863 q 777 124 885 267 q 474 -18 669 -18 q 173 124 281 -18 q 65 565 65 267 q 173 1005 65 863 q 474 1147 281 1147 m 638 663 q 475 943 618 943 q 313 663 332 943 l 638 663 m 311 488 q 475 186 326 186 q 639 488 624 186 l 311 488 z "},"ι":{"ha":467,"x_min":99,"x_max":449,"o":"m 296 -15 q 149 34 200 -15 q 99 179 99 83 l 99 697 l 347 697 l 347 231 q 393 171 347 171 q 449 186 421 171 l 449 17 q 296 -15 388 -15 z "},"κ":{"ha":860,"x_min":99,"x_max":856,"o":"m 553 378 l 856 0 l 557 0 l 371 275 l 349 263 l 349 0 l 99 0 l 99 697 l 349 697 l 349 446 l 549 697 l 838 697 l 553 378 z "},"λ":{"ha":844,"x_min":-4,"x_max":849,"o":"m 393 1133 l 849 0 l 583 0 l 438 415 l 271 0 l -4 0 l 315 661 l 119 1133 l 393 1133 z "},"μ":{"ha":901,"x_min":99,"x_max":803,"o":"m 335 -333 l 99 -333 l 99 697 l 349 697 l 349 306 q 444 188 349 188 q 553 332 553 188 l 553 697 l 803 697 l 803 0 l 565 0 l 560 58 l 557 58 q 446 -14 518 -14 q 340 51 372 -14 l 338 51 l 335 -333 z "},"ν":{"ha":811,"x_min":-4,"x_max":814,"o":"m 494 0 l 314 0 l -4 697 l 267 697 l 406 333 l 543 697 l 814 697 l 494 0 z "},"ξ":{"ha":721,"x_min":60,"x_max":707,"o":"m 522 953 q 402 916 447 953 q 357 817 357 879 q 413 721 357 758 q 558 683 468 683 l 654 683 l 654 499 l 543 499 q 376 459 439 499 q 314 340 314 419 q 319 303 314 321 q 330 274 324 286 q 351 248 336 261 q 374 228 365 235 q 406 209 383 221 q 438 192 428 197 q 477 175 449 188 q 515 158 506 163 q 649 60 603 119 q 696 -101 696 0 q 640 -300 696 -211 l 415 -300 q 471 -150 471 -215 q 430 -62 471 -97 q 304 11 389 -26 q 219 55 253 35 q 143 111 185 75 q 81 199 101 147 q 60 319 60 251 q 134 507 60 428 q 329 608 208 586 q 176 698 235 632 q 118 857 118 764 q 222 1068 118 989 q 499 1147 326 1147 q 707 1118 606 1147 l 707 908 q 522 953 628 953 z "},"ο":{"ha":918,"x_min":60,"x_max":858,"o":"m 457 -18 q 172 82 283 -18 q 60 351 60 182 q 172 615 60 514 q 458 715 285 715 q 745 615 632 715 q 858 349 858 514 q 745 81 858 181 q 457 -18 632 -18 m 349 232 q 370 210 349 232 q 458 188 390 188 q 568 232 526 188 q 610 349 610 276 q 568 464 610 419 q 458 508 526 508 q 350 464 392 508 q 308 350 308 419 q 349 232 308 276 z "},"π":{"ha":901,"x_min":19,"x_max":882,"o":"m 710 -15 q 577 34 624 -15 q 531 179 531 83 l 531 490 l 361 490 l 361 0 l 129 0 l 129 489 l 19 489 l 19 697 l 882 697 l 882 490 l 763 490 l 763 231 q 807 171 763 171 q 863 186 835 171 l 863 17 q 710 -15 803 -15 z "},"ρ":{"ha":940,"x_min":92,"x_max":881,"o":"m 479 717 q 769 615 658 717 q 881 350 881 513 q 788 86 881 189 q 543 -17 694 -17 q 340 63 415 -17 l 340 -300 l 92 -300 l 92 335 q 195 613 92 510 q 479 717 299 717 m 483 190 q 594 235 550 190 q 638 350 638 279 q 594 467 638 424 q 479 510 550 510 q 369 467 413 510 q 326 349 326 424 q 370 234 326 278 q 483 190 414 190 z "},"ς":{"ha":711,"x_min":60,"x_max":694,"o":"m 639 -300 l 414 -300 q 468 -156 468 -212 q 431 -81 468 -111 q 303 -14 394 -50 q 60 342 60 79 q 167 612 60 511 q 451 713 275 713 q 671 669 588 713 l 671 450 q 482 508 576 508 q 353 462 401 508 q 304 339 304 415 q 347 226 304 265 q 497 140 389 188 q 646 43 597 97 q 694 -100 694 -11 q 639 -300 694 -203 z "},"σ":{"ha":969,"x_min":60,"x_max":950,"o":"m 461 -18 q 172 82 285 -18 q 60 342 60 182 q 171 601 60 504 q 463 699 282 699 l 950 699 l 950 490 l 808 490 l 808 486 q 858 326 858 415 q 746 81 858 179 q 461 -18 633 -18 m 461 188 q 572 231 529 188 q 615 344 615 275 q 569 490 615 425 l 469 490 q 351 451 397 490 q 304 343 304 411 q 347 231 304 275 q 461 188 390 188 z "},"τ":{"ha":640,"x_min":19,"x_max":621,"o":"m 388 -14 q 183 196 183 -14 l 183 490 l 19 490 l 19 699 l 621 699 l 621 490 l 432 490 l 432 239 q 492 168 432 168 q 561 183 526 168 l 561 15 q 388 -14 496 -14 z "},"υ":{"ha":875,"x_min":92,"x_max":783,"o":"m 438 -18 q 185 61 278 -18 q 92 299 92 140 l 92 697 l 340 697 l 340 318 q 363 222 340 254 q 438 189 385 189 q 535 318 535 189 l 535 697 l 783 697 l 783 299 q 691 63 783 144 q 438 -18 599 -18 z "},"φ":{"ha":1193,"x_min":65,"x_max":1133,"o":"m 713 -300 l 485 -300 l 485 -14 q 174 97 282 6 q 65 350 65 189 q 153 586 65 490 q 399 711 240 682 l 421 525 q 299 354 299 476 q 340 230 299 276 q 485 168 382 183 l 485 697 l 728 697 q 1015 612 897 697 q 1133 358 1133 526 q 1022 103 1133 199 q 713 -12 911 8 l 713 -300 m 713 526 l 713 168 q 901 357 901 197 q 853 483 901 440 q 732 526 806 526 l 713 526 z "},"χ":{"ha":831,"x_min":4,"x_max":825,"o":"m 554 226 l 825 -300 l 557 -300 l 411 65 l 274 -300 l 4 -300 l 265 226 l 29 699 l 296 699 l 414 386 l 540 699 l 806 699 l 554 226 z "},"ψ":{"ha":1189,"x_min":92,"x_max":1097,"o":"m 867 425 l 867 699 l 1097 699 l 1097 394 q 1004 108 1097 213 q 707 -17 911 4 l 707 -300 l 482 -300 l 482 -17 q 92 396 92 25 l 92 699 l 322 699 l 322 425 q 360 253 322 313 q 482 175 397 193 l 482 1006 l 707 1006 l 707 175 q 830 253 793 194 q 867 425 867 313 z "},"ω":{"ha":1169,"x_min":60,"x_max":1110,"o":"m 724 531 l 806 714 q 1031 556 953 663 q 1110 307 1110 449 q 1028 63 1110 144 q 829 -18 946 -18 q 674 24 738 -18 q 585 138 610 67 q 494 24 557 67 q 340 -18 431 -18 q 142 63 224 -18 q 60 307 60 144 q 138 556 60 450 q 361 714 215 663 l 440 531 q 296 321 296 461 q 322 216 296 251 q 389 181 347 181 q 459 221 435 181 q 483 322 483 261 l 483 443 l 685 443 l 685 322 q 709 221 685 261 q 781 181 733 181 q 847 216 821 181 q 872 321 872 251 q 724 531 872 463 z "},"ϊ":{"ha":467,"x_min":-50,"x_max":515,"o":"m 68 807 q -16 841 18 807 q -50 924 -50 875 q -15 1006 -50 972 q 68 1040 19 1040 q 149 1006 115 1040 q 183 922 183 972 q 149 840 183 874 q 68 807 115 807 m 399 807 q 315 840 349 807 q 281 924 281 874 q 315 1007 281 974 q 399 1040 350 1040 q 481 1006 447 1040 q 515 922 515 971 q 481 840 515 874 q 399 807 447 807 m 296 -15 q 149 34 200 -15 q 99 179 99 83 l 99 697 l 347 697 l 347 231 q 393 171 347 171 q 449 186 421 171 l 449 17 q 296 -15 388 -15 z "},"ϋ":{"ha":875,"x_min":92,"x_max":783,"o":"m 274 807 q 190 841 224 807 q 156 924 156 875 q 190 1006 156 972 q 274 1040 225 1040 q 355 1006 321 1040 q 389 922 389 972 q 355 840 389 874 q 274 807 321 807 m 604 807 q 520 840 554 807 q 486 924 486 874 q 521 1007 486 974 q 604 1040 556 1040 q 687 1006 653 1040 q 721 922 721 971 q 687 840 721 874 q 604 807 653 807 m 438 -18 q 185 61 278 -18 q 92 299 92 140 l 92 697 l 340 697 l 340 318 q 363 222 340 254 q 438 189 385 189 q 535 318 535 189 l 535 697 l 783 697 l 783 299 q 691 63 783 144 q 438 -18 599 -18 z "},"ό":{"ha":918,"x_min":60,"x_max":858,"o":"m 521 788 l 367 788 l 446 1058 l 668 1058 l 521 788 m 457 -18 q 172 82 283 -18 q 60 351 60 182 q 172 615 60 514 q 458 715 285 715 q 745 615 632 715 q 858 349 858 514 q 745 81 858 181 q 457 -18 632 -18 m 349 232 q 370 210 349 232 q 458 188 390 188 q 568 232 526 188 q 610 349 610 276 q 568 464 610 419 q 458 508 526 508 q 350 464 392 508 q 308 350 308 419 q 349 232 308 276 z "},"ύ":{"ha":875,"x_min":92,"x_max":783,"o":"m 500 788 l 346 788 l 425 1058 l 647 1058 l 500 788 m 438 -18 q 185 61 278 -18 q 92 299 92 140 l 92 697 l 340 697 l 340 318 q 363 222 340 254 q 438 189 385 189 q 535 318 535 189 l 535 697 l 783 697 l 783 299 q 691 63 783 144 q 438 -18 599 -18 z "},"ώ":{"ha":1169,"x_min":60,"x_max":1110,"o":"m 572 1058 l 794 1058 l 647 788 l 493 788 l 572 1058 m 724 531 l 806 714 q 1031 556 953 663 q 1110 307 1110 449 q 1028 63 1110 144 q 829 -18 946 -18 q 674 24 738 -18 q 585 138 610 67 q 494 24 557 67 q 340 -18 431 -18 q 142 63 224 -18 q 60 307 60 144 q 138 556 60 450 q 361 714 215 663 l 440 531 q 296 321 296 461 q 322 216 296 251 q 389 181 347 181 q 459 221 435 181 q 483 322 483 261 l 483 443 l 685 443 l 685 322 q 709 221 685 261 q 781 181 733 181 q 847 216 821 181 q 872 321 872 251 q 724 531 872 463 z "},"Ѐ":{"ha":872,"x_min":119,"x_max":763,"o":"m 615 1201 l 488 1124 l 219 1324 l 407 1450 l 615 1201 m 763 0 l 119 0 l 119 1047 l 757 1047 l 757 833 l 376 833 l 376 656 l 738 656 l 738 449 l 376 449 l 376 214 l 763 214 l 763 0 z "},"Ё":{"ha":872,"x_min":119,"x_max":763,"o":"m 278 1156 q 190 1192 225 1156 q 154 1279 154 1228 q 190 1367 154 1331 q 278 1403 226 1403 q 364 1367 328 1403 q 400 1279 400 1331 q 364 1191 400 1226 q 278 1156 328 1156 m 615 1156 q 526 1191 563 1156 q 490 1279 490 1226 q 527 1367 490 1332 q 615 1403 564 1403 q 703 1367 667 1403 q 739 1279 739 1331 q 703 1191 739 1226 q 615 1156 667 1156 m 763 0 l 119 0 l 119 1047 l 757 1047 l 757 833 l 376 833 l 376 656 l 738 656 l 738 449 l 376 449 l 376 214 l 763 214 l 763 0 z "},"Ђ":{"ha":1036,"x_min":17,"x_max":993,"o":"m 642 -4 q 564 1 603 -4 l 564 169 q 603 167 578 167 q 701 200 665 167 q 736 290 736 233 q 594 415 736 415 q 468 401 524 415 l 468 0 l 211 0 l 211 832 l 17 832 l 17 1047 l 719 1047 l 719 832 l 468 832 l 468 611 q 649 626 554 626 q 904 542 815 626 q 993 317 993 458 q 901 81 993 167 q 642 -4 808 -4 z "},"Ѓ":{"ha":739,"x_min":119,"x_max":722,"o":"m 646 1324 l 378 1124 l 250 1201 l 458 1450 l 646 1324 m 376 0 l 119 0 l 119 1047 l 722 1047 l 722 815 l 376 815 l 376 0 z "},"Є":{"ha":964,"x_min":72,"x_max":892,"o":"m 740 431 l 350 431 q 456 268 376 331 q 640 206 535 206 q 892 301 774 206 l 888 46 q 608 -18 767 -18 q 228 137 383 -18 q 72 517 72 292 q 231 906 72 744 q 622 1067 390 1067 q 888 1004 758 1067 l 892 743 q 638 842 768 842 q 461 783 539 842 q 353 626 383 724 l 740 626 l 740 431 z "},"Ѕ":{"ha":893,"x_min":63,"x_max":818,"o":"m 449 -18 q 218 34 317 -18 q 63 175 119 86 l 201 329 q 432 193 297 193 q 522 222 489 193 q 554 299 554 250 q 519 375 554 344 q 394 443 485 406 q 182 567 253 499 q 111 756 111 635 q 211 979 111 892 q 465 1067 311 1067 q 797 926 671 1067 l 664 763 q 483 854 593 854 q 404 831 435 854 q 374 768 374 807 q 410 706 374 732 q 544 640 447 681 q 751 511 685 586 q 818 308 818 436 q 715 72 818 161 q 449 -18 611 -18 z "},"І":{"ha":496,"x_min":119,"x_max":376,"o":"m 376 0 l 119 0 l 119 1047 l 376 1047 l 376 0 z "},"Ї":{"ha":496,"x_min":-43,"x_max":542,"o":"m 81 1156 q -8 1192 28 1156 q -43 1279 -43 1228 q -7 1367 -43 1331 q 81 1403 29 1403 q 167 1367 131 1403 q 203 1279 203 1331 q 167 1191 203 1226 q 81 1156 131 1156 m 418 1156 q 329 1191 365 1156 q 293 1279 293 1226 q 330 1367 293 1332 q 418 1403 367 1403 q 506 1367 469 1403 q 542 1279 542 1331 q 506 1191 542 1226 q 418 1156 469 1156 m 376 0 l 119 0 l 119 1047 l 376 1047 l 376 0 z "},"Ј":{"ha":667,"x_min":-7,"x_max":558,"o":"m 251 -18 q -7 78 101 -18 l 101 281 q 213 221 158 221 q 280 258 261 221 q 299 369 299 296 l 299 1047 l 558 1047 l 558 340 q 478 74 558 165 q 251 -18 399 -18 z "},"Љ":{"ha":1490,"x_min":-4,"x_max":1446,"o":"m 125 -10 q -4 10 57 -10 l 33 228 q 92 219 64 219 q 166 263 142 219 q 201 410 190 306 l 265 1047 l 961 1047 l 961 665 l 1064 665 q 1344 583 1242 665 q 1446 336 1446 501 q 1344 88 1446 176 q 1050 0 1243 0 l 704 0 l 704 817 l 494 817 l 450 376 q 357 75 428 160 q 125 -10 286 -10 m 961 472 l 961 199 l 1014 199 q 1196 333 1196 199 q 1013 472 1196 472 l 961 472 z "},"Њ":{"ha":1506,"x_min":119,"x_max":1461,"o":"m 376 0 l 119 0 l 119 1047 l 376 1047 l 376 661 l 708 661 l 708 1047 l 965 1047 l 965 661 l 1076 661 q 1360 581 1258 661 q 1461 335 1461 500 q 1362 88 1461 175 q 1065 0 1263 0 l 708 0 l 708 433 l 376 433 l 376 0 m 964 469 l 964 199 l 1024 199 q 1156 228 1108 199 q 1204 332 1204 257 q 1021 469 1204 469 l 964 469 z "},"Ћ":{"ha":1104,"x_min":17,"x_max":996,"o":"m 468 0 l 213 0 l 213 832 l 17 832 l 17 1047 l 719 1047 l 719 832 l 468 832 l 468 614 q 668 626 565 626 q 996 304 996 626 l 996 0 l 736 0 l 736 288 q 706 383 736 353 q 600 413 675 413 q 468 404 539 413 l 468 0 z "},"Ќ":{"ha":1036,"x_min":119,"x_max":1031,"o":"m 565 1450 l 753 1324 l 485 1124 l 357 1201 l 565 1450 m 1031 0 l 710 0 l 396 467 l 375 457 l 378 0 l 119 0 l 119 1047 l 378 1047 l 375 613 l 706 1047 l 1013 1047 l 614 556 l 1031 0 z "},"Ѝ":{"ha":1222,"x_min":119,"x_max":1101,"o":"m 565 1450 l 775 1201 l 646 1124 l 379 1324 l 565 1450 m 364 392 l 890 1047 l 1101 1047 l 1101 0 l 850 0 l 854 661 l 325 0 l 119 0 l 119 1047 l 372 1047 l 364 392 z "},"Ў":{"ha":1004,"x_min":15,"x_max":1015,"o":"m 519 1136 q 324 1197 399 1136 q 219 1354 249 1258 l 385 1394 q 519 1279 413 1279 q 654 1394 626 1279 l 819 1354 q 716 1197 790 1258 q 519 1136 642 1136 m 543 554 l 744 1047 l 1015 1047 l 658 251 q 510 42 590 100 q 308 -15 431 -15 q 53 69 160 -15 l 171 260 q 307 207 232 207 q 376 226 347 207 q 433 297 406 246 l 15 1047 l 293 1047 l 543 554 z "},"Џ":{"ha":1076,"x_min":119,"x_max":957,"o":"m 653 -254 l 425 -254 l 425 0 l 119 0 l 119 1047 l 376 1047 l 376 231 l 700 231 l 700 1047 l 957 1047 l 957 0 l 653 0 l 653 -254 z "},"А":{"ha":1076,"x_min":-4,"x_max":1081,"o":"m 1081 0 l 794 0 l 726 199 l 343 199 l 271 0 l -4 0 l 425 1047 l 657 1047 l 1081 0 m 469 546 l 414 394 l 658 394 l 607 544 q 540 750 569 656 q 469 546 507 647 z "},"Б":{"ha":926,"x_min":119,"x_max":868,"o":"m 482 0 l 119 0 l 119 1047 l 743 1047 l 743 838 l 376 838 l 376 635 l 490 635 q 768 557 668 635 q 868 321 868 479 q 768 83 868 165 q 482 0 668 0 m 376 450 l 376 192 l 439 192 q 570 220 524 192 q 617 319 617 249 q 439 450 617 450 l 376 450 z "},"В":{"ha":946,"x_min":119,"x_max":881,"o":"m 499 0 l 119 0 l 119 1047 l 414 1047 q 695 980 592 1047 q 799 769 799 913 q 764 640 799 697 q 675 554 729 582 l 675 553 q 826 455 772 522 q 881 294 881 388 q 771 72 881 143 q 499 0 661 0 m 369 851 l 369 619 l 404 619 q 556 742 556 619 q 520 825 556 799 q 407 851 485 851 l 369 851 m 369 446 l 369 197 l 449 197 q 629 319 629 197 q 443 446 629 446 l 369 446 z "},"Г":{"ha":739,"x_min":119,"x_max":722,"o":"m 376 0 l 119 0 l 119 1047 l 722 1047 l 722 815 l 376 815 l 376 0 z "},"Д":{"ha":1161,"x_min":13,"x_max":1125,"o":"m 240 -254 l 13 -254 l 13 231 l 28 231 q 100 248 69 231 q 151 294 131 265 q 187 375 171 324 q 213 479 203 426 q 232 613 222 532 l 288 1047 l 978 1047 l 978 231 l 1125 231 l 1125 -254 l 897 -254 l 897 0 l 240 0 l 240 -254 m 361 231 l 721 231 l 721 817 l 504 817 l 474 571 q 426 333 453 407 q 361 231 400 260 z "},"Е":{"ha":872,"x_min":119,"x_max":763,"o":"m 763 0 l 119 0 l 119 1047 l 757 1047 l 757 833 l 376 833 l 376 656 l 738 656 l 738 449 l 376 449 l 376 214 l 763 214 l 763 0 z "},"Ж":{"ha":1506,"x_min":6,"x_max":1499,"o":"m 1093 553 l 1499 0 l 1199 0 l 875 496 l 875 0 l 629 0 l 629 496 l 306 0 l 6 0 l 411 553 l 24 1047 l 310 1047 l 629 619 l 629 1047 l 875 1047 l 875 619 l 1194 1047 l 1481 1047 l 1093 553 z "},"З":{"ha":907,"x_min":40,"x_max":842,"o":"m 438 -19 q 40 165 185 -19 l 178 329 q 280 228 217 267 q 419 189 343 189 q 534 225 490 189 q 578 319 578 261 q 527 415 578 385 q 399 444 476 444 l 301 444 l 301 633 l 392 633 q 506 668 465 633 q 547 754 547 703 q 514 831 547 803 q 421 860 481 860 q 224 772 307 860 l 113 946 q 260 1034 168 1000 q 457 1068 351 1068 q 706 994 617 1068 q 796 788 796 919 q 653 557 796 622 q 793 464 744 532 q 842 304 842 396 q 731 67 842 153 q 438 -19 621 -19 z "},"И":{"ha":1221,"x_min":119,"x_max":1101,"o":"m 364 392 l 890 1047 l 1101 1047 l 1101 0 l 850 0 l 854 661 l 325 0 l 119 0 l 119 1047 l 372 1047 l 364 392 z "},"Й":{"ha":1222,"x_min":119,"x_max":1101,"o":"m 604 1136 q 408 1197 483 1136 q 304 1354 333 1258 l 469 1394 q 604 1279 497 1279 q 739 1394 711 1279 l 904 1354 q 801 1197 875 1258 q 604 1136 726 1136 m 364 392 l 890 1047 l 1101 1047 l 1101 0 l 850 0 l 854 661 l 325 0 l 119 0 l 119 1047 l 372 1047 l 364 392 z "},"К":{"ha":1036,"x_min":119,"x_max":1031,"o":"m 1031 0 l 710 0 l 396 467 l 375 457 l 378 0 l 119 0 l 119 1047 l 378 1047 l 375 613 l 706 1047 l 1013 1047 l 614 556 l 1031 0 z "},"Л":{"ha":1097,"x_min":-4,"x_max":978,"o":"m 125 -10 q -4 10 57 -10 l 33 228 q 92 219 64 219 q 166 263 142 219 q 201 410 190 306 l 265 1047 l 978 1047 l 978 0 l 721 0 l 721 817 l 494 817 l 450 376 q 357 75 428 160 q 125 -10 286 -10 z "},"М":{"ha":1404,"x_min":64,"x_max":1340,"o":"m 764 0 l 635 0 l 414 606 l 321 0 l 64 0 l 253 1047 l 465 1047 l 706 406 l 953 1047 l 1163 1047 l 1340 0 l 1079 0 l 999 604 l 764 0 z "},"Н":{"ha":1101,"x_min":119,"x_max":982,"o":"m 376 0 l 119 0 l 119 1047 l 376 1047 l 376 664 l 725 664 l 725 1047 l 982 1047 l 982 0 l 725 0 l 725 429 l 376 429 l 376 0 z "},"О":{"ha":1269,"x_min":72,"x_max":1197,"o":"m 632 -18 q 353 49 481 -18 q 149 241 226 115 q 72 525 72 367 q 238 910 72 754 q 636 1065 403 1065 q 1033 910 869 1065 q 1197 522 1197 754 q 1033 135 1197 288 q 632 -18 868 -18 m 632 219 q 846 306 760 219 q 932 522 932 392 q 847 740 932 651 q 635 828 763 828 q 424 740 510 828 q 338 524 338 651 q 424 306 338 392 q 632 219 510 219 z "},"П":{"ha":1082,"x_min":119,"x_max":963,"o":"m 376 0 l 119 0 l 119 1047 l 963 1047 l 963 0 l 706 0 l 706 817 l 376 817 l 376 0 z "},"Р":{"ha":901,"x_min":119,"x_max":858,"o":"m 376 0 l 119 0 l 119 1047 l 435 1047 q 744 963 631 1047 q 858 710 858 879 q 749 457 858 547 q 463 367 640 367 l 376 367 l 376 0 m 376 835 l 376 575 l 432 575 q 604 708 604 575 q 428 835 604 835 l 376 835 z "},"С":{"ha":964,"x_min":72,"x_max":892,"o":"m 608 -18 q 228 137 383 -18 q 72 517 72 292 q 231 906 72 744 q 622 1067 390 1067 q 888 1004 758 1067 l 892 718 q 638 828 769 828 q 426 741 515 828 q 338 522 338 654 q 426 308 338 396 q 640 219 514 219 q 771 245 713 219 q 892 328 829 271 l 888 46 q 608 -18 767 -18 z "},"Т":{"ha":749,"x_min":17,"x_max":732,"o":"m 506 0 l 243 0 l 243 810 l 17 810 l 17 1047 l 732 1047 l 732 810 l 506 810 l 506 0 z "},"У":{"ha":1004,"x_min":15,"x_max":1015,"o":"m 543 554 l 744 1047 l 1015 1047 l 658 251 q 510 42 590 100 q 308 -15 431 -15 q 53 69 160 -15 l 171 260 q 307 207 232 207 q 376 226 347 207 q 433 297 406 246 l 15 1047 l 293 1047 l 543 554 z "},"Ф":{"ha":1344,"x_min":65,"x_max":1279,"o":"m 1279 528 q 1149 219 1279 338 q 794 72 1019 100 l 794 -24 l 549 -24 l 549 72 q 195 216 325 97 q 65 533 65 335 q 194 842 65 724 q 549 988 324 961 l 549 1076 l 794 1076 l 794 988 q 1149 843 1019 963 q 1279 528 1279 724 m 785 786 l 785 274 q 963 363 900 296 q 1026 529 1026 429 q 964 697 1026 631 q 785 786 901 764 m 318 531 q 382 363 318 429 q 558 272 446 296 l 558 786 q 381 696 444 763 q 318 531 318 629 z "},"Х":{"ha":999,"x_min":6,"x_max":992,"o":"m 304 0 l 6 0 l 353 553 l 44 1047 l 343 1047 l 501 738 l 664 1047 l 963 1047 l 649 553 l 992 0 l 694 0 l 501 361 l 304 0 z "},"Ц":{"ha":1149,"x_min":119,"x_max":1113,"o":"m 1113 -254 l 886 -254 l 886 0 l 119 0 l 119 1047 l 376 1047 l 376 231 l 703 231 l 703 1047 l 960 1047 l 960 231 l 1113 231 l 1113 -254 z "},"Ч":{"ha":1025,"x_min":108,"x_max":906,"o":"m 906 0 l 649 0 l 649 393 q 410 367 540 367 q 108 710 108 367 l 108 1047 l 365 1047 l 365 739 q 392 628 365 661 q 483 594 418 594 q 649 615 586 594 l 649 1047 l 906 1047 l 906 0 z "},"Ш":{"ha":1567,"x_min":119,"x_max":1447,"o":"m 1447 0 l 119 0 l 119 1047 l 374 1047 l 374 231 l 656 231 l 656 1047 l 910 1047 l 910 231 l 1192 231 l 1192 1047 l 1447 1047 l 1447 0 z "},"Щ":{"ha":1636,"x_min":119,"x_max":1600,"o":"m 1600 -254 l 1372 -254 l 1372 0 l 119 0 l 119 1047 l 374 1047 l 374 231 l 656 231 l 656 1047 l 910 1047 l 910 231 l 1192 231 l 1192 1047 l 1447 1047 l 1447 231 l 1600 231 l 1600 -254 z "},"Ъ":{"ha":1047,"x_min":17,"x_max":1003,"o":"m 607 0 l 247 0 l 247 817 l 17 817 l 17 1047 l 504 1047 l 504 665 l 621 665 q 901 583 799 665 q 1003 336 1003 501 q 901 88 1003 176 q 607 0 800 0 m 504 472 l 504 200 l 564 200 q 698 229 650 200 q 746 333 746 258 q 563 472 746 472 l 504 472 z "},"Ы":{"ha":1361,"x_min":119,"x_max":1242,"o":"m 465 0 l 119 0 l 119 1047 l 376 1047 l 376 665 l 479 665 q 760 583 657 665 q 863 336 863 501 q 760 88 863 176 q 465 0 658 0 m 1242 0 l 985 0 l 985 1047 l 1242 1047 l 1242 0 m 376 472 l 376 199 l 436 199 q 611 333 611 199 q 433 472 611 472 l 376 472 z "},"Ь":{"ha":919,"x_min":119,"x_max":875,"o":"m 481 0 l 119 0 l 119 1047 l 376 1047 l 376 665 l 492 665 q 772 583 669 665 q 875 336 875 501 q 774 88 875 176 q 481 0 674 0 m 376 472 l 376 200 l 436 200 q 570 229 522 200 q 618 333 618 258 q 433 472 618 472 l 376 472 z "},"Э":{"ha":964,"x_min":72,"x_max":892,"o":"m 342 1067 q 733 906 574 1067 q 892 517 892 744 q 737 137 892 292 q 356 -18 582 -18 q 78 46 199 -18 l 72 301 q 324 206 192 206 q 508 268 429 206 q 615 431 588 331 l 224 431 l 224 626 l 613 626 q 504 783 582 724 q 328 842 426 842 q 72 743 199 842 l 78 1004 q 342 1067 207 1067 z "},"Ю":{"ha":1654,"x_min":119,"x_max":1582,"o":"m 1036 1067 q 1426 912 1269 1067 q 1582 522 1582 757 q 1427 133 1582 286 q 1036 -19 1272 -19 q 675 105 819 -19 q 500 424 531 229 l 376 424 l 376 0 l 119 0 l 119 1047 l 376 1047 l 376 651 l 506 651 q 688 951 546 835 q 1036 1067 829 1067 m 834 306 q 873 261 834 306 q 1036 217 911 217 q 1238 306 1161 217 q 1315 522 1315 394 q 1238 735 1315 646 q 1036 824 1160 824 q 835 735 913 824 q 757 522 757 647 q 834 306 757 394 z "},"Я":{"ha":938,"x_min":10,"x_max":818,"o":"m 479 1047 l 818 1047 l 818 0 l 561 0 l 561 378 l 515 378 l 306 0 l 10 0 l 281 411 q 128 530 182 450 q 75 713 75 610 q 183 961 75 875 q 479 1047 290 1047 m 514 568 l 564 568 l 564 839 l 511 839 q 374 809 419 839 q 329 706 329 779 q 376 600 329 632 q 514 568 422 568 z "},"а":{"ha":950,"x_min":60,"x_max":851,"o":"m 386 -18 q 150 88 240 -18 q 60 347 60 193 q 151 607 60 500 q 389 714 243 714 q 606 617 519 714 l 607 617 l 606 697 l 851 697 l 851 0 l 606 0 l 607 85 l 606 85 q 386 -18 503 -18 m 350 231 q 370 209 350 231 q 460 186 390 186 q 572 231 529 186 q 615 347 615 276 q 572 464 615 418 q 461 510 529 510 q 351 464 393 510 q 310 349 310 418 q 350 231 310 276 z "},"б":{"ha":931,"x_min":72,"x_max":871,"o":"m 486 -18 q 178 113 283 -18 q 72 489 72 244 q 147 877 72 728 q 393 1072 221 1026 q 604 1121 469 1094 q 783 1158 739 1147 l 824 963 q 644 925 771 947 q 460 886 517 903 q 365 840 399 868 q 309 751 331 811 q 281 585 288 690 l 283 585 q 535 706 363 706 q 778 603 686 706 q 871 354 871 500 q 767 90 871 199 q 486 -18 664 -18 m 481 190 q 591 235 547 190 q 635 353 635 281 q 592 472 635 426 q 483 518 550 518 q 363 473 408 518 q 317 353 317 428 q 363 236 317 282 q 481 190 408 190 z "},"в":{"ha":833,"x_min":99,"x_max":779,"o":"m 497 0 l 99 0 l 99 699 l 471 699 q 657 652 590 699 q 724 518 724 606 q 642 372 724 413 q 779 208 779 329 q 497 0 779 0 m 343 550 l 343 424 l 413 424 q 494 489 494 424 q 415 550 494 550 l 343 550 m 343 292 l 343 146 l 428 146 q 525 219 525 146 q 428 292 525 292 l 343 292 z "},"г":{"ha":608,"x_min":99,"x_max":589,"o":"m 347 0 l 99 0 l 99 699 l 589 699 l 589 494 l 347 494 l 347 0 z "},"д":{"ha":933,"x_min":4,"x_max":904,"o":"m 213 -215 l 4 -215 l 4 201 l 29 201 q 80 213 58 201 q 115 240 101 224 q 139 292 128 257 q 156 358 150 326 q 171 447 163 389 l 208 699 l 790 699 l 790 203 l 904 203 l 904 -215 l 694 -215 l 694 0 l 213 0 l 213 -215 m 310 203 l 549 203 l 549 503 l 407 503 l 396 406 q 367 280 385 325 q 310 203 349 235 z "},"е":{"ha":868,"x_min":60,"x_max":808,"o":"m 808 336 q 807 301 808 313 l 311 301 q 347 189 314 231 q 442 147 381 147 q 565 228 522 147 l 792 189 q 658 35 753 88 q 442 -18 564 -18 q 166 79 272 -18 q 60 344 60 176 q 165 614 60 513 q 433 715 271 715 q 706 615 603 715 q 808 336 808 514 m 317 439 l 558 439 q 519 520 551 490 q 438 550 488 550 q 356 519 388 550 q 317 439 325 489 z "},"ж":{"ha":1250,"x_min":4,"x_max":1244,"o":"m 279 0 l 4 0 l 304 374 l 22 697 l 289 697 l 504 439 l 504 697 l 744 697 l 744 439 l 960 697 l 1226 697 l 944 374 l 1244 0 l 969 0 l 765 279 l 744 263 l 744 0 l 504 0 l 504 263 l 483 279 l 279 0 z "},"з":{"ha":754,"x_min":39,"x_max":694,"o":"m 371 -19 q 39 100 151 -19 l 146 249 q 344 153 231 153 q 451 221 451 153 q 346 286 451 286 l 258 286 l 258 428 l 331 428 q 426 489 426 428 q 339 544 426 544 q 167 481 235 544 l 78 624 q 375 715 189 715 q 583 667 504 715 q 661 524 661 618 q 630 430 661 471 q 547 371 599 389 q 656 308 618 353 q 694 203 694 263 q 608 38 694 96 q 371 -19 522 -19 z "},"и":{"ha":925,"x_min":99,"x_max":826,"o":"m 332 360 l 665 713 l 826 713 l 826 0 l 593 0 l 593 344 l 260 -15 l 99 -15 l 99 697 l 332 697 l 332 360 z "},"й":{"ha":925,"x_min":99,"x_max":826,"o":"m 474 811 q 278 872 353 811 q 174 1029 203 933 l 339 1069 q 474 954 367 954 q 608 1069 581 954 l 774 1029 q 670 872 744 933 q 474 811 596 811 m 332 360 l 665 713 l 826 713 l 826 0 l 593 0 l 593 344 l 260 -15 l 99 -15 l 99 697 l 332 697 l 332 360 z "},"к":{"ha":860,"x_min":99,"x_max":856,"o":"m 553 378 l 856 0 l 557 0 l 371 275 l 349 263 l 349 0 l 99 0 l 99 697 l 349 697 l 349 446 l 549 697 l 838 697 l 553 378 z "},"л":{"ha":882,"x_min":-1,"x_max":790,"o":"m 117 -7 q -1 8 54 -7 l 26 197 q 71 189 49 189 q 131 226 111 189 q 161 354 150 263 l 200 699 l 790 699 l 790 0 l 542 0 l 542 494 l 410 494 l 389 313 q 364 171 379 225 q 319 74 349 117 q 240 12 289 31 q 117 -7 192 -7 z "},"м":{"ha":1081,"x_min":26,"x_max":1053,"o":"m 703 697 l 925 697 l 1053 0 l 808 0 l 757 376 l 754 376 l 607 0 l 474 0 l 326 376 l 324 376 l 272 0 l 26 0 l 156 697 l 376 697 l 539 289 l 703 697 z "},"н":{"ha":897,"x_min":99,"x_max":799,"o":"m 347 0 l 99 0 l 99 699 l 347 699 l 347 458 l 550 458 l 550 699 l 799 699 l 799 0 l 550 0 l 550 261 l 347 261 l 347 0 z "},"о":{"ha":918,"x_min":60,"x_max":858,"o":"m 457 -18 q 172 82 283 -18 q 60 351 60 182 q 172 615 60 514 q 458 715 285 715 q 745 615 632 715 q 858 349 858 514 q 745 81 858 181 q 457 -18 632 -18 m 349 232 q 370 210 349 232 q 458 188 390 188 q 568 232 526 188 q 610 349 610 276 q 568 464 610 419 q 458 508 526 508 q 350 464 392 508 q 308 350 308 419 q 349 232 308 276 z "},"п":{"ha":894,"x_min":99,"x_max":796,"o":"m 347 0 l 99 0 l 99 699 l 796 699 l 796 0 l 547 0 l 547 496 l 347 496 l 347 0 z "},"р":{"ha":949,"x_min":99,"x_max":889,"o":"m 349 -333 l 99 -333 l 99 697 l 344 697 l 343 613 l 346 613 q 565 715 433 715 q 801 609 713 715 q 889 349 889 503 q 799 90 889 197 q 563 -17 708 -17 q 346 86 431 -17 l 344 86 q 349 -43 349 32 l 349 -333 m 378 233 q 399 210 378 233 q 489 188 421 188 q 599 233 557 188 q 640 349 640 279 q 599 466 640 421 q 489 511 558 511 q 378 466 421 511 q 335 350 335 421 q 378 233 335 279 z "},"с":{"ha":692,"x_min":60,"x_max":633,"o":"m 443 -18 q 165 81 271 -18 q 60 346 60 181 q 164 610 60 504 q 431 715 268 715 q 633 672 547 715 l 633 439 q 471 513 556 513 q 356 467 400 513 q 313 349 313 421 q 355 232 313 278 q 469 186 397 186 q 633 256 549 186 l 626 25 q 443 -18 547 -18 z "},"т":{"ha":646,"x_min":19,"x_max":628,"o":"m 447 0 l 199 0 l 199 496 l 19 496 l 19 699 l 628 699 l 628 496 l 447 496 l 447 0 z "},"у":{"ha":843,"x_min":-4,"x_max":847,"o":"m 428 301 l 579 697 l 847 697 l 347 -333 l 76 -333 l 303 106 l -4 697 l 272 697 l 428 301 z "},"ф":{"ha":1165,"x_min":60,"x_max":1106,"o":"m 707 -333 l 458 -333 l 458 -15 q 313 9 382 -12 q 186 72 244 31 q 94 185 128 114 q 60 349 60 256 q 83 485 60 424 q 144 587 106 546 q 234 656 182 628 q 342 697 286 683 q 458 711 397 710 l 458 1133 l 707 1133 l 707 711 q 852 688 783 708 q 979 625 921 667 q 1072 513 1038 583 q 1106 349 1106 442 q 1072 184 1106 256 q 979 71 1038 113 q 852 8 921 29 q 707 -15 783 -12 l 707 -333 m 469 174 l 469 522 q 352 476 400 521 q 304 347 304 431 q 351 218 304 261 q 469 174 399 175 m 696 522 l 696 174 q 814 218 767 175 q 861 347 861 261 q 813 476 861 431 q 696 522 765 521 z "},"х":{"ha":871,"x_min":4,"x_max":867,"o":"m 585 363 l 867 0 l 571 0 l 439 204 l 307 0 l 4 0 l 297 367 l 40 697 l 331 697 l 439 518 l 440 519 l 551 697 l 843 697 l 585 363 z "},"ц":{"ha":940,"x_min":99,"x_max":911,"o":"m 911 -203 l 710 -203 l 710 0 l 99 0 l 99 699 l 347 699 l 347 203 l 546 203 l 546 699 l 796 699 l 796 203 l 911 203 l 911 -203 z "},"ч":{"ha":875,"x_min":85,"x_max":776,"o":"m 776 0 l 528 0 l 528 238 q 344 214 431 214 q 85 436 85 214 l 85 699 l 326 699 l 326 499 q 347 426 326 446 q 424 407 368 407 q 528 428 482 407 l 528 699 l 776 699 l 776 0 z "},"ш":{"ha":1264,"x_min":99,"x_max":1165,"o":"m 1165 0 l 99 0 l 99 699 l 342 699 l 342 203 l 510 203 l 510 699 l 754 699 l 754 203 l 921 203 l 921 699 l 1165 699 l 1165 0 z "},"щ":{"ha":1311,"x_min":99,"x_max":1281,"o":"m 1281 -203 l 1079 -203 l 1079 0 l 99 0 l 99 699 l 342 699 l 342 203 l 510 203 l 510 699 l 754 699 l 754 203 l 921 203 l 921 699 l 1165 699 l 1165 203 l 1281 203 l 1281 -203 z "},"ъ":{"ha":913,"x_min":19,"x_max":851,"o":"m 568 0 l 186 0 l 186 494 l 19 494 l 19 699 l 436 699 l 436 469 l 572 469 q 851 239 851 469 q 777 62 851 124 q 568 0 703 0 m 436 317 l 436 157 l 504 157 q 611 238 611 157 q 501 317 611 317 l 436 317 z "},"ы":{"ha":1189,"x_min":99,"x_max":1092,"o":"m 474 0 l 99 0 l 99 699 l 347 699 l 347 469 l 476 469 q 757 239 757 469 q 683 62 757 124 q 474 0 608 0 m 1092 0 l 842 0 l 842 699 l 1092 699 l 1092 0 m 347 317 l 347 157 l 417 157 q 524 238 524 157 q 415 317 524 317 l 347 317 z "},"ь":{"ha":824,"x_min":99,"x_max":764,"o":"m 479 0 l 99 0 l 99 699 l 347 699 l 347 469 l 483 469 q 764 239 764 469 q 690 62 764 124 q 479 0 615 0 m 347 317 l 347 157 l 417 157 q 524 238 524 157 q 415 317 524 317 l 347 317 z "},"э":{"ha":704,"x_min":58,"x_max":644,"o":"m 271 715 q 539 610 433 715 q 644 346 644 504 q 537 81 644 181 q 258 -18 429 -18 q 65 25 154 -18 l 58 235 q 232 161 140 161 q 332 192 290 161 q 389 279 374 222 l 144 279 l 144 426 l 385 426 q 324 508 365 481 q 228 536 282 536 q 61 458 136 536 l 61 672 q 271 715 160 715 z "},"ю":{"ha":1264,"x_min":99,"x_max":1204,"o":"m 811 717 q 1092 615 981 717 q 1204 344 1204 513 q 1090 81 1204 182 q 811 -19 976 -19 q 560 58 663 -19 q 429 260 458 135 l 347 260 l 347 0 l 99 0 l 99 699 l 347 699 l 347 454 l 433 454 q 567 645 467 574 q 811 717 668 717 m 811 186 q 916 235 874 186 q 958 350 958 285 q 916 463 958 415 q 810 510 874 510 q 706 463 747 510 q 664 349 664 415 q 706 234 664 282 q 811 186 747 186 z "},"я":{"ha":839,"x_min":43,"x_max":740,"o":"m 358 699 l 740 699 l 740 0 l 492 0 l 492 226 l 447 226 l 313 0 l 43 0 l 228 250 q 76 465 76 303 q 149 635 76 572 q 358 699 222 699 m 417 385 l 497 385 l 497 539 l 417 539 q 318 461 318 539 q 417 385 318 385 z "},"ѐ":{"ha":868,"x_min":60,"x_max":808,"o":"m 376 1108 l 575 850 l 444 775 l 186 988 l 376 1108 m 808 336 q 807 301 808 313 l 311 301 q 347 189 314 231 q 442 147 381 147 q 565 228 522 147 l 792 189 q 658 35 753 88 q 442 -18 564 -18 q 166 79 272 -18 q 60 344 60 176 q 165 614 60 513 q 433 715 271 715 q 706 615 603 715 q 808 336 808 514 m 317 439 l 558 439 q 519 520 551 490 q 438 550 488 550 q 356 519 388 550 q 317 439 325 489 z "},"ё":{"ha":868,"x_min":60,"x_max":808,"o":"m 271 807 q 187 841 221 807 q 153 924 153 875 q 188 1006 153 972 q 271 1040 222 1040 q 352 1006 318 1040 q 386 922 386 972 q 352 840 386 874 q 271 807 318 807 m 601 807 q 517 840 551 807 q 483 924 483 874 q 518 1007 483 974 q 601 1040 553 1040 q 684 1006 650 1040 q 718 922 718 971 q 684 840 718 874 q 601 807 650 807 m 808 336 q 807 301 808 313 l 311 301 q 347 189 314 231 q 442 147 381 147 q 565 228 522 147 l 792 189 q 658 35 753 88 q 442 -18 564 -18 q 166 79 272 -18 q 60 344 60 176 q 165 614 60 513 q 433 715 271 715 q 706 615 603 715 q 808 336 808 514 m 317 439 l 558 439 q 519 520 551 490 q 438 550 488 550 q 356 519 388 550 q 317 439 325 489 z "},"ђ":{"ha":883,"x_min":0,"x_max":792,"o":"m 567 -329 q 432 -312 503 -329 l 432 -126 q 485 -135 457 -135 q 547 -53 547 -135 l 547 375 q 453 507 547 507 q 340 351 340 507 l 340 0 l 90 0 l 90 869 l 0 869 l 0 976 l 90 976 l 90 1133 l 340 1133 l 340 976 l 515 976 l 515 869 l 340 869 l 340 751 q 333 600 340 686 l 336 600 q 554 715 438 715 q 733 638 675 715 q 792 428 792 561 l 792 -82 q 567 -329 792 -329 z "},"ѓ":{"ha":608,"x_min":99,"x_max":594,"o":"m 594 989 l 336 776 l 207 851 l 404 1110 l 594 989 m 347 0 l 99 0 l 99 699 l 589 699 l 589 494 l 347 494 l 347 0 z "},"є":{"ha":700,"x_min":60,"x_max":646,"o":"m 472 161 q 646 235 564 161 l 639 25 q 446 -18 550 -18 q 167 81 275 -18 q 60 346 60 181 q 165 609 60 503 q 433 715 271 715 q 643 672 547 715 l 643 458 q 476 536 569 536 q 381 508 424 536 q 319 426 339 479 l 560 426 l 560 279 l 315 279 q 372 192 331 222 q 472 161 414 161 z "},"ѕ":{"ha":679,"x_min":50,"x_max":624,"o":"m 335 -19 q 50 94 156 -19 l 161 243 q 319 164 233 164 q 385 210 385 164 q 363 247 385 232 q 279 285 342 261 q 135 364 183 315 q 86 494 86 413 q 165 658 86 601 q 361 715 243 715 q 601 636 518 715 l 501 486 q 375 539 449 539 q 317 501 317 539 q 340 469 317 483 q 433 431 364 456 q 577 353 531 401 q 624 219 624 306 q 544 45 624 110 q 335 -19 464 -19 z "},"і":{"ha":446,"x_min":76,"x_max":368,"o":"m 326 867 q 305 849 326 867 q 222 831 283 831 q 119 867 161 831 q 76 965 76 903 q 118 1061 76 1024 q 222 1099 160 1099 q 326 1061 285 1099 q 368 965 368 1024 q 326 867 368 903 m 347 0 l 97 0 l 97 697 l 347 697 l 347 0 z "},"ї":{"ha":447,"x_min":-57,"x_max":508,"o":"m 61 807 q -23 841 11 807 q -57 924 -57 875 q -22 1006 -57 972 q 61 1040 13 1040 q 142 1006 108 1040 q 176 922 176 972 q 142 840 176 874 q 61 807 108 807 m 392 807 q 308 840 342 807 q 274 924 274 874 q 308 1007 274 974 q 392 1040 343 1040 q 474 1006 440 1040 q 508 922 508 971 q 474 840 508 874 q 392 807 440 807 m 349 0 l 99 0 l 99 697 l 349 697 l 349 0 z "},"ј":{"ha":446,"x_min":76,"x_max":368,"o":"m 326 867 q 305 849 326 867 q 222 831 283 831 q 119 867 161 831 q 76 965 76 903 q 118 1061 76 1024 q 222 1099 160 1099 q 326 1061 285 1099 q 368 965 368 1024 q 326 867 368 903 m 347 -333 l 97 -333 l 97 697 l 347 697 l 347 -333 z "},"љ":{"ha":1231,"x_min":-1,"x_max":1171,"o":"m 117 -7 q -1 8 54 -7 l 26 197 q 71 189 49 189 q 131 226 111 189 q 161 354 150 263 l 200 699 l 776 699 l 776 469 l 890 469 q 1171 239 1171 469 q 1097 62 1171 124 q 886 0 1022 0 l 526 0 l 526 494 l 410 494 l 389 313 q 364 171 379 225 q 319 74 349 117 q 240 12 289 31 q 117 -7 192 -7 m 776 317 l 776 157 l 829 157 q 938 238 938 157 q 828 317 938 317 l 776 317 z "},"њ":{"ha":1275,"x_min":99,"x_max":1215,"o":"m 347 0 l 99 0 l 99 699 l 347 699 l 347 456 l 550 456 l 550 699 l 799 699 l 799 456 l 942 456 q 1215 232 1215 456 q 1143 60 1215 119 q 938 0 1071 0 l 550 0 l 550 268 l 347 268 l 347 0 m 792 306 l 792 154 l 869 154 q 972 231 972 154 q 869 306 972 306 l 792 306 z "},"ћ":{"ha":893,"x_min":0,"x_max":801,"o":"m 561 715 q 742 638 682 715 q 801 429 801 560 l 801 0 l 551 0 l 551 365 q 531 472 551 438 q 460 506 511 506 q 375 465 401 506 q 349 339 349 425 l 349 0 l 99 0 l 99 867 l 0 867 l 0 981 l 99 981 l 99 1133 l 349 1133 l 349 981 l 526 981 l 526 867 l 349 867 l 349 772 q 346 677 349 743 q 343 604 343 611 l 346 604 q 561 715 436 715 z "},"ќ":{"ha":860,"x_min":99,"x_max":856,"o":"m 486 1108 l 676 988 l 418 775 l 289 850 l 486 1108 m 553 378 l 856 0 l 557 0 l 371 275 l 349 263 l 349 0 l 99 0 l 99 697 l 349 697 l 349 446 l 549 697 l 838 697 l 553 378 z "},"ѝ":{"ha":925,"x_min":99,"x_max":826,"o":"m 415 1108 l 614 850 l 483 775 l 225 988 l 415 1108 m 332 360 l 665 713 l 826 713 l 826 0 l 593 0 l 593 344 l 260 -15 l 99 -15 l 99 697 l 332 697 l 332 360 z "},"ў":{"ha":843,"x_min":-4,"x_max":847,"o":"m 421 810 q 225 871 300 810 q 121 1028 150 932 l 286 1068 q 421 953 314 953 q 556 1068 528 953 l 721 1028 q 617 871 692 932 q 421 810 543 810 m 428 301 l 579 697 l 847 697 l 347 -333 l 76 -333 l 303 106 l -4 697 l 272 697 l 428 301 z "},"џ":{"ha":894,"x_min":99,"x_max":796,"o":"m 549 -201 l 347 -201 l 347 0 l 99 0 l 99 699 l 347 699 l 347 203 l 547 203 l 547 699 l 796 699 l 796 0 l 549 0 l 549 -201 z "},"Ґ":{"ha":746,"x_min":119,"x_max":729,"o":"m 376 0 l 119 0 l 119 1047 l 503 1047 l 503 1260 l 729 1260 l 729 815 l 376 815 l 376 0 z "},"ґ":{"ha":617,"x_min":99,"x_max":597,"o":"m 347 0 l 99 0 l 99 699 l 389 699 l 389 913 l 597 913 l 597 494 l 347 494 l 347 0 z "},"Ғ":{"ha":774,"x_min":7,"x_max":757,"o":"m 757 1047 l 757 815 l 411 815 l 411 589 l 640 589 l 640 417 l 411 417 l 411 0 l 154 0 l 154 417 l 7 417 l 7 589 l 154 589 l 154 1047 l 757 1047 z "},"ғ":{"ha":663,"x_min":7,"x_max":631,"o":"m 631 699 l 631 501 l 386 501 l 386 378 l 553 378 l 553 231 l 386 231 l 386 0 l 138 0 l 138 231 l 7 231 l 7 378 l 138 378 l 138 699 l 631 699 z "},"Җ":{"ha":1560,"x_min":6,"x_max":1544,"o":"m 1544 -254 l 1317 -254 l 1317 0 l 1204 0 l 932 422 l 886 375 l 886 0 l 629 0 l 629 375 l 583 422 l 311 0 l 6 0 l 408 578 l 24 1047 l 317 1047 l 633 644 l 629 1047 l 886 1047 l 882 644 l 1199 1047 l 1492 1047 l 1107 578 l 1351 231 l 1544 231 l 1544 -254 z "},"җ":{"ha":1251,"x_min":4,"x_max":1249,"o":"m 1249 -203 l 1047 -203 l 1047 0 l 949 0 l 754 267 l 732 247 l 732 0 l 492 0 l 492 249 l 471 267 l 275 0 l 4 0 l 293 360 l 22 699 l 283 699 l 492 426 l 492 699 l 732 699 l 732 426 l 940 699 l 1201 699 l 932 360 l 1064 203 l 1249 203 l 1249 -203 z "},"Қ":{"ha":1068,"x_min":119,"x_max":1053,"o":"m 1053 -254 l 825 -254 l 825 0 l 710 0 l 390 471 l 375 457 l 376 0 l 119 0 l 119 1047 l 376 1047 l 375 613 l 706 1047 l 1013 1047 l 610 557 l 864 231 l 1053 231 l 1053 -254 z "},"қ":{"ha":881,"x_min":99,"x_max":878,"o":"m 878 -196 l 675 -196 l 675 0 l 557 0 l 347 296 l 347 0 l 99 0 l 99 697 l 347 697 l 347 404 l 564 697 l 838 697 l 569 361 l 699 203 l 878 203 l 878 -196 z "},"Ҝ":{"ha":1113,"x_min":119,"x_max":1107,"o":"m 744 557 l 1107 0 l 804 0 l 551 415 l 551 257 l 432 257 l 432 432 l 376 432 l 376 0 l 119 0 l 119 1047 l 376 1047 l 376 656 l 432 656 l 432 828 l 551 828 l 551 675 l 789 1047 l 1081 1047 l 744 557 z "},"ҝ":{"ha":1008,"x_min":99,"x_max":1004,"o":"m 982 699 l 708 361 l 1004 0 l 711 0 l 515 261 l 507 261 l 507 121 l 401 121 l 401 261 l 347 261 l 347 0 l 99 0 l 99 699 l 347 699 l 347 458 l 401 458 l 401 589 l 507 589 l 507 458 l 517 458 l 694 699 l 982 699 z "},"Ң":{"ha":1165,"x_min":119,"x_max":1128,"o":"m 1128 -254 l 900 -254 l 900 0 l 725 0 l 725 431 l 376 431 l 376 0 l 119 0 l 119 1047 l 376 1047 l 376 660 l 725 660 l 725 1047 l 982 1047 l 982 231 l 1128 231 l 1128 -254 z "},"ң":{"ha":944,"x_min":99,"x_max":915,"o":"m 915 -203 l 713 -203 l 713 0 l 550 0 l 550 261 l 347 261 l 347 0 l 99 0 l 99 699 l 347 699 l 347 458 l 550 458 l 550 699 l 799 699 l 799 203 l 915 203 l 915 -203 z "},"Ү":{"ha":947,"x_min":-7,"x_max":956,"o":"m 604 0 l 346 0 l 346 453 l -7 1047 l 292 1047 l 476 690 l 657 1047 l 956 1047 l 604 453 l 604 0 z "},"ү":{"ha":811,"x_min":-4,"x_max":815,"o":"m 531 -333 l 282 -333 l 282 -3 l -4 697 l 267 697 l 406 265 l 544 697 l 815 697 l 531 -3 l 531 -333 z "},"Ұ":{"ha":947,"x_min":-7,"x_max":956,"o":"m 956 1047 l 604 453 l 604 386 l 792 386 l 792 214 l 604 214 l 604 0 l 346 0 l 346 214 l 158 214 l 158 386 l 346 386 l 346 453 l -7 1047 l 292 1047 l 476 690 l 657 1047 l 956 1047 z "},"ұ":{"ha":811,"x_min":-4,"x_max":815,"o":"m 815 697 l 531 -3 l 531 -25 l 679 -25 l 679 -172 l 531 -172 l 531 -333 l 282 -333 l 282 -172 l 133 -172 l 133 -25 l 282 -25 l 282 -3 l -4 697 l 267 697 l 406 265 l 544 697 l 815 697 z "},"Ҳ":{"ha":1035,"x_min":6,"x_max":1024,"o":"m 1024 -254 l 796 -254 l 796 0 l 694 0 l 501 353 l 306 0 l 6 0 l 353 554 l 47 1047 l 347 1047 l 504 746 l 661 1047 l 961 1047 l 649 554 l 846 231 l 1024 231 l 1024 -254 z "},"ҳ":{"ha":910,"x_min":4,"x_max":907,"o":"m 907 -203 l 706 -203 l 706 0 l 590 0 l 443 210 l 306 0 l 4 0 l 306 372 l 49 699 l 339 699 l 449 521 l 561 699 l 853 699 l 592 368 l 724 203 l 907 203 l 907 -203 z "},"Ҹ":{"ha":1107,"x_min":108,"x_max":986,"o":"m 729 617 l 729 1047 l 986 1047 l 986 0 l 729 0 l 729 393 q 606 383 683 388 l 606 206 l 486 206 l 486 381 l 438 381 q 108 703 108 381 l 108 1047 l 360 1047 l 360 760 q 388 651 360 685 q 486 611 415 618 l 486 776 l 606 776 l 606 610 q 729 617 694 611 z "},"ҹ":{"ha":940,"x_min":85,"x_max":842,"o":"m 593 429 l 593 699 l 842 699 l 842 0 l 593 0 l 593 238 q 514 224 517 224 l 514 76 l 408 76 l 408 214 l 375 214 q 153 264 222 214 q 85 436 85 314 l 85 699 l 326 699 l 326 499 q 343 430 326 449 q 408 408 360 411 l 408 546 l 514 546 l 514 411 q 593 429 567 418 z "},"Һ":{"ha":1025,"x_min":119,"x_max":917,"o":"m 376 0 l 119 0 l 119 1047 l 376 1047 l 376 663 q 593 672 481 672 q 840 591 764 672 q 917 351 917 510 l 917 0 l 660 0 l 660 294 q 628 410 660 374 q 518 446 597 446 q 376 438 424 446 l 376 0 z "},"һ":{"ha":893,"x_min":99,"x_max":801,"o":"m 349 0 l 99 0 l 99 1133 l 349 1133 l 349 772 q 343 604 349 699 l 347 604 q 441 688 392 660 q 561 715 490 715 q 742 638 682 715 q 801 429 801 560 l 801 0 l 551 0 l 551 365 q 531 472 551 438 q 460 506 511 506 q 375 465 401 506 q 349 339 349 425 l 349 0 z "},"Ӏ":{"ha":496,"x_min":119,"x_max":376,"o":"m 376 0 l 119 0 l 119 1047 l 376 1047 l 376 0 z "},"ӏ":{"ha":447,"x_min":99,"x_max":349,"o":"m 349 0 l 99 0 l 99 1133 l 349 1133 l 349 0 z "},"Ә":{"ha":1260,"x_min":72,"x_max":1188,"o":"m 638 1065 q 1028 910 868 1065 q 1188 522 1188 756 q 1026 135 1188 288 q 633 -18 865 -18 q 218 150 364 -18 q 72 601 72 318 l 72 607 l 914 607 q 814 773 889 710 q 639 836 739 836 q 372 728 475 836 l 157 843 q 356 1004 229 943 q 638 1065 483 1065 m 633 200 q 807 260 732 200 q 910 419 882 321 l 351 419 q 447 259 374 318 q 633 200 519 200 z "},"ә":{"ha":868,"x_min":60,"x_max":808,"o":"m 426 715 q 702 618 596 715 q 808 353 808 521 q 703 83 808 185 q 435 -18 597 -18 q 162 83 264 -18 q 60 361 60 183 l 60 396 l 557 396 q 521 509 554 468 q 425 550 488 550 q 300 464 349 550 l 72 500 q 212 662 117 608 q 426 715 307 715 m 431 147 q 512 178 481 147 q 551 258 543 208 l 310 258 q 347 177 315 207 q 431 147 379 147 z "},"Ө":{"ha":1269,"x_min":72,"x_max":1197,"o":"m 238 910 q 320 988 238 910 q 636 1065 403 1065 q 1033 910 869 1065 q 1197 522 1197 754 q 1033 135 1197 288 q 632 -18 868 -18 q 353 49 481 -18 q 149 241 226 115 q 72 525 72 367 q 238 910 72 754 m 635 835 q 458 776 535 835 q 353 624 382 718 l 917 624 q 812 776 888 718 q 635 835 736 835 m 632 213 q 816 274 738 213 q 921 435 894 335 l 349 435 q 454 274 375 335 q 632 213 533 213 z "},"ө":{"ha":914,"x_min":60,"x_max":854,"o":"m 172 613 q 228 664 172 613 q 457 715 285 715 q 742 613 629 715 q 854 343 854 510 q 740 82 854 182 q 456 -18 625 -18 q 174 83 288 -18 q 60 347 60 183 q 172 613 60 511 m 596 422 q 457 549 567 549 q 318 422 347 549 l 596 422 m 457 149 q 599 276 571 149 l 317 276 q 457 149 344 149 z "},"Ẁ":{"ha":1553,"x_min":1,"x_max":1551,"o":"m 944 1201 l 817 1124 l 549 1324 l 736 1450 l 944 1201 m 575 0 l 393 0 l 1 1047 l 278 1047 l 485 389 l 696 1047 l 851 1047 l 1056 389 l 1275 1047 l 1551 1047 l 1149 0 l 963 0 l 774 625 l 575 0 z "},"ẁ":{"ha":1189,"x_min":-6,"x_max":1196,"o":"m 735 850 l 604 775 l 346 988 l 536 1108 l 735 850 m 468 0 l 304 0 l -6 697 l 263 697 l 394 304 l 526 697 l 664 697 l 799 304 l 928 697 l 1196 697 l 885 0 l 722 0 l 596 354 l 468 0 z "},"Ẃ":{"ha":1553,"x_min":1,"x_max":1551,"o":"m 986 1324 l 718 1124 l 590 1201 l 799 1450 l 986 1324 m 575 0 l 393 0 l 1 1047 l 278 1047 l 485 389 l 696 1047 l 851 1047 l 1056 389 l 1275 1047 l 1551 1047 l 1149 0 l 963 0 l 774 625 l 575 0 z "},"ẃ":{"ha":1189,"x_min":-6,"x_max":1196,"o":"m 833 988 l 575 775 l 446 850 l 643 1108 l 833 988 m 468 0 l 304 0 l -6 697 l 263 697 l 394 304 l 526 697 l 664 697 l 799 304 l 928 697 l 1196 697 l 885 0 l 722 0 l 596 354 l 468 0 z "},"Ẅ":{"ha":1553,"x_min":1,"x_max":1551,"o":"m 606 1156 q 517 1192 553 1156 q 482 1279 482 1228 q 518 1367 482 1331 q 606 1403 554 1403 q 692 1367 656 1403 q 728 1279 728 1331 q 692 1191 728 1226 q 606 1156 656 1156 m 943 1156 q 854 1191 890 1156 q 818 1279 818 1226 q 855 1367 818 1332 q 943 1403 892 1403 q 1031 1367 994 1403 q 1067 1279 1067 1331 q 1031 1191 1067 1226 q 943 1156 994 1156 m 575 0 l 393 0 l 1 1047 l 278 1047 l 485 389 l 696 1047 l 851 1047 l 1056 389 l 1275 1047 l 1551 1047 l 1149 0 l 963 0 l 774 625 l 575 0 z "},"ẅ":{"ha":1189,"x_min":-6,"x_max":1196,"o":"m 431 807 q 347 841 381 807 q 313 924 313 875 q 347 1006 313 972 q 431 1040 382 1040 q 512 1006 478 1040 q 546 922 546 972 q 512 840 546 874 q 431 807 478 807 m 761 807 q 677 840 711 807 q 643 924 643 874 q 678 1007 643 974 q 761 1040 713 1040 q 844 1006 810 1040 q 878 922 878 971 q 844 840 878 874 q 761 807 810 807 m 468 0 l 304 0 l -6 697 l 263 697 l 394 304 l 526 697 l 664 697 l 799 304 l 928 697 l 1196 697 l 885 0 l 722 0 l 596 354 l 468 0 z "},"ẞ":{"ha":1193,"x_min":108,"x_max":1118,"o":"m 854 633 l 921 590 q 1069 451 1019 524 q 1118 274 1118 378 q 1030 63 1118 144 q 789 -18 942 -18 q 474 122 590 -18 l 599 275 q 771 178 671 178 q 836 205 813 178 q 860 269 860 232 q 831 353 860 314 q 726 440 803 393 l 574 540 l 574 549 l 719 840 l 583 840 q 419 791 475 840 q 364 632 364 742 l 364 0 l 108 0 l 108 640 q 233 947 108 847 q 583 1047 357 1047 l 1057 1047 l 1057 1040 l 854 633 z "},"Ỳ":{"ha":947,"x_min":-7,"x_max":956,"o":"m 643 1201 l 515 1124 l 247 1324 l 435 1450 l 643 1201 m 604 0 l 346 0 l 346 453 l -7 1047 l 292 1047 l 476 690 l 657 1047 l 956 1047 l 604 453 l 604 0 z "},"ỳ":{"ha":843,"x_min":-4,"x_max":847,"o":"m 365 1108 l 564 850 l 433 775 l 175 988 l 365 1108 m 428 301 l 579 697 l 847 697 l 347 -333 l 76 -333 l 303 106 l -4 697 l 272 697 l 428 301 z "}," ":{"ha":250,"x_min":0,"x_max":0,"o":""},"‐":{"ha":432,"x_min":35,"x_max":396,"o":"m 396 254 l 35 254 l 35 469 l 396 469 l 396 254 z "},"‑":{"ha":432,"x_min":35,"x_max":396,"o":"m 396 254 l 35 254 l 35 469 l 396 469 l 396 254 z "},"–":{"ha":694,"x_min":-3,"x_max":697,"o":"m 697 300 l -3 300 l -3 515 l 697 515 l 697 300 z "},"—":{"ha":1389,"x_min":-1,"x_max":1390,"o":"m 1390 300 l -1 300 l -1 515 l 1390 515 l 1390 300 z "},"―":{"ha":1389,"x_min":-1,"x_max":1390,"o":"m 1390 300 l -1 300 l -1 515 l 1390 515 l 1390 300 z "},"‗":{"ha":575,"x_min":0,"x_max":575,"o":"m 575 -239 l 0 -239 l 0 -94 l 575 -94 l 575 -239 m 575 -429 l 0 -429 l 0 -286 l 575 -286 l 575 -429 z "},"‘":{"ha":564,"x_min":81,"x_max":486,"o":"m 486 1049 l 322 593 l 81 621 l 299 1071 l 486 1049 z "},"’":{"ha":564,"x_min":79,"x_max":485,"o":"m 485 1043 l 265 593 l 79 617 l 242 1071 l 485 1043 z "},"‚":{"ha":564,"x_min":79,"x_max":485,"o":"m 485 211 l 265 -237 l 79 -215 l 243 239 l 485 211 z "},"‛":{"ha":564,"x_min":79,"x_max":485,"o":"m 485 617 l 299 593 l 79 1043 l 321 1071 l 485 617 z "},"“":{"ha":901,"x_min":81,"x_max":824,"o":"m 486 1049 l 322 593 l 81 621 l 299 1071 l 486 1049 m 824 1049 l 660 593 l 418 621 l 636 1071 l 824 1049 z "},"”":{"ha":904,"x_min":79,"x_max":825,"o":"m 485 1043 l 265 593 l 79 617 l 242 1071 l 485 1043 m 825 1043 l 606 593 l 419 617 l 582 1071 l 825 1043 z "},"„":{"ha":901,"x_min":79,"x_max":824,"o":"m 485 211 l 265 -237 l 79 -215 l 243 239 l 485 211 m 824 211 l 604 -237 l 418 -215 l 582 239 l 824 211 z "},"†":{"ha":946,"x_min":90,"x_max":856,"o":"m 589 -225 l 358 -225 l 358 547 l 90 547 l 90 756 l 358 756 l 358 1047 l 589 1047 l 589 756 l 856 756 l 856 547 l 589 547 l 589 -225 z "},"‡":{"ha":922,"x_min":90,"x_max":832,"o":"m 576 -225 l 346 -225 l 346 136 l 90 136 l 90 322 l 346 322 l 346 614 l 90 614 l 90 801 l 346 801 l 346 1047 l 576 1047 l 576 801 l 832 801 l 832 614 l 576 614 l 576 322 l 832 322 l 832 136 l 576 136 l 576 -225 z "},"•":{"ha":683,"x_min":101,"x_max":582,"o":"m 342 290 q 171 360 240 290 q 101 529 101 429 q 171 699 101 629 q 342 769 240 769 q 512 699 442 769 q 582 529 582 629 q 512 360 582 431 q 342 290 442 290 z "},"…":{"ha":1400,"x_min":101,"x_max":1297,"o":"m 250 -18 q 146 19 190 -18 q 101 113 101 56 q 146 208 101 171 q 250 246 190 246 q 353 208 308 246 q 397 113 397 171 q 353 19 397 56 q 250 -18 308 -18 m 700 -18 q 596 19 640 -18 q 551 113 551 56 q 596 208 551 171 q 700 246 640 246 q 803 208 758 246 q 847 113 847 171 q 803 19 847 56 q 700 -18 758 -18 m 1150 -18 q 1046 19 1090 -18 q 1001 113 1001 56 q 1046 208 1001 171 q 1150 246 1090 246 q 1253 208 1208 246 q 1297 113 1297 171 q 1253 19 1297 56 q 1150 -18 1208 -18 z "},"‰":{"ha":2069,"x_min":57,"x_max":2014,"o":"m 346 528 q 141 601 225 528 q 57 797 57 675 q 142 988 57 915 q 347 1061 226 1061 q 553 988 469 1061 q 638 796 638 914 q 553 601 638 675 q 346 528 468 528 m 1128 957 l 371 32 l 276 111 l 1032 1031 l 1128 957 m 274 720 q 289 705 274 720 q 347 689 303 689 q 421 720 392 689 q 450 796 450 751 q 421 871 450 839 q 347 903 392 903 q 274 872 303 903 q 246 796 246 840 q 274 720 246 751 m 1267 61 q 1225 24 1267 61 q 1061 -12 1182 -12 q 856 61 940 -12 q 772 257 772 135 q 856 447 772 375 q 1063 519 940 519 q 1269 447 1185 519 q 1353 254 1353 375 q 1267 61 1353 135 m 1928 61 q 1886 24 1928 61 q 1722 -12 1843 -12 q 1517 61 1601 -12 q 1432 257 1432 135 q 1516 447 1432 375 q 1722 519 1600 519 q 1929 447 1844 519 q 2014 254 2014 375 q 1928 61 2014 135 m 989 181 q 1003 165 989 181 q 1063 150 1018 150 q 1135 180 1107 150 q 1164 254 1164 210 q 1135 331 1164 299 q 1063 363 1107 363 q 989 331 1018 363 q 960 256 960 299 q 989 181 960 211 m 1650 181 q 1665 165 1650 181 q 1724 150 1679 150 q 1797 181 1768 150 q 1825 254 1825 211 q 1796 331 1825 299 q 1722 363 1767 363 q 1650 331 1679 363 q 1621 256 1621 299 q 1650 181 1621 211 z "},"‹":{"ha":536,"x_min":60,"x_max":465,"o":"m 465 100 l 310 7 l 60 356 l 310 706 l 465 614 l 293 357 l 465 100 z "},"›":{"ha":536,"x_min":71,"x_max":476,"o":"m 476 356 l 226 7 l 71 100 l 243 357 l 71 614 l 226 706 l 476 356 z "},"‼":{"ha":950,"x_min":101,"x_max":849,"o":"m 376 313 l 122 313 l 122 1047 l 376 1047 l 376 313 m 828 313 l 574 313 l 574 1047 l 828 1047 l 828 313 m 250 -18 q 146 19 190 -18 q 101 113 101 56 q 146 208 101 171 q 250 246 190 246 q 353 208 308 246 q 397 113 397 171 q 353 19 397 56 q 250 -18 308 -18 m 701 -18 q 597 19 642 -18 q 553 113 553 56 q 597 208 553 171 q 701 246 642 246 q 804 208 760 246 q 849 113 849 171 q 804 19 849 56 q 701 -18 760 -18 z "},"‽":{"ha":835,"x_min":72,"x_max":763,"o":"m 414 1064 q 666 985 569 1064 q 763 769 763 906 q 547 506 763 564 l 547 326 l 306 326 l 306 704 l 479 704 l 479 667 q 515 761 515 700 q 489 836 515 808 q 417 864 463 864 q 341 836 368 864 q 314 758 314 808 q 319 726 314 744 l 75 726 q 72 763 72 751 q 167 983 72 901 q 414 1064 261 1064 m 426 246 q 529 208 485 246 q 574 113 574 171 q 529 19 574 56 q 426 -18 485 -18 q 322 19 367 -18 q 278 113 278 56 q 322 208 278 171 q 426 246 367 246 z "},"‾":{"ha":575,"x_min":0,"x_max":575,"o":"m 575 969 l 0 969 l 0 1114 l 575 1114 l 575 969 z "},"⁄":{"ha":219,"x_min":-274,"x_max":492,"o":"m 492 1035 l -161 -8 l -274 15 l 382 1057 l 492 1035 z "},"⁰":{"ha":633,"x_min":43,"x_max":590,"o":"m 517 706 q 480 660 517 706 q 317 614 443 614 q 117 706 190 614 q 43 943 43 797 q 118 1174 43 1083 q 317 1264 193 1264 q 515 1174 440 1264 q 590 943 590 1083 q 517 706 590 797 m 244 815 q 257 791 244 815 q 317 767 269 767 q 389 815 364 767 q 414 940 414 863 q 389 1061 414 1017 q 317 1106 364 1106 q 244 1060 269 1106 q 219 940 219 1015 q 244 815 219 863 z "},"⁴":{"ha":606,"x_min":11,"x_max":571,"o":"m 496 874 l 571 874 l 571 740 l 493 740 l 496 625 l 326 625 l 331 740 l 11 739 l 11 801 l 385 1269 l 496 1269 l 496 874 m 214 874 l 331 874 l 331 944 q 338 1036 332 960 l 214 874 z "},"⁵":{"ha":613,"x_min":46,"x_max":558,"o":"m 279 615 q 46 682 142 615 l 100 821 q 267 761 185 761 q 347 784 318 761 q 376 844 376 807 q 342 904 376 883 q 253 925 308 925 q 111 906 181 925 l 97 906 l 167 1253 l 529 1253 l 529 1111 l 293 1111 q 274 1025 288 1068 q 340 1038 294 1038 q 497 983 436 1038 q 558 842 558 929 q 478 674 558 733 q 279 615 399 615 z "},"⁶":{"ha":619,"x_min":42,"x_max":578,"o":"m 313 615 q 122 683 201 615 q 42 858 42 750 q 129 1069 42 964 l 282 1253 l 513 1253 l 365 1096 q 324 1054 349 1078 q 368 1060 354 1060 q 519 999 460 1060 q 578 851 578 939 q 499 680 578 744 q 313 615 421 615 m 308 758 q 378 785 350 758 q 406 851 406 811 q 378 919 406 892 q 310 946 351 946 q 241 919 268 946 q 214 851 214 892 q 241 785 214 811 q 308 758 268 758 z "},"⁷":{"ha":583,"x_min":31,"x_max":590,"o":"m 31 1090 l 31 1253 l 590 1253 l 590 1250 l 229 622 l 31 622 l 304 1090 l 31 1090 z "},"⁸":{"ha":632,"x_min":60,"x_max":572,"o":"m 317 615 q 135 660 211 615 q 60 796 60 706 q 90 890 60 847 q 169 953 119 933 q 78 1085 78 989 q 148 1217 78 1171 q 317 1264 218 1264 q 485 1217 415 1264 q 554 1085 554 1171 q 531 1005 554 1040 q 464 953 507 969 q 543 891 514 933 q 572 797 572 849 q 498 660 572 706 q 317 615 424 615 m 317 999 q 363 1018 343 999 q 383 1067 383 1038 q 365 1115 383 1096 q 317 1133 346 1133 q 269 1115 288 1133 q 250 1067 250 1096 q 269 1018 250 1038 q 317 999 289 999 m 260 763 q 271 752 260 763 q 317 742 282 742 q 374 763 351 742 q 396 819 396 785 q 373 877 396 854 q 317 900 350 900 q 260 877 283 900 q 238 819 238 854 q 260 763 238 785 z "},"⁹":{"ha":619,"x_min":42,"x_max":578,"o":"m 490 808 l 338 625 l 107 625 l 254 782 q 296 825 265 794 q 250 818 271 818 q 101 878 160 818 q 42 1026 42 939 q 120 1199 42 1133 q 307 1264 199 1264 q 498 1196 418 1264 q 578 1019 578 1128 q 490 808 578 914 m 241 959 q 255 945 241 959 q 310 932 268 932 q 378 959 351 932 q 406 1026 406 986 q 378 1093 406 1067 q 310 1119 351 1119 q 242 1093 269 1119 q 214 1026 214 1067 q 241 959 214 986 z "},"⁺":{"ha":560,"x_min":42,"x_max":518,"o":"m 347 644 l 211 644 l 211 814 l 42 814 l 42 950 l 211 950 l 211 1121 l 347 1121 l 347 950 l 518 950 l 518 814 l 347 814 l 347 644 z "},"⁻":{"ha":560,"x_min":42,"x_max":518,"o":"m 518 808 l 42 808 l 42 944 l 518 944 l 518 808 z "},"⁼":{"ha":560,"x_min":42,"x_max":518,"o":"m 518 922 l 42 922 l 42 1058 l 518 1058 l 518 922 m 518 701 l 42 701 l 42 836 l 518 836 l 518 701 z "},"ⁿ":{"ha":522,"x_min":50,"x_max":478,"o":"m 204 626 l 50 626 l 50 1047 l 201 1047 l 200 985 l 203 985 q 335 1058 254 1058 q 442 1013 407 1058 q 478 892 478 968 l 478 626 l 322 626 l 322 844 q 269 928 322 928 q 204 832 204 928 l 204 626 z "},"₀":{"ha":633,"x_min":43,"x_max":590,"o":"m 517 -128 q 480 -174 517 -128 q 317 -219 443 -219 q 117 -128 190 -219 q 43 110 43 -36 q 118 340 43 250 q 317 431 193 431 q 515 340 440 431 q 590 110 590 250 q 517 -128 590 -36 m 244 -19 q 257 -43 244 -19 q 317 -67 269 -67 q 389 -19 364 -67 q 414 107 414 29 q 389 228 414 183 q 317 272 364 272 q 244 227 269 272 q 219 107 219 182 q 244 -19 219 29 z "},"₁":{"ha":389,"x_min":22,"x_max":306,"o":"m 306 -208 l 122 -208 l 122 256 l 22 253 l 47 415 l 306 419 l 306 -208 z "},"₂":{"ha":613,"x_min":1,"x_max":556,"o":"m 399 3 l 304 -71 q 556 -50 440 -50 l 556 -208 l 1 -208 l 1 -206 l 239 28 q 338 135 306 93 q 369 213 369 176 q 351 259 369 240 q 303 278 333 278 q 247 253 267 278 q 225 188 228 229 l 46 188 q 307 431 71 431 q 485 378 419 431 q 550 229 550 325 q 512 110 550 164 q 399 3 474 57 z "},"₃":{"ha":631,"x_min":47,"x_max":568,"o":"m 313 -219 q 127 -167 200 -219 q 47 -6 54 -115 l 231 -6 q 256 -60 233 -40 q 311 -81 279 -81 q 366 -60 344 -81 q 388 -6 388 -39 q 364 49 388 29 q 303 68 340 68 q 282 65 289 68 l 282 175 l 300 175 q 352 192 332 175 q 372 238 372 210 q 356 279 372 264 q 314 294 339 294 q 251 235 256 294 l 69 235 q 319 431 92 431 q 478 385 408 431 q 547 260 547 340 q 453 126 547 165 q 537 72 506 111 q 568 -21 568 33 q 491 -169 568 -118 q 313 -219 414 -219 z "},"₄":{"ha":606,"x_min":11,"x_max":571,"o":"m 496 40 l 571 40 l 571 -93 l 493 -93 l 496 -208 l 326 -208 l 331 -93 l 11 -94 l 11 -32 l 385 436 l 496 436 l 496 40 m 214 40 l 331 40 l 331 111 q 338 203 332 126 l 214 40 z "},"₅":{"ha":613,"x_min":46,"x_max":558,"o":"m 279 -218 q 46 -151 142 -218 l 100 -12 q 267 -72 185 -72 q 347 -49 318 -72 q 376 11 376 -26 q 342 71 376 50 q 253 92 308 92 q 111 72 181 92 l 97 72 l 167 419 l 529 419 l 529 278 l 293 278 q 274 192 288 235 q 340 204 294 204 q 497 150 436 204 q 558 8 558 96 q 478 -159 558 -100 q 279 -218 399 -218 z "},"₆":{"ha":619,"x_min":42,"x_max":578,"o":"m 313 -218 q 122 -151 201 -218 q 42 25 42 -83 q 129 236 42 131 l 282 419 l 513 419 l 365 263 q 324 221 349 244 q 368 226 354 226 q 519 166 460 226 q 578 18 578 106 q 499 -153 578 -89 q 313 -218 421 -218 m 308 -75 q 378 -49 350 -75 q 406 18 406 -22 q 378 85 406 58 q 310 113 351 113 q 241 85 268 113 q 214 18 214 58 q 241 -49 214 -22 q 308 -75 268 -75 z "},"₇":{"ha":583,"x_min":31,"x_max":590,"o":"m 31 257 l 31 419 l 590 419 l 590 417 l 229 -211 l 31 -211 l 304 257 l 31 257 z "},"₈":{"ha":632,"x_min":60,"x_max":572,"o":"m 317 -218 q 135 -173 211 -218 q 60 -37 60 -128 q 90 57 60 14 q 169 119 119 100 q 78 251 78 156 q 148 384 78 338 q 317 431 218 431 q 485 384 415 431 q 554 251 554 338 q 531 172 554 207 q 464 119 507 136 q 543 58 514 100 q 572 -36 572 15 q 498 -173 572 -128 q 317 -218 424 -218 m 317 165 q 363 185 343 165 q 383 233 383 204 q 365 281 383 263 q 317 300 346 300 q 269 281 288 300 q 250 233 250 263 q 269 185 250 204 q 317 165 289 165 m 260 -70 q 271 -81 260 -70 q 317 -92 282 -92 q 374 -70 351 -92 q 396 -14 396 -49 q 373 44 396 21 q 317 67 350 67 q 260 44 283 67 q 238 -14 238 21 q 260 -70 238 -49 z "},"₉":{"ha":619,"x_min":42,"x_max":578,"o":"m 490 -25 l 338 -208 l 107 -208 l 254 -51 q 296 -8 265 -39 q 250 -15 271 -15 q 101 45 160 -15 q 42 193 42 106 q 120 365 42 300 q 307 431 199 431 q 498 363 418 431 q 578 186 578 294 q 490 -25 578 81 m 241 126 q 255 112 241 126 q 310 99 268 99 q 378 126 351 99 q 406 193 406 153 q 378 260 406 233 q 310 286 351 286 q 242 260 269 286 q 214 193 214 233 q 241 126 214 153 z "},"₊":{"ha":560,"x_min":42,"x_max":518,"o":"m 347 -189 l 211 -189 l 211 -19 l 42 -19 l 42 117 l 211 117 l 211 288 l 347 288 l 347 117 l 518 117 l 518 -19 l 347 -19 l 347 -189 z "},"₋":{"ha":560,"x_min":42,"x_max":518,"o":"m 518 -25 l 42 -25 l 42 111 l 518 111 l 518 -25 z "},"₌":{"ha":560,"x_min":42,"x_max":518,"o":"m 518 89 l 42 89 l 42 225 l 518 225 l 518 89 m 518 -132 l 42 -132 l 42 3 l 518 3 l 518 -132 z "},"₍":{"ha":357,"x_min":63,"x_max":326,"o":"m 326 -292 l 197 -368 q 63 74 63 -156 q 197 514 63 299 l 326 439 q 226 74 226 254 q 326 -292 226 -111 z "},"₎":{"ha":357,"x_min":31,"x_max":294,"o":"m 158 -368 l 31 -292 q 131 74 131 -108 q 31 439 131 258 l 158 514 q 294 74 294 301 q 158 -368 294 -154 z "},"ₙ":{"ha":522,"x_min":50,"x_max":478,"o":"m 204 -139 l 50 -139 l 50 282 l 201 282 l 200 219 l 203 219 q 335 292 254 292 q 442 247 407 292 q 478 125 478 201 l 478 -139 l 322 -139 l 322 79 q 269 161 322 161 q 204 67 204 161 l 204 -139 z "},"₣":{"ha":801,"x_min":38,"x_max":746,"o":"m 746 1047 l 746 826 l 396 826 l 396 643 l 721 643 l 721 435 l 396 435 l 396 326 l 594 326 l 594 206 l 396 206 l 396 0 l 139 0 l 139 206 l 38 206 l 38 326 l 139 326 l 139 1047 l 746 1047 z "},"₤":{"ha":963,"x_min":33,"x_max":949,"o":"m 804 294 l 949 156 q 818 24 878 61 q 674 -14 758 -14 q 486 24 619 -14 q 317 63 353 63 q 246 47 278 63 q 168 -19 214 31 l 33 124 q 154 231 101 199 q 269 271 207 264 q 279 342 279 310 q 278 360 279 354 l 74 360 l 74 460 l 243 460 q 223 499 236 474 q 206 533 210 525 l 74 533 l 74 635 l 161 635 q 142 747 142 689 q 244 975 142 885 q 524 1065 347 1065 q 794 974 696 1065 q 896 738 893 883 l 669 707 q 630 826 667 782 q 524 871 593 871 q 425 831 463 871 q 388 726 388 792 q 407 635 388 690 l 681 635 l 681 533 l 451 533 q 485 460 472 490 l 681 460 l 681 360 l 513 360 q 514 336 514 351 q 496 243 514 296 q 542 228 511 239 q 590 213 574 218 q 627 203 606 208 q 665 199 649 199 q 732 219 703 199 q 804 294 761 239 z "},"₧":{"ha":936,"x_min":8,"x_max":943,"o":"m 856 753 l 943 753 l 943 665 l 856 665 q 734 444 840 522 q 463 367 628 367 l 376 367 l 376 0 l 119 0 l 119 665 l 8 665 l 8 753 l 119 753 l 119 1047 l 435 1047 q 730 974 618 1047 q 856 753 842 900 m 428 835 l 376 835 l 376 753 l 597 753 q 428 835 569 835 m 376 575 l 432 575 q 599 665 572 575 l 376 665 l 376 575 z "},"€":{"ha":953,"x_min":63,"x_max":932,"o":"m 692 179 q 874 228 793 179 l 917 36 q 674 -19 819 -19 q 368 76 490 -19 q 201 335 246 171 l 63 335 l 103 468 l 181 468 q 179 511 179 482 q 181 560 179 544 l 65 560 l 106 693 l 201 693 q 377 967 247 868 q 693 1065 507 1065 q 932 1017 831 1065 l 863 825 q 699 868 790 868 q 544 822 610 868 q 443 693 478 775 l 801 693 l 763 560 l 410 560 q 408 515 408 546 q 410 468 408 483 l 747 468 l 708 335 l 443 335 q 692 179 513 179 z "},"₸":{"ha":744,"x_min":15,"x_max":729,"o":"m 729 861 l 15 861 l 15 1047 l 729 1047 l 729 861 m 504 0 l 242 0 l 242 585 l 15 585 l 15 772 l 729 772 l 729 585 l 504 585 l 504 0 z "},"₹":{"ha":943,"x_min":68,"x_max":908,"o":"m 908 1047 l 908 904 l 660 904 q 718 806 703 858 l 908 806 l 908 663 l 726 663 q 621 472 708 544 q 371 399 533 399 l 369 399 l 819 0 l 483 0 l 68 388 l 68 544 l 264 544 q 465 663 429 544 l 68 663 l 68 806 l 463 806 q 282 904 428 904 l 68 904 l 68 1047 l 908 1047 z "},"₺":{"ha":1000,"x_min":58,"x_max":956,"o":"m 703 450 l 956 450 q 438 -11 943 -11 q 188 4 310 -11 l 188 368 l 58 314 l 58 467 l 188 521 l 188 610 l 58 556 l 58 708 l 188 763 l 188 1047 l 449 1047 l 449 871 l 694 974 l 694 821 l 449 718 l 449 629 l 694 731 l 694 578 l 449 476 l 449 218 q 510 214 475 214 q 647 277 594 214 q 703 450 699 340 z "},"₼":{"ha":1125,"x_min":46,"x_max":1078,"o":"m 688 1047 l 688 881 q 981 697 885 847 q 1078 274 1078 547 l 1078 0 l 828 0 l 828 246 q 795 535 828 433 q 688 672 763 636 l 688 90 l 436 90 l 436 668 q 330 524 363 626 q 297 244 297 422 l 297 0 l 46 0 l 46 274 q 436 879 46 808 l 436 1047 l 688 1047 z "},"₽":{"ha":953,"x_min":49,"x_max":915,"o":"m 540 421 l 454 421 l 454 338 l 794 338 l 794 182 l 454 182 l 454 0 l 197 0 l 197 182 l 49 182 l 49 338 l 197 338 l 197 421 l 49 421 l 49 575 l 197 575 l 197 1047 l 499 1047 q 803 969 692 1047 q 915 729 915 892 q 814 501 915 582 q 540 421 713 421 m 485 849 l 454 849 l 454 575 l 489 575 q 661 715 661 575 q 485 849 661 849 z "},"℅":{"ha":1382,"x_min":60,"x_max":1322,"o":"m 340 528 q 139 600 218 528 q 60 797 60 672 q 140 990 60 919 q 342 1061 219 1061 q 456 1040 396 1061 l 456 868 q 364 903 424 903 q 281 872 313 903 q 249 796 249 840 q 281 719 249 750 q 365 689 313 689 q 456 722 422 689 l 456 549 q 340 528 401 528 m 1097 957 l 340 32 l 246 111 l 1003 1031 l 1097 957 m 1031 -12 q 826 61 911 -12 q 742 257 742 135 q 826 447 742 375 q 1032 519 910 519 q 1238 447 1154 519 q 1322 254 1322 375 q 1238 61 1322 135 q 1031 -12 1153 -12 m 1033 150 q 1106 181 1078 150 q 1135 254 1135 211 q 1106 331 1135 299 q 1032 363 1076 363 q 959 331 988 363 q 931 256 931 299 q 959 181 931 211 q 1033 150 988 150 z "},"ℓ":{"ha":733,"x_min":22,"x_max":683,"o":"m 453 125 q 601 192 521 125 l 676 85 q 419 -18 547 -18 q 228 45 290 -18 q 165 214 165 108 l 165 318 q 126 298 157 314 q 74 271 94 282 l 22 401 q 165 475 75 428 l 165 792 q 242 992 165 919 q 440 1065 319 1065 q 615 1008 547 1065 q 683 840 683 950 q 605 620 683 722 q 361 414 526 518 l 361 243 q 453 125 361 125 m 444 924 q 384 894 407 924 q 361 811 361 864 l 361 579 q 517 833 517 693 q 497 901 517 878 q 444 924 476 924 z "},"№":{"ha":1744,"x_min":119,"x_max":1685,"o":"m 325 1047 l 751 414 l 740 1047 l 989 1047 l 989 0 l 788 0 l 361 628 l 368 0 l 119 0 l 119 1047 l 325 1047 m 1396 886 q 1603 812 1521 886 q 1685 614 1685 738 q 1603 416 1685 490 q 1394 342 1522 342 q 1187 417 1268 342 q 1106 617 1106 492 q 1188 812 1106 738 q 1396 886 1269 886 m 1319 529 q 1334 513 1319 529 q 1396 496 1349 496 q 1472 529 1443 496 q 1501 614 1501 563 q 1472 699 1501 665 q 1396 732 1443 732 q 1319 699 1349 732 q 1290 615 1290 665 q 1319 529 1290 563 m 1396 240 q 1483 205 1447 240 q 1518 119 1518 169 q 1483 35 1518 69 q 1396 0 1447 0 q 1308 35 1343 0 q 1272 119 1272 69 q 1308 205 1272 169 q 1396 240 1343 240 z "},"℗":{"ha":1176,"x_min":44,"x_max":1131,"o":"m 588 -19 q 203 140 363 -19 q 44 524 44 299 q 203 908 44 749 q 588 1067 363 1067 q 972 908 814 1067 q 1131 524 1131 749 q 972 140 1131 299 q 588 -19 814 -19 m 588 94 q 892 217 769 94 q 1015 524 1015 339 q 892 831 1015 708 q 588 953 769 953 q 283 831 404 953 q 161 524 161 708 q 283 217 161 339 q 588 94 404 94 m 554 244 l 411 244 l 411 818 l 589 818 q 758 774 696 818 q 819 639 819 731 q 760 497 819 551 q 594 443 700 443 l 554 443 l 554 244 m 554 696 l 554 558 l 581 558 q 675 631 675 558 q 583 696 675 696 l 554 696 z "},"™":{"ha":1156,"x_min":8,"x_max":1117,"o":"m 569 482 l 424 482 l 524 1049 l 636 1049 l 772 711 l 911 1049 l 1024 1049 l 1117 482 l 974 482 l 931 803 l 800 486 l 739 486 l 615 801 l 569 482 m 276 482 l 129 482 l 129 917 l 8 914 l 8 1047 l 397 1047 l 397 914 l 276 917 l 276 482 z "},"Ω":{"ha":1292,"x_min":83,"x_max":1208,"o":"m 1028 206 l 1208 206 l 1208 0 l 747 0 l 747 200 q 886 345 843 267 q 929 533 929 424 q 846 743 929 657 q 646 829 763 829 q 444 744 528 829 q 361 533 361 658 q 404 347 361 425 q 543 203 447 268 l 543 0 l 83 0 l 83 206 l 263 206 q 97 558 97 342 q 255 920 97 774 q 646 1067 413 1067 q 1035 920 876 1067 q 1193 558 1193 774 q 1028 206 1193 342 z "},"℮":{"ha":1368,"x_min":111,"x_max":1257,"o":"m 685 0 q 269 147 428 0 q 111 522 111 293 q 267 899 111 750 q 685 1047 422 1047 q 1102 891 947 1047 q 1257 508 1257 735 l 343 508 q 324 489 324 508 l 324 240 q 346 175 324 196 q 685 39 486 39 q 887 83 792 39 q 1042 201 982 128 l 1144 201 q 968 60 1085 119 q 685 0 851 0 m 343 540 l 1024 540 q 1043 560 1043 540 l 1043 808 q 1021 869 1043 849 q 685 1008 881 1008 q 346 869 488 1008 q 324 808 324 849 l 324 560 q 343 540 324 540 z "},"⅛":{"ha":1240,"x_min":22,"x_max":1181,"o":"m 881 1035 l 228 -8 l 115 15 l 771 1057 l 881 1035 m 306 419 l 122 419 l 122 883 l 22 881 l 47 1043 l 306 1047 l 306 419 m 925 -10 q 744 35 819 -10 q 668 171 668 81 q 698 265 668 222 q 778 328 728 308 q 686 460 686 364 q 756 592 686 546 q 925 639 826 639 q 1093 592 1024 639 q 1163 460 1163 546 q 1139 380 1163 415 q 1072 328 1115 344 q 1151 266 1122 308 q 1181 172 1181 224 q 1106 35 1181 81 q 925 -10 1032 -10 m 925 374 q 972 393 951 374 q 992 442 992 413 q 973 490 992 471 q 925 508 954 508 q 877 490 896 508 q 858 442 858 471 q 878 393 858 413 q 925 374 897 374 m 868 138 q 879 127 868 138 q 925 117 890 117 q 982 138 960 117 q 1004 194 1004 160 q 981 252 1004 229 q 925 275 958 275 q 869 252 892 275 q 846 194 846 229 q 868 138 846 160 z "}}}
